<mxfile host="app.diagrams.net" modified="2021-11-19T08:57:30.116Z" agent="5.0 (Windows NT 10.0; Win64; x64) AppleWebKit/537.36 (KHTML, like Gecko) Chrome/89.0.4389.114 Safari/537.36" etag="5WrrLe_iB9nY2jsvsO0-" version="15.6.6" type="github">
  <diagram id="WWiy0l4UguBMJ_xnrwab" name="第 1 页">
    <mxGraphModel dx="2249" dy="762" grid="1" gridSize="10" guides="1" tooltips="1" connect="1" arrows="1" fold="1" page="1" pageScale="1" pageWidth="827" pageHeight="1169" math="0" shadow="0">
      <root>
        <mxCell id="0" />
        <mxCell id="1" parent="0" />
        <mxCell id="nhkQxJ2o8u4Fg2ImektT-5" value="Classname" style="swimlane;fontStyle=0;childLayout=stackLayout;horizontal=1;startSize=26;fillColor=none;horizontalStack=0;resizeParent=1;resizeParentMax=0;resizeLast=0;collapsible=1;marginBottom=0;fontColor=default;strokeColor=default;strokeWidth=2;" parent="1" vertex="1">
          <mxGeometry x="-80" y="540" width="140" height="104" as="geometry" />
        </mxCell>
        <mxCell id="nhkQxJ2o8u4Fg2ImektT-6" value="+ field: type" style="text;strokeColor=none;fillColor=none;align=left;verticalAlign=top;spacingLeft=4;spacingRight=4;overflow=hidden;rotatable=0;points=[[0,0.5],[1,0.5]];portConstraint=eastwest;fontColor=default;" parent="nhkQxJ2o8u4Fg2ImektT-5" vertex="1">
          <mxGeometry y="26" width="140" height="26" as="geometry" />
        </mxCell>
        <mxCell id="nhkQxJ2o8u4Fg2ImektT-7" value="+ field: type" style="text;strokeColor=none;fillColor=none;align=left;verticalAlign=top;spacingLeft=4;spacingRight=4;overflow=hidden;rotatable=0;points=[[0,0.5],[1,0.5]];portConstraint=eastwest;fontColor=default;" parent="nhkQxJ2o8u4Fg2ImektT-5" vertex="1">
          <mxGeometry y="52" width="140" height="26" as="geometry" />
        </mxCell>
        <mxCell id="nhkQxJ2o8u4Fg2ImektT-8" value="+ field: type" style="text;strokeColor=none;fillColor=none;align=left;verticalAlign=top;spacingLeft=4;spacingRight=4;overflow=hidden;rotatable=0;points=[[0,0.5],[1,0.5]];portConstraint=eastwest;fontColor=default;" parent="nhkQxJ2o8u4Fg2ImektT-5" vertex="1">
          <mxGeometry y="78" width="140" height="26" as="geometry" />
        </mxCell>
        <mxCell id="nhkQxJ2o8u4Fg2ImektT-9" value="Classname" style="swimlane;fontStyle=1;align=center;verticalAlign=top;childLayout=stackLayout;horizontal=1;startSize=26;horizontalStack=0;resizeParent=1;resizeParentMax=0;resizeLast=0;collapsible=1;marginBottom=0;fontColor=default;strokeColor=default;strokeWidth=2;fillColor=default;" parent="1" vertex="1">
          <mxGeometry x="-130" y="215" width="160" height="86" as="geometry" />
        </mxCell>
        <mxCell id="nhkQxJ2o8u4Fg2ImektT-10" value="+ field: type" style="text;strokeColor=none;fillColor=none;align=left;verticalAlign=top;spacingLeft=4;spacingRight=4;overflow=hidden;rotatable=0;points=[[0,0.5],[1,0.5]];portConstraint=eastwest;fontColor=default;" parent="nhkQxJ2o8u4Fg2ImektT-9" vertex="1">
          <mxGeometry y="26" width="160" height="26" as="geometry" />
        </mxCell>
        <mxCell id="nhkQxJ2o8u4Fg2ImektT-11" value="" style="line;strokeWidth=1;fillColor=none;align=left;verticalAlign=middle;spacingTop=-1;spacingLeft=3;spacingRight=3;rotatable=0;labelPosition=right;points=[];portConstraint=eastwest;fontColor=default;" parent="nhkQxJ2o8u4Fg2ImektT-9" vertex="1">
          <mxGeometry y="52" width="160" height="8" as="geometry" />
        </mxCell>
        <mxCell id="nhkQxJ2o8u4Fg2ImektT-12" value="+ method(type): type" style="text;strokeColor=none;fillColor=none;align=left;verticalAlign=top;spacingLeft=4;spacingRight=4;overflow=hidden;rotatable=0;points=[[0,0.5],[1,0.5]];portConstraint=eastwest;fontColor=default;" parent="nhkQxJ2o8u4Fg2ImektT-9" vertex="1">
          <mxGeometry y="60" width="160" height="26" as="geometry" />
        </mxCell>
        <mxCell id="nhkQxJ2o8u4Fg2ImektT-13" value="«interface»&lt;br&gt;&lt;b&gt;TransactionManager&lt;/b&gt;" style="html=1;fontColor=default;strokeColor=default;strokeWidth=2;fillColor=default;" parent="1" vertex="1">
          <mxGeometry x="1390" y="80" width="170" height="120" as="geometry" />
        </mxCell>
        <mxCell id="nhkQxJ2o8u4Fg2ImektT-14" value="&lt;p style=&quot;margin: 0px ; margin-top: 4px ; text-align: center&quot;&gt;&lt;i&gt;&amp;lt;&amp;lt;Interface&amp;gt;&amp;gt;&lt;/i&gt;&lt;br&gt;&lt;b&gt;PlatformTransactionManager&lt;/b&gt;&lt;br&gt;&lt;/p&gt;&lt;hr size=&quot;1&quot;&gt;&lt;p style=&quot;margin: 0px ; margin-left: 4px&quot;&gt;+ field1: NO&lt;br&gt;&lt;/p&gt;&lt;hr size=&quot;1&quot;&gt;&lt;p style=&quot;margin: 0px ; margin-left: 4px&quot;&gt;+ method1(Type): Type&lt;br&gt;+&amp;nbsp;getTransaction(TransactionDefinition)&amp;nbsp;TransactionStatus&lt;/p&gt;&lt;p style=&quot;margin: 0px ; margin-left: 4px&quot;&gt;+&amp;nbsp;commit(TransactionStatus) void&lt;/p&gt;&lt;p style=&quot;margin: 0px ; margin-left: 4px&quot;&gt;+rollback(TransactionStatus) void&lt;/p&gt;" style="verticalAlign=top;align=left;overflow=fill;fontSize=12;fontFamily=Helvetica;html=1;fontColor=default;strokeColor=default;strokeWidth=2;fillColor=default;" parent="1" vertex="1">
          <mxGeometry x="860" y="80" width="330" height="150" as="geometry" />
        </mxCell>
        <mxCell id="nhkQxJ2o8u4Fg2ImektT-17" value="Extends" style="endArrow=block;endSize=16;endFill=0;html=1;rounded=0;fontColor=default;strokeColor=default;labelBackgroundColor=default;" parent="1" edge="1">
          <mxGeometry x="0.375" width="160" relative="1" as="geometry">
            <mxPoint x="1210" y="139.5" as="sourcePoint" />
            <mxPoint x="1370" y="139.5" as="targetPoint" />
            <mxPoint as="offset" />
          </mxGeometry>
        </mxCell>
        <mxCell id="nhkQxJ2o8u4Fg2ImektT-18" value="Classname" style="swimlane;fontStyle=0;childLayout=stackLayout;horizontal=1;startSize=26;fillColor=none;horizontalStack=0;resizeParent=1;resizeParentMax=0;resizeLast=0;collapsible=1;marginBottom=0;fontColor=default;strokeColor=default;strokeWidth=2;" parent="1" vertex="1">
          <mxGeometry x="-190" y="390" width="190" height="104" as="geometry" />
        </mxCell>
        <mxCell id="nhkQxJ2o8u4Fg2ImektT-19" value="+ field: type" style="text;strokeColor=none;fillColor=none;align=left;verticalAlign=top;spacingLeft=4;spacingRight=4;overflow=hidden;rotatable=0;points=[[0,0.5],[1,0.5]];portConstraint=eastwest;fontColor=default;" parent="nhkQxJ2o8u4Fg2ImektT-18" vertex="1">
          <mxGeometry y="26" width="190" height="26" as="geometry" />
        </mxCell>
        <mxCell id="nhkQxJ2o8u4Fg2ImektT-20" value="+ field: type" style="text;strokeColor=none;fillColor=none;align=left;verticalAlign=top;spacingLeft=4;spacingRight=4;overflow=hidden;rotatable=0;points=[[0,0.5],[1,0.5]];portConstraint=eastwest;fontColor=default;" parent="nhkQxJ2o8u4Fg2ImektT-18" vertex="1">
          <mxGeometry y="52" width="190" height="26" as="geometry" />
        </mxCell>
        <mxCell id="nhkQxJ2o8u4Fg2ImektT-21" value="+ field: type" style="text;strokeColor=none;fillColor=none;align=left;verticalAlign=top;spacingLeft=4;spacingRight=4;overflow=hidden;rotatable=0;points=[[0,0.5],[1,0.5]];portConstraint=eastwest;fontColor=default;" parent="nhkQxJ2o8u4Fg2ImektT-18" vertex="1">
          <mxGeometry y="78" width="190" height="26" as="geometry" />
        </mxCell>
        <mxCell id="nhkQxJ2o8u4Fg2ImektT-26" value="AbstractPlatformTransactionManager(Abstract Class)" style="swimlane;fontStyle=1;align=center;verticalAlign=top;childLayout=stackLayout;horizontal=1;startSize=20;horizontalStack=0;resizeParent=1;resizeParentMax=0;resizeLast=0;collapsible=1;marginBottom=0;fontColor=default;strokeColor=default;strokeWidth=2;fillColor=default;" parent="1" vertex="1">
          <mxGeometry x="310" y="95" width="360" height="250" as="geometry" />
        </mxCell>
        <mxCell id="nhkQxJ2o8u4Fg2ImektT-27" value="+ field: type" style="text;strokeColor=none;fillColor=none;align=left;verticalAlign=top;spacingLeft=4;spacingRight=4;overflow=hidden;rotatable=0;points=[[0,0.5],[1,0.5]];portConstraint=eastwest;fontColor=default;" parent="nhkQxJ2o8u4Fg2ImektT-26" vertex="1">
          <mxGeometry y="20" width="360" height="26" as="geometry" />
        </mxCell>
        <mxCell id="nhkQxJ2o8u4Fg2ImektT-28" value="" style="line;strokeWidth=1;fillColor=none;align=left;verticalAlign=middle;spacingTop=-1;spacingLeft=3;spacingRight=3;rotatable=0;labelPosition=right;points=[];portConstraint=eastwest;fontColor=default;" parent="nhkQxJ2o8u4Fg2ImektT-26" vertex="1">
          <mxGeometry y="46" width="360" height="8" as="geometry" />
        </mxCell>
        <mxCell id="nhkQxJ2o8u4Fg2ImektT-29" value="+ method(type): type&#xa;+getTransaction(TransactionDefinition)  TransactionStatus&#xa;   ++startTransaction(TransactionDefinition Object)&#xa;         +++dobegin(TransactionDefinition Object)&#xa;+ commit&#xa;+rollback&#xa;&#xa;+private methond&#xa;+dobegin(Object TransactionDefinition) 空方法无实现" style="text;strokeColor=none;fillColor=none;align=left;verticalAlign=top;spacingLeft=4;spacingRight=4;overflow=hidden;rotatable=0;points=[[0,0.5],[1,0.5]];portConstraint=eastwest;fontColor=default;" parent="nhkQxJ2o8u4Fg2ImektT-26" vertex="1">
          <mxGeometry y="54" width="360" height="196" as="geometry" />
        </mxCell>
        <mxCell id="nhkQxJ2o8u4Fg2ImektT-30" value="" style="endArrow=block;dashed=1;endFill=0;endSize=12;html=1;rounded=0;labelBackgroundColor=default;fontColor=default;strokeColor=default;" parent="1" edge="1">
          <mxGeometry width="160" relative="1" as="geometry">
            <mxPoint x="690" y="149.5" as="sourcePoint" />
            <mxPoint x="850" y="149.5" as="targetPoint" />
          </mxGeometry>
        </mxCell>
        <mxCell id="nhkQxJ2o8u4Fg2ImektT-31" value="DataSourceTransactionManager" style="swimlane;fontStyle=1;align=center;verticalAlign=top;childLayout=stackLayout;horizontal=1;startSize=26;horizontalStack=0;resizeParent=1;resizeParentMax=0;resizeLast=0;collapsible=1;marginBottom=0;fontColor=default;strokeColor=default;strokeWidth=2;fillColor=default;" parent="1" vertex="1">
          <mxGeometry x="320" y="500" width="370" height="200" as="geometry" />
        </mxCell>
        <mxCell id="nhkQxJ2o8u4Fg2ImektT-32" value="+ field: type" style="text;strokeColor=none;fillColor=none;align=left;verticalAlign=top;spacingLeft=4;spacingRight=4;overflow=hidden;rotatable=0;points=[[0,0.5],[1,0.5]];portConstraint=eastwest;fontColor=default;" parent="nhkQxJ2o8u4Fg2ImektT-31" vertex="1">
          <mxGeometry y="26" width="370" height="26" as="geometry" />
        </mxCell>
        <mxCell id="nhkQxJ2o8u4Fg2ImektT-33" value="" style="line;strokeWidth=1;fillColor=none;align=left;verticalAlign=middle;spacingTop=-1;spacingLeft=3;spacingRight=3;rotatable=0;labelPosition=right;points=[];portConstraint=eastwest;fontColor=default;" parent="nhkQxJ2o8u4Fg2ImektT-31" vertex="1">
          <mxGeometry y="52" width="370" height="8" as="geometry" />
        </mxCell>
        <mxCell id="nhkQxJ2o8u4Fg2ImektT-34" value="+ method(type): type&#xa;+ dobegin(Object TransactionDefinition)&#xa;+docommit(DefaultTransactionStatus)&#xa;+doRollback(DefaultTransactionStatus)&#xa;&#xa;" style="text;strokeColor=none;fillColor=none;align=left;verticalAlign=top;spacingLeft=4;spacingRight=4;overflow=hidden;rotatable=0;points=[[0,0.5],[1,0.5]];portConstraint=eastwest;fontColor=default;" parent="nhkQxJ2o8u4Fg2ImektT-31" vertex="1">
          <mxGeometry y="60" width="370" height="140" as="geometry" />
        </mxCell>
        <mxCell id="nhkQxJ2o8u4Fg2ImektT-35" value="" style="endArrow=block;dashed=1;endFill=0;endSize=12;html=1;rounded=0;labelBackgroundColor=default;fontColor=default;strokeColor=default;" parent="1" edge="1">
          <mxGeometry width="160" relative="1" as="geometry">
            <mxPoint x="520" y="490" as="sourcePoint" />
            <mxPoint x="520" y="350" as="targetPoint" />
            <Array as="points">
              <mxPoint x="520" y="442" />
              <mxPoint x="520" y="360" />
              <mxPoint x="520" y="350" />
              <mxPoint x="520" y="380" />
            </Array>
          </mxGeometry>
        </mxCell>
        <mxCell id="nhkQxJ2o8u4Fg2ImektT-39" value="" style="endArrow=none;dashed=1;html=1;dashPattern=1 3;strokeWidth=2;rounded=0;labelBackgroundColor=default;fontColor=default;strokeColor=default;" parent="1" edge="1">
          <mxGeometry width="50" height="50" relative="1" as="geometry">
            <mxPoint x="310" y="585" as="sourcePoint" />
            <mxPoint x="300" y="280" as="targetPoint" />
            <Array as="points">
              <mxPoint x="160" y="585" />
              <mxPoint x="160" y="280" />
            </Array>
          </mxGeometry>
        </mxCell>
        <mxCell id="WOPIsM53OSdwmIhIfmJa-1" value="" style="shape=image;verticalLabelPosition=bottom;labelBackgroundColor=#ffffff;verticalAlign=top;aspect=fixed;imageAspect=0;image=data:image/png,iVBORw0KGgoAAAANSUhEUgAAAggAAAH2CAYAAAAVjHSXAAAgAElEQVR4Xux9B5xdVbX+d8otU9Mmjd5JoUt90iW0JIDiExT8I6LSBZ6AQqg+UZEmCClIFRLgASKI+uQJSlfpSJUOgRBaEqbde0/7/9Zae9975mYSZoapmXV9eTNz7zl77/Odc1nf/lZzkjhJHn7kYdxwww341a9+Bdf10dLSjMbGRjgOACRIkph+gSNv0G9AQv8S/tUcaD6r+pHQEPT/zCkAYgdw4cCJEvr/oNEjN0HkJMgkgJe45vgEiRPBAf2j+XyAPnNlPJmcJ6BRO5mfxuEFpj6zx6fHMMfQW+VD5Tg5StaTHqXzi+3au0mSMJb257XXXovFixfjhBNOQDabRRzHKBQKaGhoKB/TtZH1KEVg6CNA3wv73xv7HYmiCK7rpv4bNPSvc1W9gur719F29O5VV/+3lEan/37Ss9JXr/T1sV0z/z3v7fnS11b9fejtudLXkb4eJyiWkvvuuw+33nYr5l15JUqlAL7vw/PEHPLB8hscxxWywD+XByZt9PiCjA1mQJlcJIgdMvcxG3w/dhBHMRzPReAQGQAyiQM3tmSC5grhOPTTgRNnmSAQaaBF0YixWZ9clJmGJ3ZAS6WpifTQ59bcL89phCDYZca0XH6+iHQYMmQwSGIx7umH3gJqr9/evJU9OHQs/UePHuarrroKy5Ytw8knnwzP89Dc3Iy6ujp+yNNj98VDoWMqAoqAIqAIKAKdIeDEUZz89b77cPMtt+CK2VcgimLkcllEUSiM3QgAbKxiMdQxKwpmP032M07guh7iWFi+JRVEAuh3ei+MIjiug8RxECIRBSGIkPE9RHGMyHMROYAfAx4RBzLyRBpQYoLgOh4QZQB4SLwYcRLCJUKQkKEFPM9HFAUg4ujwuUQQHCY1ooJYkmJ0ByY4oorYn7y+hGhBbEiAIRpELpIEvuvTFZUZKhl4Swrs7sayy2qw6TgiA/Z4IgJ0Pv2bP38+Fi1ahFNPPZU/D4KA5yM1oS+ZsH4lFAFFQBFQBBSBFSHgxGGUPPTQQ7jhxhtwxRWXsxEnY8+785gMoMvbeTJapCy4vie7ccsPHAftbe3I5/JMGoKgxCoDfZzL5njeUqmEDJEOIgL0huuiVCyiPpuDE8cs40e+i0IYIJO4yDo+gihEEBVRU5dBqdgOj1SAMINsLofYjRHFJWIm8NwMENN6XTa2vk/G3CgMjodSKUQm4yNBZIiLy9dXKATI5fIolYpMiMIwFFWC1haWkM3kmNSwIQ9jPjeXybBKEZudvyUFhE0ul+P5WVlgecu4T+iao4iNPR1Hv/NYuRz/pL8XLFiA9957Dz/60Y/Q2trK6oF9Vdw6aRePPtCKgCKgCCgCikDfIsAE4f4H7mcjNe/KuRwREJOM7rpoa21DbW092tsKvIoPP/wQJ5x0AqsNrW1tyOWz8P0MkoiMJxEAIhSy4GKhgKyfEXKQycAnIxzHaC+VkDgufM9F3nXx94cexkUXX4wk46GURNhkoyk49nvHYOLqqyFISnDcAI4TwXezcOIcFn/wCZomjEEYtyPjA56TRVB0EIcuojBEXb2POC7B832UiiH/TJIQngeEIakYHgrtpDRkkM0QqYl43VEcIpvLoMTKiQffzyKIIgTFEisktTV5dot4roO2tnbU5HMoFovwPR+eIU1szElRIZ3DEcJCJIIwIAJCvxMW9CKyQO8TMSAXw5FHHonVV1+dCYklD2kXA6kP9Jm+FAFFQBFQBBSB/kDASaI4+dvf/oabblqAufNms9+dDF1baztyNbWIShFclsMTvPHGG9h1t13x5FNPYtSY0fAzvkjxiYOwFML3PYRhgLa2NtTX1bGKQHtpUg5IeShFMbsXWtvbmTw05nK4/977cObZZ+H8X16IsRMnoiFXh3GjmxDGQCZPu/kWuIhRKgQoFTw0NIygQAV82voxGhrySCIPPmopypEl/DguIl/jS+Bi4sH1fARBK0pBO6sPrpNBQu+7PtrbQmSzPlyPYiMilIICMkRqyHXgZdDS3I6RjQ2skJAC4Lku2tvakM1kmQAU2ttZfcjkxOiTAS+rKwkQlMg94vD7LS0tyOdJsSjxT3qP4g4OOeQQzJkzB6utthqTBjq+pqaGj7dKQnVsR388GDqHIqAIKAKKwPBGgAnCgw8+yC6GuXMvZx8+vUpBhAMPOBAPPPAQvvrVr+Gcc87F+4sXY9qe0/D8i8/jgYcewLcO/xbHJRx/3Ak45+xzsWzpEvzwhz/E7+64A/vuszfOPeccbDxpEr5+8MG48/e/x+ZbbYULf3kJttl2W4RBiPpsFv/3hz/iwl9ehNlXXYlR48aixsnh38//G7vsvhu23mErbLPNpojjANdfeyPaPo3x7SOOxOnn/hDn/fws/P6u21BojbDZlO1QkxmNvz1wH4495jCcPusUXHXV1bjwwktY9fjzPXdi4sTxuOqaazBz5pfx13sfwl/+7wH86U//i0sv/SWaW5bgR6efgj/86ff44Q9Pw+IPP8CM/Q/EJRdfhgvO/wX++Ie7sfpqq+GWm2/G+HFjWVUgdaA2n2dDnmUlhUiJvMj9ImqDxGMQEaCsEHIfWFWACMK6667LsQfW1UDnEskhMmJjN+x7aVfD8H5k9eoVAUVAEVAE+gMBdjGQgnDzLTdj3pUUpFiEk7i4+qpr8Pu7/oArr7wac+Zcia233gbrrLcudtp5Jyz6YBFa21vx0ccf4YknnsD8G2/Cb667Ds8/9wJmnX4azv/5zzF61CisueaaeP2VVzFtrz1x4/z5mLjmmhjZNAb5ujrU5fPwwxgP3f9XfPVrX8HEtdaAm8nivHPPx2rj18BuX9oNd//pDmyz3aZobf0Ui9/7GA/e9zhumH8Trr/lGsye90sEpTZ869Bv4zvfOh7XXXMznCTBqT86Dj/4wQkc+LfzTrtjo402xHeP/CZuu+0W/PZ3d8D3avHwQ4/hkYf/id/f9Udce93V2GffaVh/o7Vx8sk/wDn/fTY2njwVJ58yC2usvi4K7W0Ii0XMmvUjjBo1SiIbySURUvyDy24GcrWQwefMBArk5DALF67jsGJA5IHSFsn4kzrw6quvskvh3nvv5c/pWBu0SL9/9NFHmDhxogRWdkgv7Y9HQudQBBQBRUARUAQAzmL421//ygSBFAQg5C3weef9DI/94wncfMtteOH5lzFi5Ag2htP23hOPPPownnnuGfz2jt/iww8/wMcfL8PNN92CrO9h/g034u+PPIJCWxtOPflk/MdOO2LuvLl48MGH8fGypZhxwAE4+JBDUF9bg4ZMFnfceit+ffVsXDHnckxYfS04Tg2efPJ5HPDl/fDq68/h0+b38ef//SMeefAxvPby+4giB7f94Sb89Odno6G+Bgd++ev4zreOwR/v/j+89cYb+NnPzsb3vvcdzJ49F2GYYN1110ZbYRnOP//H+Mt99+H22+7CiIaxGNE4Fk899Sx838Ett96IZ557ArPnXoaTTzkFW2y1DX783z/Huws/RNOYMVhvnbXwzW8eipp8HnEYcEwCuxva29jg27gLG1+Qzl+1sQf0sBF+Tz/9NG666Sacc845GDlyJD+DNlaBjiX3TG1tLccqpPO+VUHQr6sioAgoAopAfyLACgK5GG6cfyPmzr0CjksZCC6eeeZZnHD8f2H77f8Dixd/iIMOOhgTJk7EHtP2wD8e/wduvuUmPP7k49hyqy1x151/wPXX/QajRjTgN9ddj5ZPP8Wbr72OI486EhtvPAnX3/AbDmp8a+FCfGG77fCNbx7KKYP5BLjvL3/GhRf/HNdedw2axk2En6nFY489i4O+/p94/ImH8fHH7+CCX/wCOb8OTaPWwu2334m77rkdl8++GA31dfj2t76HA/c/GL+742588vFHOPus0/DjH5+L22+/A6VihNq6PLb6wlTMmLk3nn72GfzXSadis023xszpX8Y3v3kYDj30Gzj/gvOwaPG7uOiSX3AKZ0PDKLz86hs4+KBD8MADD2DdddbCt791OJYu/QTXXXsdjjj823j+uec4A2LzzTfn+I2DDz4YEyZMYLWgulCIdSGQ2vLHP/4Rhx9+OCsElgRQ7IElEOResAoEjZWOP1CS0J9fDZ1LEVAEFIHhjYDT1tKaPP744xyDcOmlF8PPeByZT+GFD9z/IBYt+gATJ66GLbbYgne6Dz70IPbYc0+89/5C/POxf2LkCFIWAuy22+6Iwgh/vfdexGGIiRMmYMstt4TrOvjzPfegFIZoGDECW279BYxpauIaRF4S48P3F+Glf7+IbbfbDrl8LZVPwpKlS/Hwow9jj2m7IElKeP5f/8Kbr7+LMaMmormlGTvtviPeePMVrpOw8YZT8OhD/8ROX9wZxUI7nn32aWy77bZ499338MILL6G1tRkbbLgOtt52Sy5A9PRTz2LkyCasvda6+Otf78eUKZOw/gYbcBrkwnffweNPPYH29iLWWWc9bLbFFnjhhRcxoqEeG6y/PpYuWYoH7v8bdtt1Nyx85x3OTFh77bXw6KOPYpddduGdP9c7MCmOlMpJAYk2RfTyyy9nV8Kxxx7LSgGpD/ZlVQSuGRFScShKN+1YDUxrIgzvL6tevSKgCCgC/YmAU2hrZwXhtttuw6+uuIxrGJCBqq2tkwrJXFLZFBQyRZOoZpEtVEw7bgrII387ud+peJEtrWxLE3OBIM9jwxnFUs+Q0gVdOpcrNlN1QpvCZ4sVUcokFUiSgL+E1+GCqhxSxoHjSoVHipdwIHUbpLqj1CzgjAI6mBck6Ze2IBIVg6JURhsIyNdpPqfVcRkoR7IvvHJNCJo4ge9TOqWkL0p1SblKWwOB8KDhwlLACsHSpUvZlfD3v/8dd999N77//e9jzJgxnMpolQL6aVWH6riDdNlQVRD686uhcykCioAiMLwRkEJJDz/MCsLll/+Kg+ZoJ0w/ydKRIfU8FzH1TaCguzCQKHskJre/kpvve5TmSLtfKSZkd7xSH4BqEIIleCqPTJUaydjGUYgkJmNLddapKFOCOKFzxdjLGIY0xPRZAj8rVQiFmEi1R5ojDAI26FI1kQoWyS6cdvB2HLrdVGmRDC8Z8CCgcSjbgEo4S3EoTt906foCw4QcZGjdRG5MNUQpIiXlkrmAlGvqHlDZ6DCE70pq44gRI7jWwRFHHIE77riDiUF7ezsrC3QurSFdZdEqCIyTmUvW3FudIIb3A69XrwgoAoqAItA1BJzW5paEfOM333wzLrjoIpOrXywbLjFO6b4LUjJY3jdNjNj+S1ll+7K9EewOWHbtld4C3JeBd/ZSBZF1AtP7KaESy3EoFQm5LwOVTLZNl9I9FWQXz6WUyWC7nhxv+0c5UqnQ8yRt0HRvkFLMRHCIpHjk87cKhVyraAAkGBDhoPLKKzfOFTwcDkTk0U3Gwttvv41vfOMbIJXGYmQrKkqAY6VpU5oEENFKF0ZSgtC1B1qPUgQUAUVAEegdBJwwCJJHHnmUFYRfXX45S/kcPOckpgoiBd0JIajYfzHY8rfsxmnHK70JhDiQCkC/cyXBosjtZIjJFUHSP/dzIHvOpIA7M4grg/sexKZZEtMQMeBmF23XYpsxudRUKglNvwX6IaWUKaZAukXR+UZVkKtggsDqBCsjdg7qNWEaUoGqFlIsQcSEwxKhdPOlNBmySgIXmGpr4wJHVKb58ccew/nnn8/KgT2eyAEXXfK8chyCNf7VBZH6uitZ7zxCOooioAgoAorAqoiAE0XSi2HWrFk48MCvcnidqAOmm1HZqNrLt7vp1K7atnOu6Adylu2uyLECZlzzU0IbKv0ViQJYkiBsQIx5ZfNevYu3XRaJvNA/e5IJ7DMqgRAbG+xXUTgqURQ9l+7Tqolt3ESEyBr2hQsX4ic/+Yk0euIOmdTQSmI86DjrmpA1VuIZVsUHTa9JEVAEFAFFYGgh4LS1tSWPPfYYzjrrLE5l5P28J64AaoZUcX2njauR+/ktaeMs5j71KvMIUhvMZp7tvXyQin80+oChJmVjbsfqhCQwIUkZfWoHbWaXeAbba1pW1DlBSBMDWX/lVU2COlxZhztsSYLEM0ipZHoREfjyl7/MAYq2ymLF3SLxC1xMyfxTkjC0vji6WkVAEVAEVnUEnCAIOIuBYhCoJwATBNP2WOT4lKEuo5EmCJ3Y1Spza2lEmRmYX6Tno1ErytqFMfDi1aBSToZ82M4OtEJpN82ZDaxSWBVB3Anyskaf3An0XvpaqlWDyrFm0hQBWfEjsKLWzungQqsM2EBEGs3GYtgGTGklQmMNVvWvnF6fIqAIKAJDAwEnSZKEigHdeCMVSprbIfe+knLXwcT3+MqqDWrFGKYNtAQsVl72MxukaI2/XVP17r+iLJTXT6qE5ERWjZ2+lPQ46bk+myBwg6YkKRt+IT0Sp2HJQrobo615YK8/XXlRCUKPHy89URFQBBQBRaAXEeAYhPvvvx+33HKLURDMHrof0uoobVBexpXB3gprnC1JqCYAliBUshr4HZOl0LGYkBk/NmOt0O5XuxC6FpdgsxXScQfpOgaWHNj30iQhHdiYJgpaDKkXn24dShFQBBQBRaDHCLCCIO2eb2IFofpVHVnf45nMict5+tMBiamgxbSKkIpaqJq+k4DJDqIAxVHYN1KEwwRI2p2+oUSdXJo9WbIolsPGXpMJMLRKgp2JajZYg99ZBoRVGaozIj4vxnq+IqAIKAKKgCLweRFggkAKwoIFC5ggpHez1oD2ZoR9B4KQqpvAKgBPWG3Q01Qh7W5Y/rhOwSjPkVIF+NfOghKrR+jokuhMZ6g2/J25DdLuh2oXQnXlxM97Q7t7foUCyZn8dzmjwhAsqg2RqqZJn1O66nB8USiuhOXKT1LByiTQAigHaHGr4fiA6DUrAqsQAiskCKvQNeqlrAQBUjnE2FViJsj4i/23qa6OlLimt1yXa1XYEtjdA3fF2SArH6czMtKVsVZMYlZGeiv5OJXzK+8RVqZWBwfKComkWhlSiVPSVaW+p7i+KOi3Qr+6Ft/SPVz1aEVAEVAEeh8BJQi9j+mQGjFNEGzGKlelNOWpuJqloRBkGkPqR+FJ74uB1RDISPfNLn1F1INJAgekRqb3iPT0sEhEVHzLoSJdSRVBqFT8tIW/htRDootVBBSBYYmAEoRhedsrF00EgXa81B+CelDQzjcKqfKlzz+pZLTrefC5DbU0yyIDyirDZ2K3ssiNzzy5zw6oVg+qs2usq2v5K5Q+ITYmRnp40DKt0wEoBQHXvaCOqPxu2l1TqQA24PSqz8DVgRUBRWCVQUAJwipzK7tyIcsbbHYdmKZYZBA//vhjjBrRyK2zs9RIiuV06ptB23UXjpeRSpGmD0dFOu9sfjMfp5emM1S6stbKMek4DRvYmf4pRy5PV2xZ7uq4murZO6tnIefYHiC8eP4XxVIFk17t7QXu1ZHJZKVCZhxxszCqmMk9QFzP1BShLB0TmNBhrZ9NsbqHlB6tCCgCikDvIaAEofewHOQjdZYuauIKEoerQAbcybMGTz75OHf0DIpFhMUCsvk8qwhEEKQapN/Jta5YmO94cE+MoiUa6djStF/fEoSqQFTpVy4duNKvdHBsZ8GWtrFX+jMzFkdsmCBNTtMl0uQ4aGltw5ZbbsVkK5fNSc8R035cyIwlGXYhA++kGeQPrC5PEVAEBhgBJQgDfAP6Z/oKOegoeTuIrO3lNpYSfDdyRAP23mtPuIkDnxpqxfQRyetsD6WCZfnVlWDBz3eVaeMqWRZW5LdtvAxBkMKaZTVBAgY74Qc0hAkm5Eqc6avhGAMZozNeIZ1AgUw2g5DBE2XgnYXv4m8PPGAqkbrsYjApIUY9qJQDr8Qh9IQsfT4s9WxFQBFQBLqKgBKEriI1pI9bEUHgElVs1LjZFBvfGGPHjMZrr76Mxvo6lIpFeNwvQnbEXOSa3QudEYMql0LHbXs5qFBICg+EmNuA286gNujQBiCaATgTAKZbqPQJsdkDtAwiL/QSt4fNHqi8L+3K+eLKHUmri1jZY6IoLKdw2i6efCbHXoiRpzX7mQwiYkyuh2IhwIH/eRAefPgh7uJJ52V9ccV0VA/SSaWqIAzpr5QuXhEYBggoQRgGN7nSl6I6aI66WkibbTHaCdpaWrDmGmvgg/ffQRKFCIMSG3ArmXOqozXwnWJXTRxss62K1E+7d5qU3BYUBGmDHtPtw23nS97LO6aRF6UPmm09x0XQuYmQC6YFHDhpiAyrITInZ2qIhTfEIjFkQwpg8RrKx4iKUlWUw3weg/5nFQZRVDyMGj0WX9xxF8z/n5sRhjHWXHMtjB41Stqacyt06QUiqZJ0LZbIqIIwLL5+epGKwBBFQAnCEL1x3V+2GKd0wJ8YUDFWEac2xoijEKtPnIB33nodSRRwkKJnttecvkdGvRwSkCYDK4tBkM+43gL75k2xId6AiyJAhlRsvAQGyjEcIsk1Fzh7gGoNmFgAOj62/hEuWETGPwalZZIBJvcCj8m1CazBN7/zREAURqI8pNbAmQtmLdIQzCoPQhyIzhAxCMMI2VwNWtva0dg4EntPn4mLL/sVE5LJk6dibNNYVjQ4WNF2RzWqiw2AHOhE0e4/Q3qGIqAIDCcElCAMp7td3v1WLjph428NMFMFjB3dhHfefAWumyBD8n8c8W6YDGm6AVWl99VnBShagkBuAnEpiGH2UCwWUVNbi2KhgEwuhzgIEYYBS/iy609QKhWRz+V4bjK4tjKlJRJEAGhc+puUBzqNDDhnG7AbQ4gAveh8S0QotZPOpVbdtp8Gz1nuEWJcC6wuxKJEGEcD1T8IQolBaBwxCv+x0x6Y8+vZrA9MnjQF48aNRxhEPLYlNdYtU3FdqIIwrL5+erGKwBBDQAnCELthn3e5HVP6Eo73szt64gpRVMLY0eOw6N3X4DoRQMpCHPMumF7kYy+XWU671Fe4sI7kgVUAUiWyWRRaW9mABkHIQX8U75Cvr0cSBFyXgY0rGfCaGkSlknFzVFQIey32pzXyYUgkw8RUmI6arAOQUmEIQiabTcUyWNcDVXoQEiIvUiFEdeF/xp6HxrVBPMLP5JGvqcVOu07DFfNms4thk002xfixE/hc6ypJpzlWFITPezf1fEVAEVAE+g4BJQh9h+2gHLk6559Ec05g4IA6yQoY1zQGb73xb/hOzFkMsLt2kv5Z8qdUhu5dnhQotqclnFbJhtJxkCXlIIoQkGEPAg6KJAWBYwoo7sD30bpkGeobG5CQ8TYljStqgLgmyCBTkCFdI1V7JCkhHYyYVg9KRDg4+FJSN9OuF0pVNPyg/JklCHwsXb/josQqhY+6+kbstOuemHOlVRCmoml0U7nKYsfMERvk2T389GhFQBFQBPobASUI/Y34AM+XJggimEtGAfvvHTKoEcaPHYeFb70CFxF58+Fw0J40JaIdfbmAUJdIQiVan7pu2/LIVJY442fKSkEQlLjeArktyAVBBpwkfc/zEYdROWsgw2mWIvcTqaDxOICS4xDE/UC7dlI8iGyQu4IKFkXshoiYONB1kMpg4x7K+YxGKZCwSWEzQh4khkF6LRClIgg8xIkDx/ORr6nDLrvviSvmXMGZDVOnbIpxY8d3CHTsqCCIGqMvRUARUAQGMwJKEAbz3enltVWrB4lTiayXDo1kBSnNcSzeeesVeK6QAza/HDTYFZ+C9asTG5CsApsRYOejHXhAxjwCcvk8wkIBru8yKchmsygWisjmxAVAcQrkXuCCRBR+yPELtIsXopKEFETpIiSqw5UM02oIEHHcgCwhCkO+BiYcvpAGIQOmqFEkAZkRLcwsmwiRpFHKtXPwIwdD+gjCGJ6fRU1dA3beZRrmzJvNBGHKlE0wdhwRBFONsUPJZbmpHD+hBZd7+QnX4RQBRaA3EVCC0JtoDvKxOqgHbAB5321S78BdGokQMEF4+1W4DqkKQhLIUFa3qu78cq1i4MBJJEPCYUMpaZQs3/sZlunp1ziUSgxSeCgQlwDVECgWuXMk7e4pFoHiFcjtEJSKyJKMQB4EOrEkJCTk1MsIniNBjZ5PO/tatDQ3o81Ug6ypyaPY1o6wWITv0e7fQ5hEppelC5clDiIEREAMOkatEJJkFQWay0MQJXD9HGrJxbDzlzBnriEIU4kgTKiYf5uGaQArl362fw/y50aXpwgoAsMTASUIw+i+d1AQTG+AGKG4D8jfL0UBMHZME95561V4LqkGEb8nLoiuRN1XCEJZQWCSIPUMqNhQEEXI5Gvx0IMP49hjjkd7ewmrrTERF110ITbbZBPc8+d78Lvf3oGfnf8LNIwcySTmpRdexBHf+Q4e+Nu9HBfhkIH3PXjIolAIECchG33PiTlAkYhFzs/irbffxr9ffw0jxozCuuuug9psFqW2NuR8H27GQ2uxnV0SxJM86sRoMhaWIwgm3VFcDjS8JQhZ1NY1YKddpmHu3Cu42+WUFEGwqZq2HUUaw67oMcPo8dRLVQQUgUGGgBKEQXZD+ms5lcRDW7zHlguM0TRqDCsIZGxJRRB53dQpMAtccfhBR4LAcrotgBxHlCZAQQPcu2DffWfihBP+CwcccCD+/Je/4OJLLsEt82/EM08+hV+cfzF+s2A+/FyOlQPfd9HSsgyjR9QjKrWjrb0NfrYGSz5tw+jRTUASkhyBsFTg40ulEFnXx6OP/h0/Of9nOPenP8GkqZPghhFG1tTwcYVSAW6OgiGJHLgoFQOugMiBjsbFQGoCd7w0FyxxDtUEoRE77rwH5s0jggBM3WRTjKUYhFQR586olRKE/nradR5FQBHoCQJKEHqC2ipwTkeCUC5QzGmNY0ePwdukIDikLBAxsG6IjrSgSySBzKQ5kMIHuKZCEuF3d96JK2bPw62/vQsjx0zA4g8/wmGH/T98+9BD0DRyFE45+UeYuvmWeObFl3Hs94/Htttujen7TMOT/3wIjXU53HXnXfjNjbdiaXsRM2buhyWHiJYAACAASURBVKO+ewQevv8+XHrJxWhpDzBt2h444ZjjcOkvL8WV112Hvfefgf865USsOXYsQDUXnASZnI/QA4omhVLWKZGUNupgeYJgFQQXAfEdL4va+oaOBGHqphKDsBxB6EgJlCCsAl8kvQRFYBVGQAnCKnxzV3ZpFeMuv5XbH8URmkaNxjtvv1ZWEEyOQDlWwZ678iSGSvaC9HggHYGyASieIcBtt9+GG+ffgdt+dwcSL4fWQoDD/t9h+Or+07H2aqvjv889D1ddfyMee/Z53HTrrTjqqO/iGwcdiH8//xg+WfweLr34V2gavxpGr7UOzjj7XPztz/+L/5l/PXK+i28e/h1cc91v8M2vfZ0LMZ1w6g/w4/N/himbTYFfCpFPYoTtbYAPxBlXqkhSfAEVcTJdGHnJRI2WUxCkvLO4GGK4HsUg1BuCMFsUhDJBqNyBSnupDminsB+mD6JetiKgCAxaBJQgDNpb07cLqzbutlETKQhNozsnCBTEyBH/RhJIU4vKatMjVzIamC7Q+VRoyY3w0ssv4btHnoRLLrsUUzbfGs+99G+ccvIpuOC8c9HyyRL89Cc/w1W/mY9/vfoGrrr2Ohxz7JE45GsH4qVnH8Xid9/EZRdfgZqGUWhcYy34+TxmfGl3zL/matTX1uK7Rx+Nm265HTOm7Ylly5bi1LNm4YyfnIspm01FPgJquNRiCRFiFBBIPYRy2kKloZMQBAqsJBeDzWJIEwTKssihtq4eO+7yJcyjQklKEPr2wdXRFQFFoN8QUILQb1AProkqKoD0POA0RpPON2bkSLy38A3OCuBMBrPzl0BDSgOUgMUVE4TOSALg0vnUU4FMcxLjxvk34dY7/oRs3WiEiLDPPnvj0P/8Cv7x4IM456wfY4vt/gOPPvUvfOVrX8PWW2+Jo79zGJ589K8oNH+Cu+/6A+67/xE0O1lstvVWOOE7R+CB/7sHt9x0M9oDYMJqq+OcM07H4sXv49tHfQ9f/NKu+M6R38VaTeMQNregPpeFl/PxaaEVvk9SgukgaVISKwqCEARbflmCGCUGIaSsB8dDbf1I7LTLbph35VyEUcwKwuimJq6/IJQqpdB01GtUQRhcXwtdjSKgCKQQUIIwTB+HMkGwnZcok4GTGEKMHUMxCK9xHQSKQwAVTKIiQSE1HvKlHwG5ClI+9o4wLu98IDrBdQzYWIYcCFiEj9deeQNOtg7wfay99ppAsRXFlla0tBeoIDMKiYvxq6+J1159BfvuMQ1PPX4vJo5vQusny7DooyVYFgFU3WCbqVOwZPEiLP3kYxQCoH7ESIxqbITnu3jsmacxomk0Vl9zDdS6PvwoRqmtFfnaPNrCoiFIla6QFIjIlRmNeiC8SYI0uT1ETBmY5GIgfpBBvrYBu+62O2bPnUMRmNho40kYN368aYstyHR0Mcg7GoMwTL98etmKwBBBQAnCELlRvb3MCkGQMsNUPtkWQ24aORLvLnyD1QOqpBhFATIZX/oYxNILgRUEWwPpMxcns/EMZHzdmOsdFIshsvk6RPARJDGCoIgaD8hmMvh0yVLUjxyDtijBv199HTOmfwXbf2Fj3P4/8xG2N3PcZORmEGVrsLS5GWuObULQ2szFkNxMHjE8LFu2BLX1taipr0N7qYhlS5ci63qoyeYQFAtcbZHKO9sOkGy0I5u1kaqcWO4+KeqBVG/0uNQyZVLU1Dbiizvtiit/PRfFUoBNN9sMY6ibo0t1qiWYQTJEbeijpQvysyvJo58JsR6gCCgCikAvI6AEoZcBHSrDWYLAbZS5yiA1KJLWyuNGj8X7i95EqdCGmjxVNJTMA6mm6DCZsP0KbAOjz77uikOCaiFQv4WI2jU7PhVzZoKQo5TDUgEeW0wPEVVc5CqHCXzXQxyWgDhAlqolJglo5QGo5DGQoWyLoMRuDBoz5DLIDkpRwGmVMREBLlhkWltz7aYYSZTAobHJ6BMd4mZUUkSqrCCYSpK2LTX1XyCCQM0c2wsBmsZNxM677op5V16JYjHgOghjxo4VEkVqAxOqNEGwCoIShM9+bvQIRUARGCgElCAMFPIDPG8lBkH6LFAEv+c5aG1uxgbrroP33n0HQVCAE9EOW+R1Kk9MlQ/TnZqEIFRJCR22xGl3g5QUlHco5oHKIUpfgsQTdYF6PZLET3UJiCDEZFyJLrCFdRAGJY5joDepBiK5IZiwRCV41IeBIiYiBzGd7xEVoawJwKGMA6rc6CQIkoh/UsCkTwPRsQngJS4TBjpL1plwqWZZYKWhE7ejSBwUghCNI0azm2HHnXfBr351OfxsFhtvPAkTJqzGZZxpbaLQSDXJCnbidFEFYYC/CDq9IqAIrBABJQjD9OEQUyXGkMwU7ZyjIGCyMGnD9fH0U09wcSIqPpTNeEwOygF6JpiRTZ4hCJT6Z8XyjgUXOTJRUCajzsbd5V079VHwqXohd0g0DaNcU1aJggap0yJVW6agSOqBAJ/lfcq0SFxqv0zBg+DPuDcDuUCowyJ8VhdKFGDpu4iDCBmqlBglKLkxSi4Z/ggutZIm1YCGcQCfyAp5UVJZGhJrYXb/hiRQPwbX8dFaKKKufgTgZbDX3vvisssu42ubNHkK10GwbaLpwj3uIaEEYZh+3fSyFYEhiYAShCF52z7/oisEQVwHZMyCYglZ38Paa6yF5597ChnflZ4FtE+nvgUhlTP2TcBeJcSu4jxYWb1AszMnuV+cGXATE7RoejVweSIupkSdIz3OluCWz9xVks7zyP5LwyWHKhxG8MiVQAoIkQHq40AxEjH3oERARIDWnjjIUN+EKEHoA+0ImXgQQfDpPSIophw0J2xUKAGvgUtUl1tCSxwCBWuSG4OaNWVytdhjz71wxewruEbCxpMmo2nsOG7sxLyIWlari+HzP7Q6giKgCPQrAkoQ+hXugZ9M+jGYPTE3T6qYdxL7g2IRq0+YgMXvv4tie5uYZdrVU1R/TESBJHN7HcvH5ncMueuYzcCtpVl1MJ0MWVwQ/7xVI3h9Jp2Sz6bPbAaByYHgfgaUVZHEcM3x3IaZ3CFGDiASQmoB/emTi4LmiRMmDQGRCwqaJLcKpzeSAmGyChgeeU/yEyUGgv0URESoXDSN52XQ3NqOhpGjkK+tw7bb74C58+bC9XxsuOHGGDd+QploSDupilOnLKdoeOLAfyF0BYqAIqAuBn0GBAEhCCZlT8ofsJ+eLCn574vt7VhrjdXZZ07BgjY9kfzukv/Pm+k+Db23BMS6Kjj9koMPl5+XvAGyOzfdKM0hdHhg4h0ocJGuhd4Ly24RGc6VcAZxM7hyDEdFiHjBf1hOJXUgzJPkgBszUZtqil9YZ731cNElF3N76o03FgWh8rLRBmnC1MnF6EOqCCgCisAgQkAVhEF0M/pjKdUEgasEsoxPKX4Uwe9wL4TFi95Bob2V3Qwc1W+OI+mfpfMudXbs+hXJcGa3njqN1QK7ozfvl90jtA6zLil0RO4F+UmugZjdGQk8k0lA50WOBB5GdK00I1l3LqdcIQh2DJ7aroniIEgTMAGdFEPhZXJoLwUYNboJO3xxR8yZN5cJxtSpm2D0mLFKELp++/VIRUARGIQIKEEYhDelL5e0vIIglRF9LjdMFYhLGN80lusgUDBghnMObQR/avtcFtC7sVobrNidU1j2MC4IdgUYJcSoIRTgaLtFspU3ZIJdDiYd0rOJCJS4QHqJVSOIUDBBkKgDIg/8MrED7How5ZZJNhGCQAoK9WDwUQpjjkGoqTd1EK6ci8i0e24aJwqCrE0VhG7ccj1UEVAEBgkCShAGyY3or2V0JAgSV0AqAqUVuhRrwN0cR5lKiqSwS4Mls5E3jYqM1e7OostBet05SY6VU23chKlmaHbztgiReE4MkeHKyJIZQdfGtREMoSD1QMIMWBsQMsD/x8mN5rhK1UQ6v1xJ0cQ78LkcREnFonzUNRBB2A3z5s1htwMpCGPHTZCxTAVJW4SqcvXqYuj+k6BnKAKKQH8ioAShP9EeBHMtRxBM8SCygkQQkqCEcU1NWPjOG0wOKIOAFASbxi+dDG0P545BiF27vO6dU64UYIIGy6F+xnDL9RhTbNwLoggI8REiYA2/EAP+zKgEtjRiOoQw4aBIcndQxUchFGzg2RthejG4Lkphwm6GXG0ddtl1D8ydO5czIqSbIykIrDmwiqAEoWtPhx6lCCgCgwcBJQiD5170y0qqCYLULzCpeGQ8qRfD6NFY+PbrcF1qfyw+eqqk6DhS1Mga5O4vuHvkgNeVntHs/ssrsKqC/WkUBFYIKJLSZCCUSYQhDPZvqyRUSIYoFaQ+2KyNjgSB8CGhgoITfQRUhdHxUdvYiB13om6Oc0CVmqdusgmXWk7jpQSh+0+LnqEIKAIDi4AShIHFv99n71RBoDx9u8uNIowZNQoL33kNHvViIH2ed9QSzNjBmPbD6jt4JozLIE0Q0uuRwkREZgyFiYzLwVZvtMGOHHZg0xutu8FmeJj3bWMm2+7ZkBWqOMm9GDzqxZDA8bKora/HjjsLQZB2z+RiGN8BHSUI/fCw6BSKgCLQqwgoQehVOAf/YJ9NEEKMGTW6QhCoQqGpADg0CELFrSDGPBXYaDotsShiOzWaDA2+czY4kXMfRL/gYEfjppCKkzSmwwShGFKwYha1dQ3YcZfdlSAM/sdfV6gIKALdQEAJQjfAWhUO7R5BoJLCRBAGTkFIuxmsS2DlCkLnBMGEOEo3yhRBoBLL5TiFMkGwtRTFnSAEQWIZygTB9VCk/g5KEFaFr4VegyKgCHSCgBKEYfZYdJ0gvC4uhkFAENK3aHmXQiWuoew2MDt+qyBQuiO9bJ2EMkEwmQuWDnAVRpPRYEdVgjDMviB6uYqAIlBGQAnCMHsYuk8QOH+wkxiE7gccfh6oy7NV6jynmiFVCIAlCVx9IOJejtyIic83hZTSBCFKKQjcx4ErS6YVhM5cDBKDUAwToyDUY8ddNAbh89xfPVcRUAQGHwJKEAbfPenTFXWbIHChgRRB4AxAqWXYXy+eyRZIIiNuJrZkoNrlwEoBx1aKcbcllC1B4LhLrraYIOJSyjJmmSCk4haWj0Gg9k+A6/qVGAQOUtxDYxD664HQeRQBRaBfEFCC0C8wD55JVk4QKIcvwpiRFKRoXAy2RTF1S+yQxdB/BIE3/ylSYPnCSgmCVRC406NpS20UhA4EgdUFIRRMEKRuZHk+IgjWrSExCJYg2CDFHGcx7LTzHpirWQyD50HXlSgCisDnRkAJwueGcGgNsDxBkE6NrnQdAOIQY0aOMVkM1JQ5rSDYVMCBu+ZuxSCk6iKIh0HKKnOcgSmY1CHwMVVXoRKDUE0QKmmOksWQQ21dPXba5UtKEAbusdCZFQFFoA8QUILQB6AO5iF7ThCqFYSBucquEgRaXXr3bwlCuUhSqgFU+r0ykTCXt7yCkCYIEoNQV9eAnXbeHXOu1DoIA/NU6KyKgCLQFwgoQegLVAfxmEoQTMKjEoRB/JTq0hQBRWAwIKAEYTDchX5cgxIEJQj9+LjpVIqAIjCEEVCCMIRvXk+WrgRBCUJPnhs9RxFQBIYfAkoQhtk9V4KgBGGYPfJ6uYqAItBDBJQg9BC4oXqaEgQlCEP12dV1KwKKQP8ioAShf/Ee8NmqCQIlMtIrnebYNGoM3nmbujlS6iNlL0g1xYFo1lQNmGYxDPgjpAtQBBSBYYKAEoRhcqPtZSpBUAVhmD3yermKgCLQQwSUIPQQuKF6WlcIwtjRoiCIqiDdHElFUAXBdnPs2ItB6yAM1W+DrlsRUARWhoAShGH2fChBUAVhmD3yermKgCLQQwSUIPQQuKF6WncIAqkHLpUf5j4MqiBILwatpDhUn31dtyKgCHQPASUI3cNryB/dXYLgJJYcKEFQgjDkH3+9AEVAEegGAkoQugHWqnCoEAQjs3Mnw3QWA3VzDDF2dBM3ayJywPEHHIOAYReDYLtFduzmSL0eAcf1EITSi6E21YshihNMnbopmsaNr3pcCEf7sr9V3lkVni29BkVAEVi1EFCCsGrdz8+8mnSTZmpqTGGIZKaokyMTgjjEuDFNePutVyTN0ZFuhhWCYKfoSbvnFZ3TmaHs3Hh2IDjclZFIDL0S6dDY4Z/5JN2lcSU9GHiU1Pmd/U3dIGPCw/URBgk8SxB22R2z581BlBBB2ARjx02otIy2LbMN2q5BnOM/6SUcTV+KgCKgCAwqBJQgDKrb0feLqSYIRA3oVSYISYRxnMXwClxWDixBkLbQYms/DzmoPndFu+kUQUjs3EIAeMnctdn8bQwwkQUx8GLo4ziSKzMERwx+RxJQXVchTQqEdFSTBnmPCEIUCkGoqbXtnucyQZjMBGGcQZU0GKvaCB1zLSMggiDsTF+KgCKgCAw6BJQgDLpb0rcLEmNFNkmsUtngkxFNInYnkILQkSBIkSTHccVAy5k9JAqdXd9nSO4JbbHtei0pMKuw6gCZYasO0E/enhNJkJ/2OisKQcXwd/zcrq9yTpo0WMLABCFK4JOCUNuAHXf+EmbPFYIwxRAERoqkF6EyZbyEIJB/x2DJx+hLEVAEFIHBhYAShMF1P/p0NbzDFnaQIgjGUJFUn0Rwkxhjm8ZiISkInL1AhtcSBKsg9DZBMIvq9OrNFjtZniBYYy0GPEUQhBpw/ETFBSGEgF5CGpZ3J1Teq3xeISYyvj0G8BBGCTKZHOqYIOyBOXPnIUqAyVOmomnsOHHguKTNpAkCRX1YwmOwV4LQp8+9Dq4IKAI9Q0AJQs9wG4Jn0Y44Zrmb1AB5OXASUQUcNpoSkDjWKAhemSD0VgxCT2Gr6PBllcAYeDtiElNsQMWIiyqQNvTV7gJJVxRiYQmPJRHpWgkyg8ybJhYOE4RsNo/6+kbsuOM0zJ5DMQgOJk+dirFMEADHSxMEOb8DQegpJHqeIqAIKAJ9jIAShD4GeHAMX3ELWBeDuAiIIHgidcdCDsAKgrgYKkGKaQWhJ/EHPUWh2o0h8QSykzeBCGZoiTmwUX8VtSAdQ0Cf2/NtVcjlCYfMaWMZKuSgEu/AcyUOwjBGLleDOiYIX8IVV8xGFDuYsslUjB03Ho7rcgBiRUFQgtDTJ0HPUwQUgf5HQAlC/2M+ADMao2c84WZPXKUgUAAdEYUITU2U5vgqXM5ioG12/6Q5GsqSim2oBPeVlYIUP6ne+UeRxBuIHkBRFg5nHFhffzn+QKw+f0bKQzpQUT4iGkXnye6/Q0CkIShEp6IwRiabR119A3baaXfMnjOPeBYmGQXByAUVgkAKhKMKwgB8AXRKRUAR6AECShB6ANrQO6WyKy4HKVovQ2xy7GJxIzBBGDMG7y58A0Ak/RhoF5wkcDsEKfYksG7l6gPt8F3adZvOkfQ3rUmIQ0U5qGRTyO7cJlWEYSjkwCgMtuQDX31V+qI9Lq0qEGmw9ELucSXuwRIHcWPIZ2EUI5vJIpevwy67UgzCXK6PMGnSZDSNHSvHlVMYTUXKctqCpi8Mve+RrlgRGF4IKEEYFvfb+tRj2hSn0v4cIE5F07MlJRfDaLz91hvwXDKDMVxP4hTImHqej4QMtwka7BZ83Da6c5LAJMBxeA4ynTyndQnQ364rn9mfaeNdTnsUZYBjKlwXCUUMlsMxDUlIxROUMznS8gRBwgGOokAwRSBhxfxCqZNxTOmNPoIghOtlkMlkscMOO2LOvLnMCCZPnsxpjnQcEQSXAhVtyWolCN16ZPRgRUARGDgElCAMHPb9PLN1M1SZaC4rYNSAJEHzp81YbeIEfO1rX0XG9+A6EENIKgLp544vLoeehCKsRHSwwxEpCWOK9OdUC5OqSHUHRFkghuN6RCQk6DCbzaBYLPE6bdEnqwNYEpOe1sYjCiExU1Sty9RK7FCiwPIhcknwy3VRX1+P5uZWXtujjz6KX152KTJ+hgslNTWNk7oRaVJEQZ9KEPr5udfpFAFFoKcIKEHoKXJD9LxKuGJqN58AURiVffGP/eMfbDw//vgjvPfuQpHnWe6nXbxxRVhL220cqpmFKdREfgwuYUyGWxSLUrGIXD6PmnwtgiBCa2sLPv74E9x771/wjW98A3X1dSgWC2hrbcOoUaPQ1t5uVA4XUUQ1HToGMna61E5Ji11jtRtAMhnE8Duoydfg009b4PsZ+Bkf222/HZqbm1lBGD2midfi+34nNSPUvdDtx0ZPUAQUgX5HQAlCv0M+sBN2NM+SGki1/chkkQ9/6dKlaGhoZJVg6dJP8Nqrr1Yi+lMVDbuful+hJh0REAst8QYur8GmYeZyOf67WAxoORgzZgyeeOIJ/OGPd+Okk05kY7z66qvh/UXvI1+Th+t67IpIV06UuWzRI1O3iKgDV4XsTAZJu0GsIbdEQ+IxOG4B4HXlsnnkcnkUCgW0tDcjDAJst932GD9+QmotlfO1dOLAPv86uyKgCHQdASUIXcdqlThyeZMo0fzFQhGZTEZ2vEkCyghYsuQTPPfcv+AZw0v5++J/d5lYdO+1cp8EkRR6eZ6HhoYGfPzxx8jn88hmc2x8SRFobW3Faaf/CEd+73t48cUXceihh6JYLCKbzbKfn44j9wIFU0YU8MgspnO/RufkQAiEdVFItcPUVXJGRwLHxGRQYyZaX2trG+rqagE3QT6Xw7rrrIuGhhFlomMJi6gPlaqQ3cNPj1YEFAFFoH8RUILQv3gP+GwSLFcxmhR0J5kDQKkUsCxPu3bavUdRyISBTvFY9jfLt777HvVk6BwCG/Efh1KrIAhKHPxXLJWkT4Tj4M9/vge///2d2GXXXfH2W2/itNNnYdnSZWgc0cjnkMzPe3V7jen4iq4ib6MS+fhqglAhDzKFg1JJ1knr9TOeOcthNYNIDREe1jBMSoWoI7Y/RE8yQbp6IXqcIqAIKAKfDwElCJ8PvyF3tuxmK4bJ/m2zFNraaDdchyAIWFGgnxSxzyTClBSgIMGeNWxaMVzpddixiaBw6qPjYsmSJZg6ZQrefOMNPPHE47jvvr/i64ccgo022pgVEFI8Mhny95MLICr3juirGyQuEYfdHI2NjbxOmpewsvjan1atSOPeV+vScRUBRUAR6C0ElCD0FpJDdJxq40U7Ytr10k+S+EnCd10hCL5PLgbaOfckhWHlAFXWIceVSkXegXN6YxQiX1OD8WPHY+E7b6JYKODii3+JTTbdFHvuvQ8aGkcgoN26K7EUtiQy7eL74kVrtWuzagvhxSqGL1h1RsL6Yi06piKgCCgCfYWAEoS+QnaIjJsmCJVaB54JGqxI4ZXGgxTg1zcXl/bVk5JBsQW+7zEhOP7447DfzBnYa889USi0Y9F772PuvCvx3SOPxKTJU5kgUIohxwiY9Ym/v3dfFi9LEKTLpbhlLDGwAZCqGPQu9jqaIqAI9C8CShD6F+9BN1s6WM8atHRPg0pWQJosdHRT9MZFWcmejDupB7QTp105pS/kchlsuP6G+PfLz3MgIgUkUjrB4YcfgR+dPgtTNtkUnpeRAEDjQkn7/3tjfZ2NkXaLVCsGdLwShL5CXsdVBBSB/kBACUJ/oDyI57AliO1OOL3U9GdSRbEScNcXxk/iHnyEYcA7cqp7QAqC7wE7bL8dHn34IV4DxSa0txdx1NHH44yzzsTUTTcDtWGglEMu5mQqL/YF7NWKC81hsdFYg75AXMdUBBSBgUJACcJAIT+I5rWGLa0mWOXALjNt/PqCHNjAQgpQDMJAyhNzUaYE+82Yict+eQFWW20iEwZSEfI1tawibLPtF3HvvfdixMjRnE3A5Y1N1oAlNAMJtZKGgURf51YEFIHPg4AShM+D3ipwbmcuhmpSYOVy20ypOhOid2AwpaCThOsvjBw1gnfmzz7zDG64/nqccvL3MXr0aHY7EEmQnbuDL+64G558+mmuRUC1B7hwdF8FSZTTFStXnM5U6Mt5ewdjHUURUAQUga4joASh61jpkX2KQKWMMcUPFIrtqK2pwUknnYRp03bDtN134WJOpaBYTsPM19Rh3pXX4pMlS3HqD3+EXLamXCFRjXWf3iwdXBFQBIYBAkoQhsFNHiqXKOmJCZYtW4ZcLstpg7POOB2777Yz9t5rT7Q2N3OMAv0rcX2GDNVNxBprroPFH3wIPxWoyNfch0rCUMFU16kIKAKKQE8RUILQU+T0vF5FoDqLgWIgbr/9Nrz2+mv49uGHYfz4sWhetgye73EHRw5o9LOgjs5PP/MvnPfT83HXnXdxjSXT/mlFVZZ7dd06mCKgCCgCqyoCShBW1Tvba9e1oqJIvV8MQVITqRMjNWgq4qKLLsKFF14ozZGSCL7nIEfkgGsOOCgWIzieg0wmh9VWXwPPPP0sl4qm/0VhCM9UVuw1KHQgRUARUASGEQJKEIbRze7Zpaa7G9oRer9dcaWmQMzkgNwIRBhIKaC+EKQchKUinnnmaVwx+3LMmTOHUx5dL8PZDJ9+2sxdKH3XRxxGcKiaIdVL0JcioAgoAopAjxBQgtAj2IbTSZ21ae4bgkCoEimg0AFKZaypqeGYhNa2duRrcoiCAE8//SRmz56Nq6++inswUNkD6txYW1sPJyk7F6SHg6nbMJzull6rIqAIKAK9hYAShN5CcpUep9rN0Dc7c5tySUWSyM1AvRSkjXMRmWwGSRzhqaeeYoLw619fySSAOyOaNtHUepn+sN0pV+lbohenCCgCikAfI6AEoY8B1uG7joB1M9g+DKQm0HvkSrBuhw8++AC//vVV2HzzzTBz5kwEgbSmJleEKA62tbKWOu468nqkIqAIKALLI6AEQZ+KQYGAzWKgxZCxp7+pHwOpCdR2mv627acXLFiAt956C6eccgofQ+SByAERiUo2RN+oHIMCLF2EIqAIKAL9gIAShH4AWafoGgJEBsjgSxyCI3EErsv/7Hs0kiUIp512Gh9HikNdXV1ZPdAiSV3DW49SBBQBRWBlCChB0OdjUCGQLudsPu54qAAAIABJREFUF2bfs3/Pnz8fb775Jk4//fRy5cTquIO+KQc9qKDSxSgCioAi0KcIKEHoU3h18K4ikO4JYc9JG3nraqD3brzxRrz99tuYNWsWKwvpltSqHnQVcT1OEVAEFIGVI6AEQZ+QQYFAuqNkugGSXRyRACmYlLCL4Z133oF1MVQrDKoeDIpbqotQBBSBIY6AEoQhfgNXleVXG/X035UiSlT3IMbNN9/MLgZSEOhlYxfod22vvKo8EXodioAiMNAIKEEY6Dug83cLASIIN910UweCkFYQVD3oFpx6sCKgCCgCK0RACYI+HEMKASUIQ+p26WIVAUVgCCOgBGEI37zhuHQlCMPxrus1KwKKwEAgoARhIFDXOXuMgBKEHkOnJyoCioAi0C0ElCB0Cy49eKARUIIw0HdA51cEFIHhgoAShOFyp1eR61SCsIrcSL0MRUARGPQIKEEY9LeojxeYxEjgUH4gdTfqUOLY9nC0XQ04W4B6MdO/zl40Bo3Vy20QKqmL4DTHmxbYNMfTeRXpXpO2hgK1gra/L7ccXmfVq8NB8kcnR5lLq3xiYCsPls6ikOwKr/xZut+EFnTq4+dah1cEFIHPjYAShM8N4RAfgAiCsXeOKUZULlRERjKO2dCWDZo1vJ2RhNgM5PYyQwC1dRZykMSJqYPwFmbNOsO8H8H1xBDzMUR5HFeICrV/rl4rLZMvmkiRuX+pJZf5A79X+cD+JiTAjkGHEMGSQ+kzW9DJ83xTCrpSn8FWfZQx3BVyrSH+VOnyFQFFYBVAQAnCKnATP88lJHFkFAFpjsQ75yThpkllQyhvymdRDMcj49tVEpA+rrM9+WetXgw5r41FDhcLqA7CG2+UCyXxZ2Y9bICJKCQJE4O0UacPEiZECTzfNxOvaE1dXGtaZkmYmpTJlBAFcCloYg9Esmhu+pcmCtV9JD4LEf1cEVAEFIH+QEAJQn+gPJjnSGLEMRk2cFfE2tpaFAoFbp9MbZeXfPIRv+/TDt3q6WSQyeitiCOkbCu7L8qv1I6d2cbywHQ6pANEUchGndZ6x+23Y9Gi93H00UchjCImM8uWLcOo0aMRJ6J4yIa+QhDKRGF5waCyjvJBRJSqHSzpy7CSi1EODC5ESogUBGGINdZYA56fQS6XQ6kU8GqoHbUlXqxNGMKg7obB/AXRtSkCwxcBJQjD994btUB2uaVSiY0XlS2mBkj5fB7FYjvOPeds/PXeezFm9BghCLT79Rwj+i8PXlmet5J79SGfISisiCDQvCISuHDchI1tFCXscqD1uJ6PQjEAHDmOiAQdbo0v7eHTjMZ6QdjUp+y9PaqDB8G6IujyzfH006VBEiCiNbgOyMNCbpqXXn4ZV131a2y3/faorWvgtdCLcCWMrXpgScIwfwT18hUBRWCQIqAEYZDemP5aFknuZMCs0WpubkZjYyPCsMS79p+edx42nTwJ++03gwIS4CTGDVHln6+WE9LKAZtHPt74/TvsztOUwCH7bl4pecEhWZ7mFZmeSAwZYiIxRGxo/aUg4L8jOo7JSUIswWgIFcteDj1wXHGhVIUSCGuKZKXGHdAhptG6WgwZoLmjMIKXIZeMg0wmi29/57s4+9yzsdFGGyOby7MSI64Gj9fNrg/jEtHS0P31pOs8ioAi0F0ElCB0F7FV7HgxvLS7FWmejFkmkwGJ9GFYxE9+/N/YfNOpmDl9H/Lsw2EDST5/C4SR2VOuBDHtDpIqOYAdGcwA0vJ9Kkqwgwci7X8gQy6+e5LxaSceJQmy2ayQG8dh41sKScqXF0cDMEEwAYLEF4zBF1eJW1ZESIWw5/BPzuyw58m89mIsXqwWOC6TA1qPl8lw/EFNbR2OOe44fP2QQ7HeeuujccRIrLnmmoxvFMfwMxn4RBTUvbCKfZP0chSBVQ8BJQir3j3t1hVZgxcEsisn6f7TZcvQ0FBPtAHnnXsuE4QZ0/dGEoVwiSQwJzDWvCIPmHlNiqDZYZc7MXLgYASHtX0xuo5DcQ2GTBiFQDIOyHVAKYJMC9iYkprhOtLyOYhCWgWThlwuL26ROOLPxdBXshRoHCIEYRjxGelATKsg2JNs06cgDsvRC3S+pFlKRIMlKfYdioHg310PceygrqEBJ550Ev7jizth2+13QHuhiKmbTOV1ZrI5eIYcGJSESpl1d+vG6cGKgCKgCPQxAkoQ+hjgwT68jeqnQDra3YZRyDtcMrMtzUvxs/POw9Zbbo4DZu4Dhww8Rx9URxdWSQVs5GlX78puPyZiIOSDfrcvMowky4uRlGGTJOLjZF1EEugYMdL0OwVM5siVEIuCsHTJUjSOGAHX91Fsb2fFQDIejApAwY2UbmhSOEUJECWCfiNKYUmMJQ/kpmDRwHgq6A8TfsFjUyAkKyRGeQETGSIxDhoaR+CYY4/HLrvths222BJ+JoutttqK528vFOBT4GI2Z5QNUW16vXDEYH/odH2KgCIwJBBQgjAkblNfLtIG0MVsxNra21BfW4cgKHK8wTlnn40tN5uK/WfsVSYIlBq5fJZjylVg0gxJUvd8jw27GFZRA8gdwLK855ddGyK5UzyEUSjYwItOQEqCleQzuRyK7QWQ4kGZFnS8X1ODliVLOGOAjosjWp8QgVKxxPbXFi0iMkCKA68pJNVB0hB5biYzHCxQDkYkRcPGIsjaXL4OJgWctSAZIEQ1ghAYMXIUjjr6+9jvgP2w5tpro7auHl/YehvjGomZ/HhGCWFaYVIg+/IO69iKgCKgCPQEASUIPUFtFTon5h297PZtmh5J9byTdx2cOWsWNt9kEvafsScTButi6LwMguyq7Y68GIoqQYZXVAGw1E/zkeRepMyJTAalQgmu5yKbz6G1+VPU1OQRhCV4WR+l9naOiaDYiLq6eiSRMc6REA7PdTlQkY6JyNVARp/UCtdFS0sLauobUGhrRSabZdcELSJLcwYBnDiB78n5vu/xOTRPyYxRrsqYcjMwKWDJQzIl6EWKg+NSCqaHmpo6HH3sidhv/xlYd/0N4Gdz2Gbb7VOqicPEhLIZSOWQypMryhddhR40vRRFQBEYcggoQRhyt6x3F2xjEKxkzj85q4FkgAhnnzkLm286GQfM2IdEdDhJuMIFSDiBGDuW4T2PDXy+lmoqhAijGJlMjgP+pBiTGOosZSMUCryLJ3KQOAna2lp4qLJrIggk3iAIRdoPKRUzx+O0t7ahprYWpUIRGc+TYMQ4QbEUIFtfh7hYRBAGvI621lYmCKQiEAEyng2EpQBElqjeA1VltBURWfkwBaTkuoxiwLUZYiY2JRrLzyKKPdTW1uPY407EXnvvhY0mTeL3t9tuh0q1Sg7gkMBKWiMXndKXIqAIKAKDEAElCIPwpvTnksgoSiyAyN22KCEHCSLGWWfMwhabTcZ+0/eGywRB5PuOBZDKQf6mfLEJBnSATDaDYqHANQJ8P4ugFDMxIENLxpiC/Ig45MhN0LwMjQ31TBBKQYFdC8ViAblsno2pFB0q8VhJJOWVycAHpRJyeSns5EQRstkcF3si49zS2oKGhgaOfSDSEoYBn0OEoq25BTEXYPKQz+VRaGtjFYKUDAqKjCMboJhKeZTwTCZCFK9BxZuI5LgeZVS4qKlrwLHHnYR99t0bG2y0MQcmbrPNdpU4A1v6WaQWcYX0emnq/nyCdC5FQBFYVRFQgrCq3tkuXhft2m2gHEvmnKNvfPZIcObpp2PLLaZi5r57wgP57GV3TmmCliSQQbcvk4MgcXdOwsafXhR34Lo+HPgolSK0txUwcsxoxGEgVRIzvhjnXAbNLZ8iW5Nl403Gvq21jWscBKWAjTm5AmiRpWIBnuNxsGKhrZ3TCF2uRZBBS0sr6urq2K1AJITID5GG2rpadie89+57mDh+HIqlApePJpWACAhdVXuxYIos2cBJ6QHBCgK5G9gr4KAUSUpooVRiMhJHHhOEY449ETP2m4511l2fics221RcDDQOrb/iVOj95lZdvPV6mCKgCCgCK0VACcKwf0AqNQlMX0djCBNQLgPFILCCQEGKRBBsoSA+yioJtuaBrWJIu3uHd9dLlizBD35wKp599kUx6kFM2ZMYN3Yibr/tVvg+VUWM0NrajhFN49Cy7FM0jGpEe/unyPhZOI7PpICqOhLhKBWLaGio4zRIVjkcB8X2IscDkDEOw4R9/LlsFqVSG55++hlcdc21+Pn5F8DP5dkwv/XWWzj1h6dg3twr0NjYgDikgMc8Kx2lUpGNfz6X43oPRFI4SNHUiRAXg6R4hrGoDxRLwQQh9lFbKwrCvtP3xfobbiQKwrY7SIaGdGqoNL7iaIZ0Qehh/zAqAIqAIjCIEFCCMIhuxsAsRVL4xG1QKWJEBtdLXJx5xunY3BAEFyHXObJ1EKRNtIskFWQnaYqUDFlpVESBeo/983Fcfc3VOOxbh2NUwwRsvdX2WLLkE5RKLcjUOGxIl3y0DCNGjEJ7sRVwAmQzVOOAExc5aDGbzyKT8dHS/CkcJ0HGp4JOkhWRzebR1tKKKCLF3mX3RFvLMjz77L9w9o9/gQU3zUddfSPHDPzjH4/gawcdjBeef5rHo4DBIJBAxVw2w4GLS5csQRKHJl6B1iJxC6QAWIIQEUHwPBQCSl/MIWKCUI/jjjsJe+87HRtsuBErIEQQBFlxKdgOETZLo9IxYmCeAJ1VEVAEFIHOEFCCMOyfi44EQWL0yY0AePBw5ixLEPZER4IgdQYova8Sj2BLIcoY5F7I5ms4LfGFF17Eb264DgcfdBBy2RE4+KDDMG2PPfG3B/6CbXbYEod+8zCcccY5GNs0DhMnNuGIbx+CCy+4GG++sQijx4zC2eeciRsXzMeGG26IKVM3xQUXXoDvfe9IjjtYsGABrr3qGjzy0MO46IKL8OGHn2CXXb6In5z3U/z9n4/jByf9EJtvviWeevopnHjicfjiF7fDXntOwwMP3I/nnn8Bl152OZYsXYrdvrQrzjjjNCCm+IMQuayPkOILSC2gzAOK0aD+D6YvBMU1EEEoBhLvQIWSamobcNzxFIOwLxOEsoLANKejgqAEYdh/+RQARWBQI6AEYVDfnv5Y3MoIgitpjptNwn4ziCBQoSRxLJh9dDn4zhYrJonBGlDqZtjaQhkG9Xjqqafwm+uvxiGHHIxcphG77T4d9/zfX7D448X4n9tvwv5fPhDn/eQCnH3WGdhh+y/gkot+irAY49yzz8aN8+fjz3/5C7528MGYv+Bm7LjzrvjV5XNw2OGH44Xnn8N+M/fDVw7YH6W2Nrzw/PN49KGH8NBDD+GiSy/Hy6+8iXPPOQ9z58zFSy8+hz//7+9x4IEzcfRRx+Cee/6Ea669AYVShCmbbYp5V83DVVfPxcTxY1CXzyKi0s22zTRdNbkZiPpwd2mptyAuBiEIUeKYLIaTsM90IQikIGxNLoZU+mclrdH2itA0x/540nUORUAR6B4CShC6h9cqePSKCALFIFiCQDEIliBInAH75cto2GRBURBESqeuix4K7UXk87Us9c+54hIcfsRhyPq1mDHzQDz+1L/wyhuv4dbf/g923X0aLrzwElw5Zy7WXmsizjztRDSNHIUTv/8D3P3HP+DO3/8eZ//4v3H8if+F2oYRmLD6Gnhn4Xt46aWXcfedd2L1CRNw129vw/PP/gul9ja88OILuGzeVXj19YU456wf47prrsVLLzyLG2+4Ct894v/hqKOOw+233YL5C27FW+++j42nTkF7WMRh3zoEa685Dq3NS1FLFRuDQNISSSmJEjicoimRA5TlQJkYpVIBbkYIApEhzmJYCUGoNGrSSoqr4BdKL0kRWGUQUIKwytzKnl5I5wSBKxSyi4EUhMnYb+Y0uFxqWYxjuuWSzGzeMUH5lFFAmQ5BKYKfyeHpp57GgvnX4KCvfQUjGkdj5133xb9eeAELFy/CNddfi1132wM///kFWDB/PtZcfRweuO9PuOGa61CTq8ey5qU46BsHY9/9D8Bpp52Bp559ET849WT85oYbkc/X4NJLLmH14PprrsZ999yLNVcfjxdeeA633Hk3Hvn74/jpT36GPb70Jfzr6ScwfZ/dscP2W+OA/Q7B008/jL898Aju/MOf4GZrMHmTyfjPg76MMaNqUGhrRjZDWRdc/ACIKbWD4iSJIEgcQYUgFFlBoE4VQhBOFBfDRp0rCNrJsafPqp6nCCgC/YmAEoT+RHtQzrUCgkC7Y8cShEnYb2YqBoF202Qoy8q4pQvWvSBG1KNui0EM18+ieekyLFr0JiZMbEIUxnj77fex8ZRNUAgDvP/hBxgxsgkffbQEa621FjLUwylqwev/fg2tn7ahpiaL9TfeEPnaOry76H18svRTrLbGGlj8wYfIZnIYO6YJ9fW1WPT221jyySdCZBxgtbXXQ+L5ePH5F5HxPbS1NmOzqZMQFNvx8ouvYMcd/wOLP/wEb72zEKUoQf3IRqyz3pootS9FTT7DgZHcPIoCE4kcxLQwqyBQPIIoCJLFkKEcD+NiOKESg5BLBSmaugdKEAblF0EXpQgoAlUIKEEY9o/Eil0MJKufZWIQZkzfA7mMgyigWghSNlkIQoUc2CZOtgkTVRosFgLU1tahUCygrj6PYnszpydSSmJ7IYCfzXIWRDGgOgS1Mm5MJZGLbJRr6xo5aLCtrZkLI+Xr6rleAv3eyvURajm7ICwVpcdBGHC1Rdr6N4wYhTfeehPrrrsOoijgIkuF1nbU1zZw5gORibq6Wv69EFClxXosXfoxPC9AnATIktGnLpFUMoqrMxExck0MAhEEClKkUs0BPHYxJEwQjjnmBO7FsMaaa3HmxFZbb1PWWDiLwWR92JLUw/4RVAAUAUVgUCKgBGFQ3pb+WpRJviPJ3KQ52iwGbm6UeDj7zDO5DsL++01DHBS5yA+XCLYNjdIEgXIgmTWIgsDFkRyP1fn21lbkaFdeKiBLEoHjoK21HbWNjSgV2pGpIcNPJZbbMXLkCLQXWrgOQsuyFtTW1qK1rRmjx4xBW0sL7+zr6+uxbBlVXmxk400pj5RxQD0RqBEUMQ0y7pmMi6WfLuECTK6Xge9QNcYYBSrUNHIUPvnofWQoW4FLN9dxdcRsDggoddGj/gpSTZHmIOITRUQSpEWzbQ9NxIMVhCRBfX0DjjvuBOy9z97YcKNJcP0MttmOCiWJW0YJQn892zqPIqAIfF4ElCB8XgSH9PmWIIjBk8yEqjTHM2Zhy82nYN+9d2PpnzkA6+0SjMiqQaqSokQoSMlmMqzc4pkMNr24AmHCBYxq6+sQFEQloA11sRRyYyMy0oVSgY/zXGpoJOdns9TUqZ2rJlLlxSgoIVtTw2PQe5RKKamGRF48rmuAhAoZ0RAxkwUiLaUCkMvWI+vXYMknH6GhkYonSSXFtlYq7+zBz0ACDz3T1ZErKBJB8Hi9MRMqam4li+e+Dh6Vj3aYIBx19PGYPn0fLpRE17Ttdtunmli5qiAM6e+MLl4RGD4IKEEYPve6kyslA087ZDF41QSBpHWupEjNmvbfB4gDOFxJ0fYjsO4FKadslQOqjcBZDJztIMaXChdx3AKXXSYXQsgFjUhxkArP1GSJVuNwFcY4ps99JDE1M6L1UQZBqnajQ7t6mZekfpd3+7Quj0sukyV3nBhhVIDj2eJG1LuB0hddIKKOj0AUU1vriBs18RpMo6owCuB4lVbPUkDS5XbQ5SBFQ5CEPPigqtINjSNw9DHHYe999sH662/AcRNf2HprJhJWeVAXw7D+0unFKwJDBgElCEPmVvXFQldEECTXnyopnnXmLGy2yWTMnLEXfJYPTAMj8SSkYhCEIJB6wETAVFyMTWVF6Rrp8zFx3M47eycxvn3amfNgLjcuImPtOmTkaTyfPyM1gqgCFS0SYy5dEfl/0j3JliyQOAZWQoickKGX/glkyKkls5P4cGLHkJ0ICdV+NqmZ0qBJlAEaw7oYaExux2AMPV0jz2LXAurqGHOp5eOOPwHTZ8zAekQQavLYepttzXniylGC0BfPso6pCCgCvY2AEoTeRnRIjbcSgkAli+HhrDNOx5abbYLp06cxQaAAQ07x40C7SoAilwtO2ISX1QRp+kQBhfITyHCMQJy0w3EoToBqJZBKQB0Nzc6fFQbKYihxcCDFMNDOPkopETyzsADjxqAYgoCNMKsR1A46JrcCtVMmckEtoqXvAWdXwJPsCu5eSY2cZH08plAFzl4QF4JkZpjmi0yc7Nxk6LnRlEfuBqAURKitq8cxx34f02dMx4bUzTGXxdYUpMjEQgnCkPp66GIVgWGOgBKEYf0ArJgg0Kaa1ICzzjgDV105BzX5HDdv8lzaNafrIIhRFYJgHA2yued/pBSII0ACGEmGd72EDSrFNESRqA10DPVwMF2NOKTPZassc0XcLjrh41m8YKNeUQ/IkNN7RliQMYmDVJYl65TWDqCpLJmQD4QEWN7DtR5ItSByQ2OZWAkbbsFdmslFEREmsv4wBDK5DJYuXYKLLrmEFYSa2hp8gRQEJjVKEIb1100vXhEYYggoQRhiN6x3lysEQfoXk2uAfOmiClDPAdprUy8GymKYMd1UUjQkoNJ/wa7IFkWwPxMkDkn79M+elAUS8i0EZE4NqSDakTHZD2SFS6wuUKwDzU/HdyjKlDL4vLNPdZe0f7OpJ/cFKxpCOmw8BLkTaOz0ufYK5DyTb2DGFXcAHV/JZrDuCPqIAijlGBfFUoD6hhE48qjjMGPGflhnvfW4kNPW2wlBkFgKwcdmQPTu/dTRFAFFQBHoPQSUIPQelkNwpM8iCKQgUBbDVMw0pZZdCTwwNRDS2/MKMZDPiSAYkiB7cyDJwkkoFYJ8/uRyIBJAaQY+VyjkPtBuiX+KIlEhCOlMCesIMDZcci+M0U/HDCSx1GvglUlJRHYpgOIbuCGVGH2rdtgxqKU1z2ECMuVXo4PEkbgezMc2Q4PdIDGYIBx9zImYMXMm1lt/Q+RrarH1tlIHgZehBGEIfk90yYrA8ERACcLwvO/mqldMEKJI+g+wgkAEYfo0adZkxIByqIGpe9ARRiEHItub/1FwHqkHZYIgZZs5boEIAltPFuqZQIiQQQoABTCK98J2lS7HBIiZ5v9Pxl2MtqnmyIGSpqiRIQgUh8CkgDM37D8Ty2CGEioj7gVRDszsPK4lBvanmZviMqj+QuKgrq4RRx1NMQgzse56G4iCsO22Nu+D4x54vZzZYeM1hvVDqBevCCgCgxQBJQiD9Mb0z7K6piBssdkUzJxBBCE2BIEIQHlPbOWEypKNm8L69eUnEQQiAxQoIBkGsq2n99PdDLmmsdm926BHY6hTIoUx3+U5rXugYtgpyMDhoEJLIiwxYBeKzcYQqUCyKEzQo+VAZTdEQjUUTHBimTTYv8XYM0GIHdTWNeCYY07EvjNmYv0NNkQul1eC0D8Ps86iCCgCvYyAEoReBnRoDfcZCkLi4MwzZmGLzadg5vQ94TmGILDrQK5UVIC0gU+nP1ZMM4c5lNUGa4JTY3QArqwZmMyDipG3h/ERJs2R37PG3cYl8BQpgmCzEVgRsK4FG+Qoo6azGEQ4sLEHFcWgrFBwBkPEKkAQhPAzVJZZmjUdc+yJ2Hf6DKy/gTRr2ma77VRBGFpfDF2tIqAIcOx2kiT3338/FixYgLlz55Z9pIrOcEDgMxQEx8NZ7GKYzATBpcBCUeQ5+NCUU+wGUJYYlIsomHNtoSX6My27V4iC9d2XCUIqQDFNGsSoW+m/8rt1F1g3Acci2DADE1dhx7EFmCwZkL8r7gSmHkQQwgieT+2eS9yxMojAdRCOPZbaPVOa4yQmCBSkaNekLoZuPC56qCKgCAwoAkoQBhT+gZ68qy4GKpRUIQhsWMvBCFXqwUouiUoai1WmzAV7nqk1YAMZOXPByhPiipDExo6vSm2CihpRIQammFNKFRAysPz7lSDFSgxDeiYJeqQ18AhcX4HTH13XlFj2UCwWkcnkESUe8jV1OPa4k7DPvkIQMpmsKggD/Zjr/IqAItAjBJQg9Ai2VeWklRGEmEshnznrDGy+2WTslyYI5T4MFoeukYSOBMEqBUQQzG6e1IMq8iAFlTohCLYThE1lSJGBagXArrJDWmQ6RdJwjLKLwQQj0nk8Fv9dURAoIFKKJFE3R6Mg+DmExsVACsJ0k8WwohgESSntGm6rytOm16EIKAJDCwElCEPrfvXyantGELimQNmrTkvqmqEjgiBxCKQSGILgREiWIwj0mVkbZzR0RhDMGjolCJUMBGv0RUFI1U2wtRBEGDCxDva8istDCIJpNmUqNFrjLgTBFxeDn1WC0MtPpw6nCCgCA4uAEoSBxX+AZ+8BQbBpgB0IQtcug2sicl0CQxA4u0GyFkwdQ6MgpAmCxDqkKzWKTbfljzt3MQghiMvpj8sThFRQIpMMSW2kNdo4BasgyN8VBaFCEGKjIATcSZKyGChIURWErj0PepQioAgMbgSUIAzu+9PHq+sKQZiVcjFI7QJTm7DbFEGKJtv6BpWcRQl4FCPNQYodYhDs+x2hEOHAZiF0jB+gEsyVoMSOBKLiRqj0WDDdnsyPdGCjuBgqhEE6SEojKnIxCEEoGgVBCUIfP646vCKgCPQrAkoQ+hXuwTZZTwgCVzSQjo2S49iNi7LHdpapYIlAOsPBZjHQFB3dDGlDbxeQDlIUItLR2K/YxVBFMFJuC1uZcUUKgmuzGDxVELrxIOihioAiMAQQUIIwBG5S3y2xZwSByi3HZpffGUmopgxp097xM9vRIf1udbxBpaBSGoeKgtC5i4FVjjRBMM2jqhUE4RGm6mO5GmOF9lQIgsxu/yYFIaQYBCUIffd46siKgCIwoAgoQRhQ+Ad6crND5817ulkTdUKkLAYHZ86yLoa9pA4CdVnsLYJAHRhXKkCsmDj0iCAQGWD3w/IBi7atsxEeyrrIygiCzWJQF8NAP8c6vyKgCPSCaqbyAAAgAElEQVQFAkoQ+gLVITWm+PFpRyzBd7J48q8zQThjFjbfdDL2n7G3IQjSSCkt/vfd5a6MIHR0C5SVAJuaaCx917IYuuJiWF5BSKc5apBi3z0FOrIioAgMDAJKEAYG90E1q43KT+fmcxnhTglCbFondy/6oLcvuCsxCB1cDCtIc0wTi87G7IqCUElz1CyG3r7POp4ioAgMHAL/n73rgJOrqt7f9O2bTQ8JECCQRkdEICF0FYQkFCmhCag0Kf4VFemQRpGmlJCEqggKSi8hCQlBQieAAgpSJHRSNltmp/5/3zn3vvdmsumTbLuD62Zn3rx333m3fPc73znHAYS2s327ubIDCIUMQpB1cACh3XRT1xBnAWeBDWwBBxA2sMHb4+UcQHAAoT32S9cmZwFngba1gAMIbWv/dnF1BxAcQGgXHdE1wlnAWaBdWcABhHb1ONqmMQ4gOIDQNj3PXdVZwFmgPVvAAYT2/HQ2UNscQHAAYQN1NXcZZwFngQ5kAQcQOtDDWl9NdQDBAYT11bfceZ0FnAU6rgUcQOi4z65kLXcAwQGEknUmdyJnAWeBTmMBBxA6zaNc+xtxAMEBhLXvPe6bzgLOAp3VAg4gdNYnuwb35QCCAwhr0F3coc4CzgJdxAIOIHSRB72y23QAwQEENwycBZwFnAWKLeAAgusTpgaDrcWgxRhcqmXtGC6TohsgzgLOAl3VAg4gdIknL+UaV3CnxcWaggABRcWaWKgpK4WdclJOUYoqB869suuU1tArrsWQR04qNup9rapYkz2OrSs+p63l0FrqZRa10mJNUbAWQyQaQzYXRnllFU4//RwccOAPMGjLrRCLJ7Dzt3cRU1mmxi+MxaJXLHm9omdTWpu5szkLOAs4C6yJBRxAWBNrddhjc6sACCFd9HOs5kgmISeLWTiUx4VS7nkYDj5wf0TCXHEJEOABhGCBJ798U6kXvOVrQttyz8QnxkEg/+CCy5LOsrgHFn1ps7yvtmht8fcBgj5o/k0GwQcP/FurWfJ/2UwW0WgUqXRaAEImFzIA4ef4/vcPwKAtByORKMO3DEAwlaa1YqaYSMGBAwgddmC5hjsLdGoLOIDQqR+vvTm/OLO3mJqPuJiGwxFvtx0Ohz1aXQDC+edh+22H4+AffBehfBb5PKs8Gt7A1IbmIkpgYXfGpTbpCrkPRQmBBVwXdftDliO4+7cL/YrAgb7Po/SKweMEWMiH/vn5OQFCMplENFYmAKGyugannXY2vvf972OrwUMQjSUUIPCstpa2aXMuryW1Q6FwqU3mzucs4CzgLLDOFnAAYZ1N2BFOYBY2Xd48qlsWrbzVHugixcWuvLwcuWwGCOVw0QUXYqfth+N7++8t7EE8FpVdNBfHSITfIfOgu+wgdV5SqwQWel1j1bXhL+iF7gF9P6eMgWlIEMAEmYEgwPABQSHoULCQQy6blXvlop7L5hCPx5HJZKQdGV4rHEMiUYEzz/o5xhxyCHr06o3qmlrs9K1vI5VKIxaLCaCw4IP3oqCh1IxLSa3vTuYs4CzQRS3gAEIXePA5cAEvVOrLwpRXmpx+9HQ6DbIHfJ+LWDaTRsOypbj8skswZKstcOzxxyCSz6CxYRnisZj437ng2Vdwd1y8a19XE3NBLr7OipkBAwzyeWQL3AP+om8BTWG7VLsQBB12IfdsR6ZExQRyXEtLi/xsvPHG+OyLL4FIHN2798Qpp56FffffF5sMHCgahBEj90QkEhEwwd9UHlh7iWrDMQjr2kXc950FnAXWgwUcQFgPRm2TU9LBLVvS5a+uAEGWO6Md0J2r/hdGPpeTxYvAgAvfkiVL0L2uG4/G+EsvxnbbDseIEbsik2pB9+7dVK/AxU5cE4HFjjR8EY1eElsEXAk8nzIVej+eboB/eQu80RqYtsgx5hytuRcsEBBmwRM2GiAgOgHfrcADlD2JCJvQ3JwUJiWTzSMSS4hLgQzC9w88ENtuvwPiZWUYMnS4fCdtWIRYNOKJFgnSQuFISczkTuIs4CzgLFBKCziAUEprtuW5BCDI6rlcK3KyyKl7QaIPQoZ4z4eRz1KMSN1BVhgEMgPI5xCNRpDNZnDJRRdhxx23w/777Y3ysjjoN29ctgwV5RWqVQio8PnZ+hDcBdmJYqYiyCT4IkNxpPiiRe74TWSDggFfX2CNtSJdAu/JqB0VYhlWoiWVRE1VDTLpNJbWL0VtbR2SqSyqa7vhjDPPwZ5774UtBw9GWXm5uBho92g4YoAZ25OVZ0WbmwfXlr3HXdtZwFnAWWA5CziA0Fk6hSz8rfuyuYzbl4Yn6rGCE/J2Sdfv1i9ZgtraGqTTKQEIkyZNxNbDhmD/7+4roIHfJaDgDpo7YqtDUCaBS52G7pX2FbivoltUdqDwahYc+Iu/uh08FsGAmmA7PUZCiQnzsm6HnNjKC+I02oGsYV1op3w+hEwOKCuvwGmn/wwH/uBAbD5oEBqbm7HXXvsgncmI3cJhBQVq+zx874LTIpS2z7izOQs4C6yrBRxAWFcLdoDvK2ugC59lESLcuZq3+SFdDFzcuegJgxCLIpNJ46ILL8Tb//onBg3aQhYz+vVDIe6EeZiKFbk4hkI2AqC0BrFrtXIgrb2WQwfeQm6/4YVEBggW67VoDVMtB28894T14oRUU8DwxghZlxziiRhy+bAwBc88Mwc//smPscOOOyEUCWP7HXZUt0Q4gljMiBQZPSIXNyGlhkko8qYsF/lQWuu6szkLOAs4C6zYAg4gdIHeISp7JvWJUiCnUQs2cU/YRiHkgVRLCxKJBJLNTRLJQIDw7jvv4JOFC3Haaadh4aefYNKkSYjHE2hONotIUTMN6rZbafzW3Rzry8wr4yoi1CrQrRLQJhS3wwuK8MIQ+R25CeFC5M4s60LFRlgZl1wmi3AkIi6HUDiMTz9diBtvvgWjRo3Cfvvvj2HDhsn3+g8YgKHDhou96R7xBJcBlsIXLdLVY3NRMPx0ReGPHpexvszqzuss4CzgLAAHELpAJxDVvgj7qEGgsK5ZAABdBJl0CtXV1cIINFhtAenwcAh/+9vfcN5vfyuL1sKFCzH99tvQo0dPlJWVeSw8FzEbAcHz83uaybDtXzbP43KgQPWHK3kF2YrCXAs2zJLgg2xKZUUFljU0oKUliSefegrTp09HRUUl4vEopk2bht69emHY8OFIZ9KImjBH6jyW0daVlRyAAqzI2ETCUWEjGFViX8W5E/R9BxDavne5FjgLdH4LOIDQ+Z+xtwvmYiMiREBcCmQIqCtobm5EbU0NlixejERZGZoaGjF0yBAceuihuPKqq7BsWQMOOvhgTLl1KpqamtSDHwoJMOBvMgkWJJB6L3WY48rO1/oCqg+V92o/X9lxwS4QjMpYUdeweRQIjrhUa3hoHvPnP4/FixfhgvPPF1tus8026NN7I8yfP0/YhngiIUDsy6+/Rp8+fZFMJRGPxkSboJksc4hGYkZEqedt/eUAQhcZtu42nQXa1AIOILSp+TfcxTUkr1l85/yhO6G8ohxLlnyDjz76QLbUv7v6Wvzrn/9EZWUVHn7ob0iUlyHVksIpp5yG884/H5tsMhAVlVWycBEoMCySLonVWVTX5U5XtrivLhjx8g4Y6mB1AUNxu73rhUKoX1aPyspKAUfRCG3SgOuvvw5bbL45Dh07VoSeH7z/Pk4+6SeiTTjhpB9h9913RyqTxo477YBMLotsJod4NC72rKokk0OwoCDLAYR16TXuu84CzgLragEHENbVgu3k+0HGvDU5H33lViPA4kIU2D348N+xePE3+Mfz8yQz4G9+cy42HzhQdrNMhpRMtuBfb7+De++9H6f/7GfYfIst5TOyDzbhgiT+Mbtfm2hpdRftUpiueOEvZgPs38VMwkpZCX7JS8FYGCRhwRA/TrYkBSBJdkUKONMtuP/++/H+e+/j1J+ejIqyMo36YMRHOo077vwjnn3uHwhHwzj44INQ060WI3YfgbJEuYCBsIg/C8MenYuhFL3EncNZwFlgbSzgAMLaWK0dfie4cMnu02gObFMJEIRyB3D7bbfhk08+QXOyEdtsMwxjxv5AFjimV45Fo2hsakI8FkcoFMWE8ZOx47d2wb777ScJfaqqqsRPzhdrOIjwLmwTF62fPEkb3NwmEnS565oaFIof8hK6yMiEbI7ZKENobKgXu5904kn4za9+gWFDByOVbJYcExoDGqLRJBTyiqt+h/pljSgvK8d3v/td7LjjjihLlIl7gQyCBWClYj42uA3dBZ0FnAU6vAUcQOjwj1BvwAMIrWQd9OoH5LMsw4hHHnkEx4wbhy+++BThcA6pdBKxeBi5bBrJ5kbUde+B5qYWzHnmebz66ps47PAfYrMttpCqhfF4TF0UJiugUuKaLpgAhJqGlQsAO4LBTW6IYiGjAQjW1ozkYASD1mRII5dJS+6IV19+CX+86278/vdXC/ASkCArf0SEislUGvFEOeY+Ow+TJ1+Ja6+9FkOGDEEsGjfAwM9QaetbBJkQy36srZukIzwB10ZnAWeBtreAAwht/wxK0gJbUTG4kASLKImoMNWiJYbDYbz79ts456yzcPcfb0NtbTWSLY2oqEiI64FRCLFoGf74p7/iiy8W4ZfnnotmFnGqqJAsjJm0pmVmYSdS7AQMBAci2jNpiEtyU21ykpUkLDLhorxP1mCIsPBSSAWfZYmE1K/IZtOSR2KPEbthzuyntegVNEohlcogUVaBUCSKf7/3Hi69bCKuuGIS+vfvLzUxyNAwkkGZGbWlBSMWKLBolKTJdvUb2qR3uIs6C3QlCziA0MmeNvUF9HdrHoOM7G5tUaGa6irU1y+Vz5DL4eOPP8Ipp5yC+/5yN6LRMGLREBLlFfji08+x8NMvcfMt03DTTVMQicTAGs+6SGliHxsRYWsS2IRB/Lvjv1ZcXdFLycybDNGMjDyIqpvBeBEUiGXRp2dvfPn1Z6hftAh1dXVI08UTjiKVzmCrwdvg3++9IyGRalOAyavq6xtQXV0jbhxrZ1vkyRbHktLTrshTx+9m7g6cBdq5BRxAaOcPaHWbVxB6x0qG2axXPZC7ffrB+SPlhvN5SYYUL0vgvnv/jJdeeB6TJk8QoWJzcxMqKqrw+ONP4bnnXsTkyVdQbSDCOk3l3HoCgZWr7lf3Ltr/cZpkyk8nbVNL2yqPklEym5Gsk0MHD8fDD/0FGw/or4xDLC4AYPcRe2DWM3Ow6aYDBWBoHYyIMDIEDAQHNhyVbAWfmRWCuhLR7b+PuBY6C3QWCziA0EmeZDDUkDtOsghWYd/Q0IBEPC5hd2VlCfksnojjob//DXfccZcIFU8++Ufo07uPLFSNzUmMOWgMnp75DKIx+sVZcZAx/wy9C1ZT9LUPQV95Z/aNC4Ngsi5qAirNHOk5JqS4U1a0CHQ57LjDjnjttVeEJaD48OVXF+DKK65CNB7Hz3/+c+yww46mxHYEjY2awZLhqCoGJajLCQtUqEXQPAid2c6dZFi623AW6NAWcAChQz8+v/FWg2CZBH5CIGApfwEQyEu65eamJtx9911YuPATXHjhBXjxhRcwY8bTOPzww7DF5lvgqiuvRk1tHX7yk1M1wU+cdQYYrmdqQnolkfX6wYWqKyxatraFBxYkj3IeGqCopaZbmpsQjoRxwfkXYoftt8XBo0djxlMzMWfuszj/ggsQiydw6aWX4rvf/R722WcfL+kUQYF124j7IkpNAos82aRJJhG0sDkrdoV0km7tbsNZwFmgDS3gAEIbGn9tLh2MVgjqAKyyXXMUwBMRcvdJoEBtQmVluYThTZw4CeXlCZxy6ikSdcD3/vGP+Xj0kYdx7q9+jUGbD8LX3yxCMpmSRYgJlbgA6uLvJwjoqmr6oJNFizLaSpYsd82/c6hfugQV5WX44IMPcO65v8bpp5+KV199HUcdPQ5VVdUSKfLxx//DPffcg/feew9nnHEGhg8fjvr6etTW1nrZKAkMrJbEB19aGMu6dTQPgwKI9Z20am36rPuOs4CzQMe0gAMIHey5FYczBn3/VkDHBaOxsVGy/HFRITjg6+6778Rdd94lhZdGjzlYohqqq6sEQHDBeeeddwQ8nH32z7HzzjtLlr+MVCqMe+mEleouZA06mAlL0ly/yqQ9HUWFWamtwAWdIIGiQ9r23nvvw0cffSj5ETYasDEWLVosNS1ox88++wzvv/8+7r77bvzyl7/Epptu6rkVqFvgM6WrSCMX9CcYscLz26JZwWNKcpPuJM4CzgJd2gIOIHSgx29rC9hwwiBYsECBiwpf9GOzCBPBASnrRx99BG+++SZOPfUUSchTXlGGSDiEZLJZdAfWz71k6TJR3PP7jMsnnc6Fh2WKlTHg3zbbXwcyXombWswiSEVG+HUuJCdShHUuaF9lASrKK5BOZxCLaWplprTWCIUoFi9ejAMPPBCPP/646A9oc4oW6WLgc6+oqPDAAW/FsgYWMFi3BD9bcYrmEhvBnc5ZwFmgU1vAAYQO+HhthAIXdS40FLYFFxS7eHBB5+5y1qxZuOOO23H77bcV+LLTmRRirBzo+bOtX5slkjWUjq8gS6Hx+Y5BKI7l0FDFrDAHLL7ERZqhj95iTZeAgKsQctm8yR3Byo0RZFg62uSQ2GSTTTB//nxstNFG8h4BH0GCFZ4SPFhGiM+fAlQCweAz7wo6kA44bF2TnQU6nAUcQOhgj8yGv3HR5uJBAMDFQ1Mea1VA+8PP586diwcffBCTJ09GIhGXKAbrM/cT8YQNbe1XDxSSwKyCVkHPBEpardEBBAFOBX2HCMCCKhMGacpKawSDyTgJAgQNa9Tdv38Wsg1c/BndYDUJNsSRz9iW1tZMlinP9RB0MbBJDiB0sEHtmuss0E4t4ABCO30wrTUrGKmgugHdkXLh4ILB3zyGPusnn3wSn376KV566SVcc8018p4NUdRFRGlqzftvX0YVz1h+m4xHdPnMk2Qz+2nthS7zWkkVrOUyQngAQQ1M9wxrYEiIKDNM2kgETaVQkJKan2s2yhDee+993HbbbRg4cCBGjRqFwYMHiwuCTIEVLPJYy+yQSQiyPQ4gdJne6W7UWWC9WsABhPVq3tKe3EYNcGEnQOCLO8xly5YJk1BWxmI/eTz11FN444035O+zzz5bjktJdj8Ii8CXDzYELpi4enUnSLye2R+rKp//p0CkS6nkJVSgCD+JO0ZfywMEj3JRGxt3g7W1MAbmPZ4lKDbkaSks5WLPZ/ruu+/i8cefwDfffCOi0p49KWrMS4VNMgg8jrkW+ExsyW0P5gXaWNoe6M7mLOAs0JUs4ABCO33axQuxBQfBcEZdMJIFiXTmzZuHF198ESeeeKII27iQECioG4KAImZS+zI0rvXCSuJSAEP2AothV3UrrKqOdhAsFGVZ9ICEqV5ld/aeXQNVrQgWrAhUklU1NgpQePvtt3H99ddjypQp4lKyqbMJEvi5/S2ApahKFs/ZOVJft9NB6prlLNDJLeAAQjt7wFZPUDyxW72AiN+yzNSnCXXs+/z3q6++iltuuQUTJ04UOpoLCkGCdT/YBSVIQRcvKsInuB3oWvUKP/Rx+XTUFvAFQZe34zeLOwWnVtRow1MpQKWraL/99sOCBQsEIASLcPEcVnvSWqPtsSs7Zq1u1n3JWcBZoNNbwAGEdvqI7Y6yOGTNCgaDIkWCha+++grjxo3DnDlzJLLB0tAUvvFFF4TUYQgAgOKcCg4crFtnaK1KhSZm1ldr4IDvq2jRd9/w+almRKMYCAr4PIcOHSqaEgv6+Dz5E3yOFjhq6W3W4NAkSl3KNbRuj9F921nAWcDOWfl8Ps9F5U9/+hNuvvlmt3ts467Bidzu+jjJ04XAxZ0LBl/827IIXDQWLlwofupzzz0XM2fOLAhJDOZLaC3Tnls0SvuwWy9jtYprBNwCxZkx7d+W0WFWxssuu0w0CZtvvrkAAIY9sh+wX1jwaKs+8u9gqm0HAEv7vN3ZnAU6uwUcg9AOn7AFCNxJchEnzWzf446SYIFuA/qn77jjDvn3lVdeKTtLyxYENQsucU47fMiBJq2MybGfEQBYN9KNN96IYcOG4ZhjjkG3bt2kf9jcGBZgsi/YiIfg+Z37qH33Bdc6Z4H2ZAEHENrT0zBtsWBAs+xpvLz9t1DSuZxQzcy6d8IJJ2CzzTbzxIrBXAgWJNidpVsc2t/DLn5GwboKtrV8bjZqhUCADMEjjzwiCZUuuOACj0GgGJXH8XgCBIIKgoegzsT1gfbXB1yLnAXaqwUcQGhnT8bu9jjRF0/wpJSXLFmCjz/+GPfddx+OOuooDBkyxEugY5kCLiAr2jU6t0I7e+CB6IMgWAhqTfhcJfV1LCaNtwmT6Br84x//iFtvvVUApHU98TfBgtUj2HM5F0P7e/auRc4C7dkCDiC0g6djIxFsBkQbH28rM/I33Qp0OSxduhS/+tWvJFKhf//+4l6giG3RokVSnMmK24KLTTu4RdeEtbSA7Qtc7AkS+NsW4SK79NZbb+HMM8/E7NmzhT2wJaLZZ3h8TU2NV8PBRTKs+CEEy2xbEMbfrQFtN7bWsjO7r3U4CziA0AaPjBOMVZkHJyEbuaD5+TOSAIkTPN/n39wVbrnlllJ0iWDCFvIhQCj2Y7cmSmyDW3WXXEcLWPBod/+27/Bv9hNqUihSZb9g7otrr71WQKPVJdg+Yos5BQWuNk9CV1/wNIOlFtSyLA3ta909wURXTs+xjh3afb1DWcABhDZ8XLauQrAJlkXge1o2OC8LACd/lgXmjtGmVOYxNpTNFm2yoYz2nM7n3IYPeB0vXcwssT/Q7USWiAs+GQPNqKg5Mf785z/jk08+kSiHlZWItpqWYNhrV3c92fu3rhr76IJjzYJ5x8SsY8d2X+8wFnAAoQ0elZ34rS+ZVLBd6CkuC4Y6fvjhh6Bq/eSTT5Y4eLsY2BBGu7MMpu0N7jZ5LhfF0AYPuQSXDIoLi3f7dodrAaVd2KZNmyb95+ijj/bSNgfFrlogSotKFS90XRVMBiN+aBdbBM2GmdJOlpUJMn5d1V4l6NruFB3EAg4gtNGDsu4EO3nb8EXuBC1geO+992RXOHr0aAwfPlx2jMyQaCnR4sXfAgtOXMUAoo1u0112HSxQnDGxWGxon7fd/dq029OnTxdNCnNj8ByWqbKVIW2WRrIMfk0OLfzVVV8WtFubWlvZctpW6xNkWrqyvbpqP+lq9+0AQhs8cetHtjsTTtQEBXzfhqdxgr/hhhswduxY7LzzzjJ5041g0yUXp2K2k1XQn9zVaeM2eLQlvWSQQSjWCQTBQrB4F/sSQee9996LF154AVdffbX8zR/qEiybRLAZLPLU1fuKBds21bnNK0FNAn8I4G0xNMvQlfRhu5M5C7RDCziA0AYPpTVKk5O8jUAgEGB+g4suukgS4liRohUjcnLnZFX8Ks530NUn/TZ4tCW/ZFAUV/w8LSgMhkBaoR1/s3DX+PHjMXLkCJx33nmy0Clj4FPmhRUllUFgRsiOxSXYHJZr32oL2mlTy8TwPQJy2pfjLQjK3dgqeVd3J2yHFlhrgFBc5K54txMM2QvS3QU2WG48ryhb/aottzppbtd++vCvv7LraGlkPcJna/1JV943p9KJGcik0whHokinM4jFYxg1coRU8ntqxgyZlBKJMm8HQ4DAl02WI5N5vmtTw6vuGZ3zCPYyiYQxYsWwVOwOIZvNIRKNIZvJoCXVgvr6ejz6yMP46qsvcdaZZ6K8ogKRCGs05JGnFkE6qvRc5E3vzIdMP2UFT2O+wn5vyoNbNLEiE4dsJQozJjz4oV8QQGv6sBbC1Ktpk/KmzLg/aoLjV/7Nvq9nkP/0i+Hly3CvqgvIfepNL/pmkYy38krNSspzB/OK2HGt407qoruXs0CntUBJAIKOI50ErJgqGBqUyaRVhJfNyiQQCtuBpYPbTBeFv70c9a0t6/qdYBkcju6CM3lf8yenomq4BQ91xf7EvFwoWHRHJ1A7qZrW803vDsx9eZOv+UxnQ215XifnXD6HTDaHZHMSPzvzTPzq3F9ik002FleDTtghtVkoJEmSmHu/uOhSp+2d7sZWaIF0Jm3KdecRoYiuJYlsLod43BR5SqVlYWtuakQ63SKpuLfackuMGTMaX375pbgbqqpqOGCBUBh508fsiLSwwW/ASuper2BgCRNRoGtYMby24MQuyoXzghltAgiCr+D8YXiPNdZRhAA7dk25bjJ0HGPd6roJcCdzkEppZdSCWccBBDdCO7kFSgIQ7OIZBncwWRHTxWJR/Pvdd0UsFY1GZMcC5PzxxcG+UgBuP1weIAQX61WToYFJqXjyaL38njzy5eYZ2dHYXYpZ4z1AEGijnDOPkAAAOZO30Csw4M7DAAXDIERjMdx8yxQMHjIEo0btiV13/Q6SyRZEozEBPTb5jQUKwUgGxWaORejk43S52xMGIZdFNKw5M8ggcPm04lcucHz/X//6F767/77YdputkckQoGelR6ZTWcUG2lvlH4xtyIcCsDs4dFaHomvtISw3kMyJ5FeQXdMF3oP+AeqiGGPYv9nU4OzgwQXeTuD7XtNXdg9mTJLNa2puwgEH/AAXXXyxifTQapjFTKgTKXa1Udf17netAIIofr1dtE4s3BET5xNpk95MJOI49JBDZGAN3HRjNDY0eXSg7Ae8XceqRu3yD0UngtYdBnaCKf5UdzOF5/LdIsa1Yd0DrU50dqOhk2k+byYzM0nZU4fNRXyORKnSILuhc5GyKZx0EmUJtLSkkc5m8dAjj+HzLz6X3SEb3NKSkh0MJ3wbA8/muSiFrjdYg3ecK+6rHJNFO3b27wWvv4rJkydi+tSphA8Ih3LI5bLCOhi8Koyejik9h2yoixbfUIjje/mxqng4ACoKHguvESlSNNhj7Y5fAXUBF8B7sUybOZ9eQgeSJ8jNGReDhzmKGl1MNth7LFYHrxsAACAASURBVKqgKdfO54XJ47ib8fQs/Ovtf4sGiFegK4HgyjJ31s6tz0Bdu1+6u+9cFlhngOBNKjLKcloshqM4l5VaARee/1tsNWgLZLMZJOJRcAHlobLj4RYmSE/KLshuy5cnOfWTFb3fymwgb/mTV/H0FtRN2I2TgB+yHbZdbK8AAoaL5WQisYxkCIQBxm9qL+/NUXoOTuTyHdMUbb36fyORENKZjFC84WgMsXgCu+6+B9745z+RyWaRSWdBdsFOiMXK82BSpc7VLd3drMoCtl9ZV5eCTrJyCk3ZX8PhEF5/7TVMmjge06feimiY4y6LfDaj/ZtuBQEEIe3uHJTBMRhoRIiAVrcC3qtwrPqj0xtzBAcGIBQsphxsMiYMnDf/zvEdvkV9hHlPjrFjKOB2lG/KcT5A0WPNGJWv+dcwRvHGY9BtSFvx2qFwFKFQFPOem48XXnwZp59xBiLRODbaaIBcR0TCgY2J6D7cy1mgE1ugNAAhD2S44IVDIrqjzzMejeCYcUfj4gvPxyYDBiAej4GTDEeaDKwAWx9YWwtUUa1zC3ZUrmx0BvcjPkgIDu7g5MFpUgCCnYhMIhk7iRIQ0L9Lat/Gpnv0qMESFuzozo4uBr0rwRoy8fk0Audw0WPI53lEolE0NjWjrkcvjNxzXzzw4INYvHixTEwb9e/vAYRg6lerqLbUZyfuo+7WWrGA3fUK4DYupkKhsAEIr76CSRMn4LZpUxAJEZBnEAbZAOIDOgW1b+dFh6B4t7VxFzH+/+Bnnus+qAYq0CPwZBGj1wmCdT1LyIgYqcPhIm3vid45CyDkdCEduQZOeMyHDCnZY/gjO8+lXsYxf/uiYTVhXsWZgc/lXbr6six2FUUoEsPcuc9jxtOzMe6YYxCOxLD7iJGIRuPKtAQM4ACCG5qd3QLrBBDskBeiT0ejLnq5DLLpFhx2yGG4/NILhEGIRrgM52TP7fniA2hcxl3B5ORNB0XPYE0YBDOaZceiQj87iVrK0k4uZA3kMNndmwmMDECQeuVEGpghzC2bScPSomYi40RkWu7ZR25dJ6+IKM6zaGxOIhaPIxKJobZ7d+y+x964dPwEqcFQV9cdw7feRs4SDLGyGgSdZNXv7LIldvahWnh/tm8V+OADQEE9XTksePUVXDFpIqZNvUUBQi6NqFnZgkJiAbJGr1cMEHiqsHxYOEbtmLWLr6XJ/DbpWPVlDcuLDHMECTkybRREmDHPxrCpHhtgaDnLxPlTiIIAo6UQBsIABG/TUTBeLTjwx6oOScMKhsJIp3N4+ZXX8fSsOTjhRycjm8tjl+/shqZkUkSK4VBYQIa4Bx2D0LUGXRe823UGCDoNhZChX5OLVSYjokSyBYcdMhZXXX0F+vfuhWwmhUQsIgBB6E8ZXP4Ik91DKwNu+d1M8UKfRySiVL8VaEkK2TAX4Iws714ZXANkwpGI6CSCC2xQ8CRsQICylUx0oZCX4VCuw0nMULM+6OAOxbpNGKFg7tEqxA2iEB9wJCwsAt0KqVQGmWweFVXVGLnnfrjymt9ho402QjxehqHDhonYjADBpn4NFpTpgn3W3XLAcbbiNUq4etUgjB+P26YRIHCBzoqAVr5nBpxd+7MclxQUm0XVFjCKhJQF4ELMfmgZMQXPCk6zjFSKRD02QzcKJqWzuOiU7g8RqNsQx5Au6fZF0aUA3mxOj5OdfVauQveaFpzSxVnHnEU0ehYZlyJQDAWOp+bCB9D8ns8C+gyDti+MsooqzJw1F4889hTGHXsMEmUVGDFiJEKRiIADb14w7hnXGZ0FOrMFSgIQMsIccGTmkcswiqEFoVwW444+EpdceD6GDB6EWJgTTEbCqsQHb3ygBUrmotnOmzoC76uf0cRQG2Wxpf7twsm/OUlwEfYLItG1wTboRKXMARdxEw9uJ0XOStbdYAom2Q5AH6RoLMyCr5oEs50xgEKjNXib3BUpQPCYBEN78p2cgJeQ7FBCoYhQvDW1ddhjr/1w89SpUqBp4MDNMGz41pIH3tZqsFUdLa3cmTunu7cVW6A1BqHw6GKAcLMCBAEHKii2HdMjBzheDNVv+zB1DAQIXHkJEDheCL5leRZcTmCelbElC7FpBEWQshCrOELGG11pwhYInU9hpAENBAImFFrcHbxGjnkerOZBExZpFIbRS5iKqAJczKIvNjHbejsH+G6GQvYgyCQqCyfwBfFEOeY8+xyeenoWjj/hJITCEXxn192oCjY2s+4RRx+48dn5LVASgECMryg9hIzEX5MpyOOQMaNx4W9/jWFDt1JaM8eJgZSjER4VhRUszxa07hPl1zigmfCFEwsniWg8hkw6oxOETDIc00rjR6IRb5dj8wqQXaAPlpObTBAZrYjHzzOplIgIo/G4MCIyGYaor9CdPM9JFkR3ExYg6IQhVKmRG8gOi/8nwkxf/Mhz2x0W58BoLI5cPozabt2x864jccfdd4E54Hv06IVttt3W2wHZ9K+tZVHs/F3V3eGaWSAIEKhBsABBwxztizt1CxBUqEeFggW5ZMpy2j8zmoGRi3xLOoVwJGySfIVFvJdqYVguc51khEkUbQwTgKVSck6yCxwbBA6ZtL6n4lstfc4kYRzLLQTDkagCDXoacjnEYnGJ4OHYZBKofJZ6IB2/yKsuSMFIGKEI3QSaI4LHeLt+GylRJHi0IkdxU5AliMQw59l/4MkZs3Ds8ceL648aBM4rsjEo0E45kLBmfdId3dEsUBKAIAyCbCdygvw1JCqHMQeNwcQJl2DwlpsZ5bS6FvLccZhdSIGmaXWsZ2KcubvgBERXgdCeRsGd4t8hUp4ZxMsTaFjWgLKyhMnaphNfLMoEMk2Il5XJb056bD0nL95HuqVFphO+TzcA28jzMWud6hP0x1KVyoZo4/2oBX7uTcMeBapiSPMBz5vjxEPalgChB3YdOQq/v/lmuZ+ePXuJBkFFVUqt2hK/9syOSVidTtMVjwkAhAkTcNvUVQME9uGs6G5yXlhfNp1GRXUNmhuTEmlDYEBXQDaTFWARjzMVcRNi0ShiEWZwTCNv3ALlVdVINjXL4spFXUtUpwRQEDgQ6PJcvC7H1rKGZTImuYHgcEqL6y2HMqkvkZWfeCKBluakjM+YFDbjtSOIxjQ7pLoggsyh796wsMi6IhXgGwaRfwgASmDO3Ofw1MzZOOa444kaMHLkSIlwkM2NbguMftkBhK44srrSPZcEIHC5YxRDVGKrdWIK53MYO2YMxl92MQZvtYWwB5w4wqIEzBlFcGHYlIzR1bA+d++k/uirpJ6Ai3JTYxPiCc2Xzt1JSzKprEKGRWnKpNgKUQCjLMrLyiSdcRnTzor/NIMEwUJzs0xoFAuGczk0NCyTyYaTiNybIgDjo+UkoeBByUmFDeq/NUpqQ1vKlCKUgcnKyAlQjgsjLTuzqACEbt17YpfdR2HKtKnS3t59+mLYsOEFQkRbVc4BhNXoKF30EF0INUeAaBAmjMdtU2+RHAhhCVcMMAge3NU+Go4y7XdKdC8EwxwXXKjziKC8slp38jyODEI2IwnRuEiXJcpAMMFxImOBwJquA2YKZdZH+vcTCRl3FZUVwhqIyyBM0JsSASB3/Azr5Xikq0HccwKoVezIxGFkKHntlpaksJQcg4yeYmZJHhuPJeTfumExOUhMcjL1HBa7GmRQS5szWSAWL8PsOfPw9KxncOxxJ9AgGDlyD5lngvOTA+ZddHB1sdsuCUAgONCQKZ14sllVSo8dPQYTx1+MrbbcQqhAxl/bKAbxW9p4x4DRVw4QhOxXf6isr2FvRx8iLUmwkNVcDIwMEGFTNCI7lmRL0oCFhOxeOBHxvcrqGnz1xeeSorayokIABHcpX3z2Gbp3767CJ5O3Xvym3PFYASM1FzaywcsrT4JWnLUm17119ar+wfpj2U6GTqXTdHGQfg2jW11P7DJiD9w6fbpMxL169cHW22zji70IfFpa5H6CL5fRrYuNWgMAbBiu3r3d2/qAVQHCa5g04XIVKSKrIY6WwTLfsmuwQNtcHuFoGEmpLgpZ1EkI/Of9/+HHPzlDdEaRKLUzwM03/x5Dhw4VMSHHVCIWU1dDOIxYWRmWLf4GFXXVnBCQSnFOiCASj6Oxfpmkek6mWkTcXFVdjWVLFqOuZw989cUX4l579913UV1di9tuux1nn30OBgzYBMw7QoBcUV4mcwdBQjymYKGsLI5cljA7hCVLl0jNCV9/pPBdtArLuRg0qkjdgnRVluMZwyB4AGHEHpq4zGZhWZ1dTFfsku6eO50FSgAQdLSQ2udCFWVEAXf4ZBBGj8bECZdi8802RSScV+rRIH7VEehia1+tjzv7bkChkFf/JRfLTCaHispKAQJ/+ctfceZZv0A6rVkTOaZnz5mBbt26oa6uTnYokpUwHhcgwAmDmR8ZUtjY0KA+To8GTSBRXo76xYvFzSD5G8Jh44YgIaI6BC+sSjY5nID0WM0FY2VYOrWIK8LEYYtAMuu7GEhl1hIg7DYS026/HQ2NjejXbyMMHsIJWDMuip1TStHal9vJdLoxuXo3pFtrgw10hy3AVZdCjRQoBghMs5xXkGAPtsyXVf8b/ktEh3QjLPrmG/Ts3Q8vvvwWTjr5NNx335/Qs2dPlFVVys7966++RHV1NaqrqtC0rEEW73gsLgxeWUUZ0pkkGhqXoYruhuYk0qk0uvfoLlClsb4ekWhYQAJdFPFEXG7j/vv/isefeAL/9/NfoKqyBhtvsinq6xtQUVEpGwBes1ttDRobl6F3rx5Y9M1XiMeiAmroPmRm0uZk0qRJDgkbEgTRVgjJa0mop3j9RIQgeRDmzJuPp56ejeNOOEFdDCP2EL2TB8Osy8+rKbN6j8wd5SzQ0SywTgBBFMQBitIsgxrnD2DMwQdjwvhLsNUWm0l4FaMYNBubTkOtvQrrOVpwEAxj0NSnBBfUIUQTZbLYk8Zk9rOLL5mEu+6ahk023VTpzKpKET599eVXcl0u+ixswwmQO49ePXuA5ZWbm5Oy+Pbu00fO9/U3i2QHUl5ehr59emtYJBd37lJMNASBQC7PaATSqQyxyilAkJoT9LsWxY1bcaYABd49faX8HQEtVkeAsPsemDJ1KlLpNHr27oPhw7fWudyILrlTo6DLS+JkFga3qeloQ299t1dHJl0Mk+himEYXQ9a4GOhmKMyIJO4FutsMI8Z/J5ubkKiqYm4lPD3rH7jksgm46qor0a9fP3ENVFSUo35pPQ4/7DAcM+4YPP/c8xh98ME48IADcMkll+LxJ57EgAH9MHnypdhqy61w44034u9/fwhLljZj8uTLMWKPkbjyqqvx/gfv4X8LP8N/3vsQjz72V0ycOBnPzn0B3//+fnj33bdx7TXXY/CQYTjhhBPx3nvvo/9GfXHSiSdgh+22xe677o6jjzwEM2fMxsEHH4yzzjoVtXXdBBTwJYxIWCMsLCrymASjJhagz/tGGNFYmYoUn56NYy1AoIshrKGePgzz4ML6fpDu/M4CbWaB9QIQuHhRdsfJYsLll2KrQQQI9GlagGBBQusQwWyLihQJZgkMJEuQSmvRqNCXnACenz8f519wkVCS3erqpPLht3f5Np6eOROnnnomDjrou9huu+3w1/v+ivKKMgwdMhiHH34YrrvuBnz9zRJZ6E886URs1H8Axow9BAceeCC+u/9+2GvPUaiprhYfqwcQhFUgEFBgwB9+X5K2WsrS5kowWzuNfKDrwYY/ECDwvrinWw2AQJEiAUIiagACvbBqFwcQ2mwMtdMLG5HigtcwyeRBIEAI5kFgBIN9aTrxAKDVFIUSmbBkyTK8+/4n+MFBY7HtdtsJnU+Q8NvfnocBAwZg4oTxuOWmKThm3Dice+65mDvnWVx4wQV4bt48PPf8XHzwwX+x4w47YvyEiTj66HGiPbjzzjtxy5RbcM1116G6tho//8XPceXVV+LTzz/HnqP2wOxZszHuqGNw+fjxuP66G/D4E0/h5ZdfwfXXX4+nn34ajz7yEI49+ij86IST8NjD9+PLzz/DA3+7H2eccToGDRpkgIHqhxQo2ERMAVeDAwjttO+6ZrUXC2wAgHAJthq0+QoAwoqWtSBzUMgeBA1nY5xF/xAO4+8PPoTfnHch9tlnHwmNGrBJf/zohOPxxhtv4tfnnYe77rxDfJ8n/ejH+PWvf4lvfWtH3HDDDfj0s88wYdIkPProY3jw4Ydxwokn4pRTT8dDDz6IjQf0R5kJd6SwUDQIEu9tay1oIhfNuUhiwGRbNOljFRv4PlCrQVB1I3dslkEIr5pBcAChvYybDtCO1gAC6XRNlCThvuoVk5dlAm3hJkYj8EXqn13+9TffwamnnY57770XAzYeID48MnR0LUybdituuvEmjDl4DM486yw8+cQTuPrKqzFr1kx8/Mn/8PHHH0l3v+aa67DZZoNQW1uNHj164oADD8Att07BoC0H4Zjjj8UfbroR//zXW9h3733x3LzncOQRRwoTMXXqNNz/wAN48823BCC89tqruPPOO3D4oWNw1s/OxNxnZuLD/76PJ554DGPGjsH222+PVEuqMBGbuPsMQLdaBAcQOkA/dk1sSwusE0CwE0swGZAs5+JiMAxCqy4GS/f5vtMVG8HWaw+CCVve2CQ44U6nvBwPPvAAbrrpFtx0803o37+/LMzhWAyPPPggbrrxRtxzzz1Sfvr//u8XuPDCC0QAeO211+LDjz/CpEmT8eDDj+Av9z+As8/5OU486cd49tlnUFFWjkQ0xjhH5JimNkLXAYvd0IvqZ4vTedYkXpI/qFEwgkYPIOiuTHY18kOxl2UQHEBoy4HQ2a6tOoRCkSKjGBQcGI2CYRCCOgSv5KnUW9MESAwnfvGl13HoYUdi//33RVVVjbgYjj32aNH1/Prc3+Cww8fitVdfxz777I1v7bQTfvmLX6J3735IZ1PiJjvk0MMw5eYpqK+vl7wK++y7D3baaSdMmjwZX339FXr364OXXn4J//eL/0M4FMFlF1+K/fbdD7NmzsSdd92FpUuX4sqrr0Jd9+4SNbHTTjtgm22GY9yRR+OVl+fjg/fex9//fj+OO+E4bLbZQBUW0y0n7kgjHDZQqHUXg1rMuRg620hw97MuFig5QLCplFcOEKzgcHWIcQIEm5/N3qoustmsJllhxsR4eTn+fM+fce6552PY8MEi5GtJ5XDllZOweNE3mDBhAu68404RL51x2uk47/zzBCC8++93MfmKq7B06TJEEzGcevrp6NGzF4497jg888wz6FlXh6aGBsQizL1OXyUTM6lrQRIdeJUa2cawRjIKX5tRgBBw9XquB01JZzIp8p7oYgijrnsP7LLbqBVrEByDsC59vct81x9dVoOgUQwMMQ4CBKlPYoCtfIc5RiS5WM4DB5FYFJlUBskM8NL8F0X/IlkKw2EMHbKViP/efeddbLvd1vh04acSQtyvX198tHAhPvj3+0wugh123AlVlZVY+MlCfPnlV0hnsui3UV/06NULl116GTbaqB+GbTMcNbXV2Pnb38bnCz/Hwv99guqKKgk9HjCgP2q71eL9D/6LhZ9+isrqSmy88QApKf+vt97EDttth+amRtQvXYK67t2E1eA9aHIzTZSmxZv8FOoSzeAxCJrETAFCwmkQusxIcTe6KgusB4BgihEBRoNAF0NrIkUzI62qhSasseAwTnSShS0sDEG6JSmAIZOHTCyq8g9JnoPK8goJd1xaX48+ffohlUxi8aJF6MsJpiyBpvp6LFqyRISMzNLGRC2V1VUiUuTnFYk44lFGTeSRSSXBcGhqKcgiqPrZVLmR/RoTKdnYbU5IqlL0qt4Zv65GMyjNy1TLKlJkHoQe+I4DCKvsEe6AlVugNYAw3QMIyix4o88iA5OmgwBBsoFK4jBG9UQlMRH7qNZCyMrnBAn1y+rRvXudVmrVnQGSyWb5rLKyEvlIGM2NTV4ocFlZufR5ioGZJOmThQuFwdt+h+3x/QO/j/KKcvluWSyBlqakJDyz2VCZ+4CUXWNzk4ATioftPSxbuhRl8YS6TEIRiW7SqB+C+ohGMXgh1a1pEIIAwYoUZ61EpOh6oLNA17DAugMEySIoHnmPulQXA3DwQQdj4ngjUpQdNRfVYATD6jIIgeM0FaFcTWKroxp+1JxskUnHJjaSnPGhMJLJFkl8lGpqRmNDk0xcsUQci775GpWVFUhzQqpgZEOL5FHgZ5988gk2GTgQzU3N3AChvn4REowckB0HozGYu8DUozcLvVIFFEX5ueK16BMBgkm1LOGffrlZIgfNAR9GLqQuhiBA6NW7j9RiEMsKXepEil1jWK7bXS4HECZejumSKImaA62FYl+qQbDa/JAspJJqmX2NSZHyeSTiCeRyWnOBoYjpTAbhWETG3tJF38hiLZFL0QiamhpRzsihpiYBEP369xOAQDGxpE7O5CRqiFqgSCyGhsYGARV1PXpIFkbmMOhe1x2pZZqdkYCBAKS+oR6ReAyV1dVYsmQJmpPNEm3UrbabtI+AIpvR8UZxclOTAhXmTuDLFylqsbjWGQSNYvDyIEgUQxgjR47SkMlA4ep1e0Lu284CHcMCawEQzAJngwrkPkmt686EC6eNwT74Bwdj4uUXY8hWg6Sao/hAlwuMVGCx/CsIHixPrwWhvNRDpkCM9f2TAbC531klkTHXTHrU1NgIFnKKSPZFDXvKmroQVFSzwcy+xvd5XDqXwbL6ZZJfIZlsRHk5a8FrXDgXadZk4G+bK14sIKGPGlblvTTtgYlItwlZjLhRQIYRKUru+pAkSvrObnvi1mnThNFgJsUhQ4d5aV09gBAnKLLAzEUxdIyhtn5aaVX63oJvEnbp33m89urLuGLyeEyfOkXArgcQZBiJSsfLEWBlfFxYucuvrKqSuiSxaByRaFxCGplZUV1lTBKmyc44NuiKSCWb5TfDhyurKgVIM2ka0ylraWnmSAmhsrYWS7/5RpgASWSWiIsroaw8IWxftiWNijjTK1P3wzoLWZkhmJWRYZhcrBmuTH1BU2OzDDJGZJDhkIypgFSU1Wb649HLSyIAQQtJqVZBC7cRqPM+Z895Dk/PfkZSLedDEeyxxyitw1AEEFyCsvXTp91Z248F1hAgWJ7AlnMxCV25aw7sQ7iQcSIafdBBksVtyy0Gys6bcmgFEab+e6vAoNg4ASGjuYjWeNI/bE17DnHuSFhcKcWiTWZiSJRrCldNTMRiMRGZGJggSXZEcV38U5k0MqkW0TMQJDCTIbOxpTMpsMAE2QrOKYyO4C7IRlD44EbTJwsjEJiUbG54nY9NWKRJcuPljg+zTC4k1fKuu+6JW0wehB69emPrrbcxZZ610I3mQXAAof0MobZtSesAwaQYRhZvLliAiRMuw23TpiAaJoAluCWkV4Cr1RDNaGKhJmG4dJxwsZbaH9Go+OZbTJpjfibpjVm0KRxCU7JZ2bh0CtTccgwmysvQ3Nggi76GS5KB02HJzKtk5JJmMZdMjNzt51kgLYF0U7NckwOOYIBJlwhMsmQEm1nbQfM1ENxwgZcMjSFtr120bRI2LZFuw6pNNBHjGYxY045X2oHuvnhZBWY/M09qMTBREl1/e+xhMimakiu23LQDCG3b993V178F1gAgWCQezA7oAwQ21VZrk6yDIShAuPxSDNx0AOKxiAAEyRvAdK8hncRW/QpSFWa3LHOb6hAU+edF+MSJhj5T7kw0CpE7BW9vhWyaueNjKnDMaVZFHkiKkyCBbSatyYmOn5FdyJOxMP5Mab4nQlTK1e7UtPKtYQlsPjsJp/KwivHF6u5LJ0uKLHNSQ6KlJS0ahF132wu33HqrTIA9e/UWBsFSwI5BWHVv6XpHWECq1QZlHFqHXy6HBQtexRWTJoiLgQxCqkUX81Rzi4wd7sJlwdNR6SVfFkqeFVO5UOeysnvXsaP9ln2R0QSsocBjpVxzPCr1GRj9UGYSksk4ShFIhGVM0Y3HrKXihmhJSS0HASEEAGQPmO2UbgFJXmTqtpApFDaO1SZZayWiTIJEKGhK8ygBQkZrQzQ2NmlNFinsppsIf65REJ+DhicL42cQEtkCMgiznpmD2XOfxZFHH4Pyykpss812qKyoMuyocceYzKpdr7+5O+5KFlhDgGAZBNH/6iInk4oOVFu9WRbcXA5HHXEEfnflJEmHyt1BRXlClNRSYpkV3oJ0fKtWL9YoFIY62kGvExyzourEYtsjTAZ3EIaW5ETi1aEneBDakzsonYzYftKa3B2JUoL0ZpZJkHSC4oTE02eFDtCQRoEqxq8r3zIASN/3yzipLtEWceLkpu0SpbWUr82jV99+2HXXUbh5yhSZSGu71QlAsPXqHYPQlYbm6t6rdbn5TJv0Xe6+QyG8/MoLuO6aqzB1yi1ANo0wdQLL6lFVUWnqp3Ac5nwQHADt6nXPi8iW51POzvxHtkHCIE2pd6moqqXTLfjlbzsniFQpYgo5GXeDN4uIu05pDElrrr47OY/UU5ACaSb5KEGBOVaEh56rRFO3y+aAlSDTTJ5G14Y/L1lwI+PduCp1CBPwqLsvliiTUs9z5j2Ho8aNEw3CrrvtLuepKK8Qm9qsjDb9+eo+KXecs0BHs0BJAIIMMg7cbE5240oP5nHUEYfj8ksvwZZbbCYFYNJNjTKhRCLWNVAcvrgy81lwYKO2ufgbkGJ36oZVoHJZJyn93IZCcu7gv3XypKDQghyTPlmOZcZHLd7CiYApVvU3FdUsqqS7fottlOLVH5F3yQc2pEonV6VxrRCMpKXmh1fNQwLLGhrlfNW1tdh7n/0x6Yqr5IwbbzJQQjGVItVy1M7F0NGG2Ppur+1/shx7eheNkMngzTcWYJ+99kK/vn1QVcHiYBnU1VTgm68bfL7AjhNWQ4yzMqIu1nbEiVIhlBdgTDeFrOFmUecxxOXSRQ1GYV/me3ad15286nGsRslaxR5r3V8lmgAAIABJREFUZA2IhsnumZBLfidrc4Wa79NNYs5jzyGLtqRA18KP9pwE3WyElJb3mDwDS4J7DR3u8orGI0hnMxi551445PAfoqa2GwYM2Bh9+vRFlOykOc7VQFnf/dqdvz1YoEQAQXfY3Hk3NzVh8eJF6Nm9Ow4ZMxYzZ8wAvQucABIsIWDrxKyWe6F1E2mhJz2XuhV0d2E3QkZ3qAM+qhOaBy/MpkMyr9pJyxIPWiASsRjFTtRL6PckIVKeqY/MJMLreQJEfU8mvsA9+ZOr+cymstU8UlpMSq4VR01tJZbWNwijkM7mMGPmLBFhMSzMMggasmWiGJwGoT2MnXbShtYBgu72IQzCTX+4Hr+//lqkUy2orqzE118yMVE/5FpSovxXVxsX+bz8m3VAxJ1gChlJAbMMo3w06RABeEgidhRYE8AywiBHrY+h9RUAE1TzOA2LtC+7y7dJw/QY1jlRISPdFCKRsCJK447TyAPDjghToKBcWDuyeCEt/U69w5IlS71QR8vcafVYdT3KUDV7DdloMEw6mxOQ/tgTMzBrzjyc9JMfSzTE7iNG4ptvFqFXz16aWdIwf06D0E6GgGvGerPAGgIEbYcMZm81FNkhchLel0M9Y5ITcVEwH33EUbhy8ngMHroV8iztmqLf00QRUJRkdvqtRzF400krN2/9rUbHILOhH7wl2gRhCDgxsawyFc1aRElIfwoVZRcSQkYoSD9nOyMVFIAokqGrRMMINIkML8UJTJiD4HFiGLWBzj3GnSBfNBNTUJBg092GI1i0aDFqautQUVWN3Ubsid9de42Uq7ZhjpYapYCSkzwnb0U8ans71623XuJO3I4t4Dv7fAZBvOvSO15+6SX87uqrMH3aTSbMMS++fgr/6GbwobP46EzYrQHGVtMgET8q7BMNgNHhcAxQsCjzAYEDAYSEF7NPFhZjUxZOq5IyYkjLw+u4VbeCGY+MEKJuwep7CMzFlUGtBEEM20CgoloHpQZsAiSOUc17wFLqvJYt2mTRgLSV80IgaZJEc9iNQz6Cf8x/EY8/NQNHHj1OcqPs/O1dpBol2xAUTjmA0I6HhWtaSSywBgDBv54tOqRCaKXPxU9vREUtLU3IZdI4+shxmDzxUmy5+cBAFjeT6lV8//acK6MTinUIgeXQ+1rwmNaO5+xjqH+znKprwJRgtnHgRtnMQyS0yvKS4sLwC0zZScb3adr9moY6KvrQXY13CgOsSHOIr9QCCrkdDa+qqu6GUXvvj2uuu17s2r1HTwwbPtwTWhEgMPrCJoLS9hs6tiTdwZ2ko1nAd3HpuLCCQ5Xx5vDG669j8uTJmDrl98imW6SuCJN8sQ9lUqy3YPuuLfzlaxn8kGS/0JFu7YOQ1OgKjJstGNVjOnkgjFndgr52yIp+ddHWccWxpq45BQ0EBio6Dop7dWwa8aEdc2Y8EERY/UFg1pJ/co4i4LAAQVwQAvRVL5TK5PDGW+/g8Sdn4OSf/ATJVAY77/xtKSMtOVdM4x046GgjxbV3bSywlgDB97vLIiUCH0X2GUYAMDYaeYwdPRpXXTEBm/TvJ9kHY8xIaEKMxC+4SpHiim7Jig9WAh48p4IPQrTiogUG+r6Od0s9+lEJHkAwB+lE7KdqDS7+/jl18jREaOD8dn6ziumcR6cKI5HJoSWdQZ++/bHriL1wwx9uFPV4XY+eGDJkqBFSkv51AGFtOnln/44PEnyAILFGuQxef/01XH/NNbjumisRj0ckqdFXn3+GXj16eOJcFe4aoC8AwBRyCi76BLyeIYPjL+BM81jFIKsRdIHYMaefBwWNnoDXgAPrSrBIweYrsNoICyZUAhRAHVYRZMBG8Bo2JFTyMvi7E8P20XUREsaA5Z6fnj0H4449XhhGJkoiQNCoKfdyFug6FlhngCD0PAVR3oDTiYno/rBDxmL8ZRdj8KAtEGEIIFMUi6/Q0JUmy9lamztQrraAKtXpp+i03JX4tKcFBgXiJY8lsNkOdUG3k9GKAYJ/LT3W+DmtG8G4P3xGIliLQX2n6UwOzHtAgHDdDX8QKNK7d18MHaZRDHwRVDkGYa17S6f+orJ6ChBsEiDmHlnw2mu4+qorcdMfrkM8HkZEMiQ2S9ZRZi6kCFccApIxXNMT66JsEp9ZkMDxG7SgHBMUGRsgEBTiKET2GITAmhxgLozL0mPbNIxanIGWHhNfnr6v7o3gmDTttbUV7BVtxJCcJ6BYlntVlsKyHXSPiAskEpMfhjlSg3DUuGMledKee+7thUQ7iNCph5G7uSILrDVA0IVeKUCzHxDaTghKKQqTx5jRB2Py+Muw+cCNTZEYkRLq5GN86KV5IitjFMwVlNMvoDvthKXJYazMWY8JTkJ2hxYs9lKwgwmAkdYAgoY7mpf1meaoxVBBGKMjqNyu69EL39l9T9w85VYRTLFo1PCtt1athPhVIw4glKbDdLqzBAGCLKUSqQMsWPAaJo2/HNOnMZOi5DpGxNv0a5+XRU/CB9W9YPCBljRfIUBYQQRSAISvrpF9Nk6vJwu4iA+DrjsfrMtINoDBAhodY4VuQDnOAxSmDHtQ8CiDUkcmz0dwQB3GnGefw4xZz+CY40+QGhQj99BUywLSjVvSuRhW9+m64zqyBdYKIKiAz6RVtgxCLquCJQ5tCoxyGRx6yCGYeBmLNW0u5Z9FWMQyyaL1sYO/VOYrYgwK2AWrQfD3QBYcWNrRZwl00gj+be/XBwpBAFHIVliAoOfwE7RYSpPASeO/NFySf0UiMZmca+q6Y5fv7Imbb52CTDaLPn03wuAhQwJhlo5BKFVv6WznKQYIlgF4/fVXMXniBEyberOwePzJihtQRX+2FoMpAK28gRlK4cAumwcWMAgrJNsLj1odO7cGxm2tBNFUyHRTOCbtuPXdg4U6huD4tcf6WRb9WgxyHMGBRE/kvWqOT8yYheN+dAJC4ai4GPhdEUoagOEAwuo8WXdMR7dAyQCCTczC3OuiVgYwZvRoXDHxcgzcZABCdDsI4+Cj/OXdAKUyp6VJA+cL1HDwN/N+WuRCgODTmDzWRjT4DIIvqApqGHTH4rsYFCTo1Tyfp1CfOalUJ4Ip0puClSKoreuBXXffG1OnT5c0tKzFMHSYihR5Xk7ozsVQqj7S2c5jF2bNiqg74xzeWPA6Jl4+HrdNvwWREHNwsGCYsn8MK7QhhgSowgYGypMrQDC77MD7pbac1R/448fs6gOCwCCICB7f2li25wm2M/gdSYAWdEkwkslEYjGr6ew58/Dk05pqOR+KYsSIkZqZMVCLQcejUySUui+487UvC5QIIOgu2lJ8DCkkPTl2zFhMvOxibDloc4QlcyHjpE2RlJIzCMWGbW3wFu5uincZ/q5keYDgf1bsfii8bmsuBjPFem4MsRSTNXilq7RQDGsxkEG4dfo0BQh9+2GYAQg22ZMDCO1rALWf1iwPEJjZkImSJl5+uQCEqCTtMjVRpB6DKVduMhnZaCQLCtQrZ867HgFCoaagFbbAA94+cFjRWF2ejTB3YxZ0fm4Bgs2DoO5FFSkSIMycPVdEisccdwIgDMIeWsPFsBgWVDmA0H56v2vJ+rHAegEItmLc2NFjMPHySzBoi4Emn4DmIvDpyrZF4GsCEIp3KstNanavFaBCLe0bBAi23LOmktV0y5IaGmHUde+BXXbbC1NMsaaevftguFfuWfNHOICwfgZCxz+rDxB8rU3eaBDG47Zptwg40J6mDAP7oi9HpAXIIPhRCV6YozBcwSLRpbVWqwAhWPRMNIo+2+czekGXYSHrYI8pZiXs3ysu95wQDQIZhGOl3HNEAIKKOZ1EsbRP3p2tvVugBADBT9ajDIJfUtYHCJshJJWOHEBwAKG9D4mO2r4VAITXX8PkCeMxfV0Ago7qIg1C6ey0QoBgBYRFDIIDCKWzvTuTs8DKLFAigGBJSTNJUUEteRDIIFxqGAQHEMRvaXdCjkFwI7OkFmgdILzRCkDQomK+LNEGNGoEgy3dru/6iY82LEAIMgbFLIADCCXtOO5kzgIrtMAGBQha7S2YcKVtn4xzMbSt/d3V194CQThg4bn+VqeB/RGAMN4wCCF1MShA8BN1WygQBAiFeRD0r/X1KmYQWnPfLR9VZCOhzN0brYTVJjgXw/p6Wu68XckCJQIIJhOhl2mQMdjKIEy6zGcQCBA0rmrNQ6HWx0NxAGF9WNWdc0NYoDQAQUFC6wBB64kEGYT1dV8OIKwvy7rzOgusmwVKABBsoiSbYtgmaWkNIJgJZy2Sqazbbdpv292Vv+uwO47WwxyF3PTCHINUpxMpluaJuLOsnQXWHiCom8tyAkG+wWcQFPC3DhBWF9wHUjCv4hZbAwjFLgYbQcBTORfD2vUZ9y1ngTW1QIkAQpBBWAVAKMiDsKbNXdfjOxtA8Knf9UcAr6vN3ffXhwXWBiCEQyYHQgFnEMwvajUIwdgGP9LBwOrVvB0HEFbTUO4wZ4F2a4ENDBDoYtgwtOXqWLxjuxh0j6cLhQu/Wp3n3ZmOWV2AsMBoEBjmyERJIeqAAhoFLavm9yMrUrS9S9kGU6JhPRnQuRjWk2HdaZ0F1tECDiAExE0rS5Rk7VyciCX4HR5T+LnmOpD3bYrWkkUxOICwjn2/Q3+9dACBfdOvpxIECIWpltefcsgBhA7dFV3jO7EFHEBwAKETd+/Oe2sOILgohs7bu92dtRcLOIDgAEJ76YuuHWtgAQcQHEBYg+7iDnUWWCsLOIDgAMJadRz3pba1gAMIDiC0bQ90V+8KFnAAwQGErtDPO909OoDgAEKn69TuhtqdBRxAcACh3XVK16BVW8ABhNICBKqIszlINcfZc57DUzNn49jjjwdCUYzcg9Uco/pQikpQ+6XYbUl2F3C86t7rjugoFnAAwQGEjtJXXTsDFnAAoXQAQZMwaTRHOBrDnLkECM/g2ONPkPdG7jEKLPEcDoX98tfBZ2FKSdu3XBloN1Q7iwUcQHAAobP05S51Hw4glA4gMMwym8kiHIkhQoDw7D+k3PMxxx2PcDSO3XcfgUgkYupXaDezICCbzQp44DnsbwcQutRQ7NQ36wCCAwiduoN31ptzAKF0AIH0QTbLInJhxBPleO75+Xh69lwcfsRRSJRXYvjwrVFZWekxCJlMBrFYTFI+84f/DuZDcQChs466rndfDiA4gND1en0nuGMHEEoHEKQMu2STDCObB1565Q088tiTOOb4Y1FWXoVvfWtnRKNRpFIp5DJZxONxDxCQWeD37W8HDjrB4HK34FnAAQQHENxw6IAWcAChdAChmEF44aVXhEE47IdHYFljM/beex8BBQQI2XQG5eXlBW4GyyhYcCCAI+TEih1wWLkmF1lgHQFCSAaCrRWft+Vh8zmEbLnnyy/FoM0HArksIOWeu0YtBhU+kbZsLdVyTsRO+XxIKEpNdRtGXfce2GW3vTBl6lSk0mn07N1H6E2+1McZQirVIpOV8YS6WgxddEivDUBgsabwatZiYK+1VR91Ney8qZYtQAiFI0iUVWDWM/PwzNznMO6445BsSWO33VSDkEwmUVFeDuoOyCjYFNEiYAyHdS4MRDl00a7pbrsTWWAdAIIKdRQg6AJGUMD/QICAPMaMHoOJ4y/G4EGbI5tOISJrpX4mAynkl4reUDYNovvWijUFyz9rm1juWcvj6tjXtuuPv4uxk4N3Tv3Q3KdfiyH4XX6Hu49QKCK2qK3rge/sthdunTYNyZYW9O7dB0OHDUcoFAbL3ypASCHhAQRa2xZqcjuWDdWH2v11TDln9ro3FryKSRPGY/rUm0GdHbJZGYfsLQSn7FNyOMdinqNTP5O3AmWcSgsQ9OzcZNsxpOMiVzTG7LwSkkWZizDHogXLqgHImoXZ1EGxgDxwLpmSeH7z4PQ6/hiWMU67ROPyM3P2XDz/wosYPeZQVFTWYMdv7SwNbUmlUFlRIf8mYMjKpiePkAEHwborHNtsWzhMo9tP/Ptp933INdBZQDcJ+fycOXPwpz/9CTfffPNqUWO2HrsFCBkZCGGddMwOJRzKY/TBYzDh8ouw1aCByGczsk/mriRsJwYDLtrySXCikF28rVrnTSI+ELB7p+ULNRXSnHanL+ciqDATdd7svgonJR6i4IMAgGxCtzplEKbdPh1NTU0GIGxNJCbH0N4ECGQQbP09O5X7U1BbWtNdu71YIJvJIBIJ4bWXX8DVV1+BKVNuRCQMcLkSAMAFl/3KhPazSBNggaiq8gn4BRDnciVjEJR6t0u1P37sGAwCdB0XCmQikTDSaRMxYMSBnGs0ciAHGWNmoAVBh30ewfP6GwMf/PNCHLIECM/Om4/zL7gYPXr2QiQWx1MzZqKisgItyRYkm5uFRaDhyCJoaIMyCAqiFKhnc9wI6b9pZxfl0F5GhmvHmlhgrQCCHWAWICiRziVL682rqyGHsaPHYtLES7HFZpsiGg4hl0nJYGFGEhmw3L2sSWvX8dggBRhczO3koXS/BEQr6pddgCqVi1957mQC1RuDE1EQIMipPHpWJyQBJbSTgIOITEycYGq6dccuu+2JKVNvRUtLC3r16o2tt9nOXEePSaVTiMfUxVBoPccgrGP36DRf1912CPlcFm++8TomTRyP6Sz3HAGioTxSyWZR3rPjcfEPR6MCVi1nIIYwO3qCDAX+a9+/gmO8tbMUMnl2d28roxqmkuAlMBYFZ4QgLrdIVIWCCgyMS88wBEGWwo55f0NgAboyeeI2QBhz5s7DI488jk8/+wK/+s15OOfnv0A61SJg4NjjjsVFF10kJkolk4iXVyCbSSMiUQ1k+SIyXmnPSJhjO6dzHnGE0yV0mjHWVW6kJACBAyKdSSFGP11Lk6B9sgSHHHI4rrpyArbYfFPk0ylk0ml5PyyoOgwux+vPs7niR9jabsK6HuwgtpNREbFgTkrgwMk1yDLoR0GWwboYgkCC57XAQ6+lICSby4vmYM999sNvfnsB+g8YgKqqauNi4ESjcdaFAEGu6LWpq3Rad5+rtgBBAgHkm2++gcmTJuDmm36PWCyMeDSPSCiPxmUNsiASHEQZppfJCghobGpGVW0N0i1JRCNhod6FRqcbzOyIV311MxZWcKAs4UU7Ax2TvktOP1fXQjyeEBr/04ULUVdXZxgF1QQkyhMCpvmSxdlzHRReQM/vA/7gcepC1DmJYY5z5j6Lp2fOwrHHHY+fnfkzzJjxNCoqymVemzZ1On573vkkDVBRWY4XXnwJ3bp3F3ASi8cRi8UFFDQnW1BRXinjlS5BzhXaRmUC3ctZoCNYoCQAwXjYheprTjYhnU6hqrICY8Yciosv/i0GbzUI+UwGiXhM/ZoiU1DacoO+CtnNwGRClkAHcCjMHZMRD1q/pfEWiMJC2q5uCe9lJh8fIJgJMJ8zO7OgbkGvxQmKfkzu5DixLVu2DDW13TBiz/1w9z13Y/HiJejbbyMBCNzVaOOAdDptGARffbBBbegu1k4tUEjbk55nZ33l5ZdxzTVX45ZbbkKysQHxeAhV1RVoaWpClkwWgXs2h7LKKi/Rjyye0kezCvZl92627Gt9954CQIe9EHVmzHlND+h8zC6cC259/TIZkzU11aID4G4/k2Yugqi4FjiOFHgbYCIMnTmXGcMyqoUR9Fm8ArYQYWEjyssrMXP2M3jyqRk4/vhjcd111+KYY47BQQcfiGRTo8xxlRVlAqTiZeX43vcPRFNzC/L5MMaMHYu99tlLxucOO+2EpqZmlJdVKIMQSK601iZ0X3QW2MAWWGuAYNupFJ5xKzDhSC6LZLIJZWUJHHbYDzFx4uXYastBaGlu1mWOlBtRtBH8baj7LXZlWGwi1KoIJo0wwgxkbZ6lLQMbHjOxyY4kcFKPDbD6Ay9tu90ZKYFLW3Gy4iRHO2QojopEEI1EES8rwy67jcCUaVPR0NCIvv36Y9hwAoSQzyCIBiFh8cIGx1gb6nm566yJBXwmTvutj7xff/U1/OxnZ+CUn/5UFvxcJilMXyqVlJ1ueXkFt7VIp9KIxsvE7ZdJpYwAWdk+9lnkDUhdk2YFNwDBseJNHgb3muYrfjcLu3HLEbDns3kkyuJobk7qIo+QMpGhkIAc/pvjV8eWvgze98aJ7kZUC2AZPW+/kNf3OQZDkQheevklAeJHHvFD2ez86Y/3YP/998YhY0fL39KCSEQyLyZTaWENeM4H/vYgfv2b8/GtnXfC/ff/DWkZ4xFEqE8wLgbHHqxJB3LHtrUFSgIQ2PuzOarxzRDP55DNZgQg9OvbDz171CEUUoWyhE6J/MCopzeoBXw6Prjb8AWKIRnQIjgKvqyQQOchxQV2B1TA8PthTsW3ZTyjBovQP6wKck5aYVK5dDNkM7jt9jtw2513yMRNkdSQocN0sjMRIyJSjBmAYNToG9SE7mLtzAKF4ECJdOPzRgiffvopfv/7P6Cmugpff/Ulkk0NssMliK+orBSg+uyz8/DOv/+NQw87AtVVVUKLa9/U8SrRScUIezWsUCBb4Ngv+o7923c56EV8riEv7Xv4oYcxevRByGSyqKqqks+52w+HVTtBssSEXZgr+MBezu1hfz9WM7gn0L2BioUj0agwE1tssTm23347Wdy3325b3HDDDeg/oD+OPOJQNDUsE9s1NDYhUV4hrpqmZBJzn30Ory94EyeffDJ69+oDhk3y4gIQHIOwGj3GHdLeLLDGAKFY7a8LLal0+jy5082JT5ATzIsvvoQvvvhCEP5b/3xTqEpPcacjZoPaw+4YCq5qmANOOqLqZrSAicjwOUttZvDePa+Cmc2Kb0V3Kf6kuPw1VaSYSDArm7oieH7Skvvst6/4Xnv37YehQ8kg0FTqu2xhHgQCBKVg5JfblWzQbtRuLmb99naBk110ACCQTv/s08/Qo3t3GZcfvP8+vvzic8TF1RfCP//1L9z/wP0YNWpP3PPn+3D5+AnYeJNN8PXXX2syIIYQmrDlfHgtEEKAzGhNd+CNiSI2TvGNMnvNzc340Y9+hG233RaXXHQxki1JhGX3HhGQTe2ODgTDKDD0sOBVAEOMkNF+hQhbmQcJW6TeAiG0tCS9cEZGE40YsRu++vILnHH6GXj44b+jJdks81uWIkmZ6yKIxRP47W8vwp5774X99tsPsVhC3lfhogIEG8lg/x2MbHAAot0MK9eQgAVKAhCEghRhAdDY1IiyRAJJKqXjMUSjHHg5PPvssyICorK3YLFdu3lnzR+i7LaN7j+4HbLzh11obeiXtnKlO6eAV2J5AGFnrQJpl94s46MjkSgioZDYZ2n9UiQSCSTiCUmQZEFKjx49MWirrcxOBEKBCkAQF4MDCGveCTrfN4RWNzH3opgnTR5IWtDclJSFlFqC9997Txa3RYu+wdlnn40ddtgBZ599Dv58732oqqnFTjvvgr79+okehh1fIvcE+JOyXz6SZ1XWtOG99jhvqfa8c2bwF7MLYXo9VAvExfWQQw7BHbffhj/84Q8466yzZHxILQSZd3QRlnv3pTp+4iL1avo5W4yGSBAFB7BxkapeOCzsSnNTk5x/0TffoHv3Ouy2+25obmjEo488jA8+eF9cNgRZyxqWyfhNJMpw/98exEcf/Q+nn3GaMH61Nd3Q2Ngko591HKwI2toi+HdQGL0ce7kqI7vPnQXWowXWGCAEF3c/pjkviuKysjLx0ckCKMBA/etkFBa8/obE8PsDQ3fr6xA9tcZmCSYzKv5y8WeWLZA5pIgesH8HwyaDoVor2w1wHpIIDoocmXylJSniK+6UaKtgZEP3nr2wzTbbCsDiREZwlc6kNf46yE5sYCZmjQ3vvlByC7C/2Yx+HG/a55RpsrtW5kLIZdWVJfkCchnsuut38Prrb2LJkq/Q0pKS6oXn/urXGDfuWOy8625IpzOy+ImHQfqYJiPicWujKtZIpcKXZkxRlkBAewCw2zmFjKQAm3AY/TcagI8++i+emT0b9z/wN9x0001eorU0oxxiCS9Bm6z75vwW1DACQzcHPiBRF4OBLIax4Jik9oDvcqwJq0BxdSKOVFJZ0euuvRZl5QmccspPBWzxs3nP/QN33X0Pevbqhd9dcw3eevNN9O/fHxUVlZ7NNCmVH8EgUSbGbaibBmUx3MtZoD1ZYK0AQvEN2CxnkiYkZJMlWdUwB0bExBmz6plOZOI7FOfhhn/5OdX8axdMIJam9T5eG5qj+DuF7hSZf1WUYQUNSg8bBTYZBsm1ZNTXsgBIAhablMomuXF53zd8D2o/V6SPXkF4UkWvGS48EOGcpAduasL//vch7rvvXtx159144IF70bdvb1RX1wjAuPHmqehW2w3Hn3giMjkIA0FXmyrv2QEz8u+cyBXXzCVoxYCtgfFVn0kFhwyz3GTjjfHRRx/ihfnP4557/oyLLroYNbU1iMbi4mJIZ7KmoqJWVrQCYN2Na0QSQXlrrji2UTIimmRGUWE4leKwGwDNY8Doh6yM0TN/diYOPPAAjByxGxoaluHIo47CM3Pmetf6/gEH4A+//4Owgv37D/AAkAUIdFtIHgrwOelvey3nLmw/Y8u1ZC0zKbZmOBvfH5QY6XEKFGTHYLKiCTAQ9NyxHkFrwCJ4B3bnYnTS5iP1Cuu+xr9hey7uknyRlB6hk4VJxMgEU6banN1dFSRXVv50jSfvjmV519piCwSzmXKhV5Gr7krJMNHFN+OpJ2UBe+Cvf8EPjzgMY8cchOamRlRVV0tWwC+/+hp3//EejBi5B7bfcSeUV1aL75xuLoYkS/4DiRlg92LWwDUfsK1B69bO4oU8yjX4LU1QRsC82WYD8eYbC6Sb/+P5F/DC/Bfw45/8GN261QkQIn8igFoYByYq0iRFHjPhuReXDw22URNSEcWABBlnqgw2CafUjUMGlKBr6tRbxQ1x8o9PxuOPPYqXXnoFEyZO0I2Q6DZCOPTQQ9G9rjtOP/10DBs2TMAbXa+NDY1IlJeJG6d2kn/WAAAgAElEQVR79+6BudGmkG6bTZMbYc4CrVmgJAxCMPGQouGgIKewgIkV9xX75Drf4/HV5RYgBO8xCDYkZ7sIzDiBMcmUxmt7CIp/SzhXEGJo2KQv317zybvz2bzr3FGQlrfAgG4+/vuJxx/HRx9/hC8++wz9+vbCOeecIWGNjDSKhMJoaGhAZWUVnnzyaTw773lMumIS0tk8QpEYQpGoiGdjTKIkCyujj7hArp2LYXWfSHA8qKBR8zAwG+Tmm2+BBa+/girjy3/00cfx9jvv4tTTThP/P8J0zWnKZepz1LVpBQkKzFe2MxewFditBEeSZfr4MZkJW//h9tvvEI0C8zKQ0RDwQJuFw+JSZTp0ij1/f8MN6NatG767//7Ycsut5LjKqkrPpaCpopUFDIoYV9du7jhngfVpgZICBNvQYgGO9c8zOsBzMYi6tzMvajYru7VKYWJkj0GQuGxLF8iexYAF46MtCgf1dznF+7nObMv1OQQ67rkta0dgYBcY7nBnzJiBU3/6U3zw3/fQ2FCPyqoEks0NsgBx8eKiunRpPX53zfU4/PDDpRhRJJpAOpuTBEA1NbUmoocLtQGvIhYqbR/jKQtZN/9vSdmepyagBUOHDMHb/3xLWJGyRFxEu888MxcPP/I4rrnuWqRSaXlPsy7GZfEldR8EBSsDCMJXGABO3YJl8axkQYsusRZEWtwMPIaC4vvu+wuOOOJI0XIwiyKvSy0R20AWp7GxEV98/pkItP/z73/j888+xy1TpkgyNrbPakiC86YTKXbc8dgZW14SgFBsmM7PDqx9VwhSrkpvqtrQiqZEklBEiQa/U7y7WfuWuG92dAtY7Q9/iy89Q7I9LwvUm2+8gXPOOguPPfYQmhuXobZbDZoaG0T0Ryr8rX++jQsuvBj33ncfyioqJKcA9QfNLSnxnWuCJNUUlWI8L6/AKXJGenpBe6TWdcllMxi4yWb48IN/o37pEimURLYglcliwRtv4TfnX4iZs2Z50UY8hi4U3oMAKMseKBXgP/IC/6bCdevcMMofDxDZ+6eAkyJsnpsuAuYqIQhglIJUmpQMlCp0JFDjOeNGY/Dhhx9KquiLLr4YM2fOFFE3v8NzWbFi0G2kTOyqAVkpnk1HHweu/evPAusFIKy/5nb8My8HEFq5JatYWJ27XfUUsjpnccd0NAtYF4NV3lOwp6GJIbNAhfH111/hqCOOxKOPPCQFhcgGcMGKJ8rwn//8BxdedIkk5iKzx4Q/6qIgTa874MJFKugyW3Nr+f3UZyIKxkIrAEEgRDaDzTbZGK+/9gpqa2sp95dIC4oTWTehoqYOyxobkM3mkUmnTFh1RvI4cIFlvoQVxip72iiCdBvGaVtqCywxBTPPGxP70C5W50ErEJzR9UCb8XP+1NTUyO+KigqPteHnBA2LFi3C4MGDMWrUKPzlL3/xmB8+RykWZUvEG4BAsEEgYSMcVgc0rPnTcd9wFmjdAg4gbOCeUSzaMg6GgIBx9WosOGCwgR9cO7ucH4arKn0uYlxIuMhYH/ySxYuwYMECTL1lCm6bPlUqEjLaobqmBsO33h5vvfWGlDNm2uBkUnfGPK8Nt7W7Uw3R8/fX62aK5V0VsigWAQTqDwQg5LIYsNHG+OSj/yDZ3KTRUFLNlELnCLJ54KAxY3HffX9FbW0NIgKQUppCmmu8qZmycheDjSYSSGSoDW2n6gLUfcFzWDGodWPQZcPwbmsr2u7zzz9H3759PXcDv0emQZgZs9jPmTMHDz30EH7961+LRkEKZ4XDcp1gYqUVtTv4/FeXbVi35+a+3RUt4ADCBn7qaxMwWdxEBw428ENrp5cL7jYtZW0XFC4yz82bh0svvRjbDB+OU085BZtusjED/DHjiSfwwN/+jtvvvEtksSzWxOPtwhTM76H/VhV/6V6F57Ig2S7O6tZQgEA3w4D+A/DRB/9BPpsVkJAoK0cy2YJIrEzAwhtv/RO/+OW5mDZtGgZtsblXullCF6Wkuoc+Cm/BuhxMVlL/Qx/EqM5DQyT9SC3NWxAUGPK7wUWbxwcXe/t5MPfB/fffj+uvvx7HHnssRo8eLUAhqKOw15DcDCHVLYgrw1zbMhiW7Snd83FnchZQCziA0EY9YXWBQimn5Ta6VXfZ9WSB4A6fi4ikCg6FxI1w55134pVXXsEN11+Hl158EU8+8TgOOfQQ9OnVC1sNHoxFi5eYUOOw0PUr2rVqOgQbUbN+eqOQ+wVCG/ryFSDQNTJw04F4/723gYwmYMuks5La+I9/ugctqSzqGxrx/n//i+9973s44IADhAERDYCh6y1AWDHIKXaf+G4Gew4LBoILffCxBkGVPcYu5va6xcmS+De1DFOmTBGXCI9nHQcLLggImDOB98LP+YzZHrorLGvgNAjraXC50zqA4PqAs0BHtYDuVlVaZ2P0bS2BO+68A/VLl+Kcc84R10N5WQLz58/H4489JrvrPn364GdnnimixKIqR8szBfY66zGpmQUIvpvBVj1VXcGwoUPx8ovzkWB55zzw1JNPYt5z87HxpptKkqQ+/TbC4Yf/UO6VdH/QZ1+8iK/p86adbUZY+91iNsG+H1ysgwzD/7P3HWBSVMv3Z3LexJIWBARFlBzFSMYcQH3PQE5mBUVFQECSAVRQEQwoBlAMvGdARf2Jf/MzR8wSJCh58+T5f6du35lmXCQIsrvM+OHuzvR0uH371qlTp6o0UEhPY9T6BQIBsh9FRUUSarjiiiuSxzSzEBoEMlShtRDmc9rTa8tsnxmBXY1AhkHY1QhlPs+MQKUcAeVys14Gwws0GjQmjz76qPxk+iINj4570zh98803uOiii/DFF5+rBkOGwl57vNor3fFytWu/f9gDuQbjECmAIO9KnY9YLIImhzbBa8tewfixN6KspBwnduuCl156GQseexSNGh2K4pIy+P0BAQiaoqeXnR4q2ZvbaA4rmIEAfzezLrvy5M1sDxkBrRvh+/oeEQA88cQTIl4cMGCA3ENVHTMqzAF/UvPAjpbch5nV2LchoL0Zqcx3quMIZABCdbyrmWuqViNgNj5JyttoNESAoD+ncWH31EsvvVQU9Ey7Y16+2036WpVPXrV6jTAILITEwj664ZixuwrGbf8DBH2EFNGvfmPRY9YdqFdQD40PbYBFixZKKievbdjwEbjjzrtwRLMjjfLSSuDHl47JV9aaAhp08L7x/vB8afgDrHAZCkmL7kWLFkmYaMmSJWjRooW8V6tWLblGAgoN6ioCQWaNgj6W3i6dxahWD0rmYvb5CGQAwj4f0swOMyOw70Zgx0wCJVBT3qIyq+y9QG/ypZdewrJly3DHHXeIZ0klfe06dZM9Cijq4748HrchukudI0GGpARWSBIcCICgqoTyX7C8XM5LGXv2Q2BfBQvOv+Ai3HzzzWjeooUIFtkmPTc3VwwuXwQR6a/K5GXzXmhDrusf6AqMvJ+8DjI8xxxzjNxXsgY600HPgb8SSZq1ExXNxvQsiH03YzN7qk4jkAEI1eluZq6lWo2A9oi1IdB/m3PiafSYMrdgwQKJY5OGJlVNUZukBNod0luBDIKq3EfqXQ2Tah6kft9/AYRd35Ida4OIb2xkBKhqpAQEUgxKekOo1tMMkTRv3gKffvqJpDSymiINpxbxpTqjGte3T7Mwdn1Nf7WFui8qHVVXXyQA4L3kvePn1FJoQNO+fXs0bNgQM2fORP369UWkmA4AzAJIrVvQIEBGVNI1VflpDTorE2D6eyOa+fb+GoEMQNhfI5vZb2YE9sEImBd7cyqjFr698sorePHFFyVdjkaHhlH1WvCJsRFDQ8MgJb1TjcBU59Udyxftg9Pdq11UlNFDEKCFmGLYpODojg3ejjiiGX744Xu5ThZ44vVrpT+vW792ncWwV6e911/Shrsi3YI25Brs8CCcA2SEZs+ejQ4dOuDoo48WoMBr1ToS/T2OlRZrch+626dmHdJTIjMgYa9v40HxxQxAOChuc+Yiq+IIaEOii/TwGmgU+OJC/9BDD2Ht2rUYO3asvEdwoCv66ap8uidB0igZA5HOGBxoQ/GnAmLJBkYECmmtlw0veM6cOVKA6OqrrxZDqY0qDSRDDGYNwoG+PvP825nw0awn0GyRrt7I+7lixQoprkSjP2LECCnGpCtp8vp5/3ntOj2SLJIOX6TPg3TwVBWfj8w57/8RyACE/T/G++0IO+vRsN8OmNnxPzoCZk9Tp9vpBj8EB1z8Bw4caLR3DorILRwKwe6wG8K3VHVEnnjKSO5Zq3Xdp+BvXbxM1jQYYGIwKmIRVHdTVc3Q/Ltch9F4qkaNGpIeqMIlKhShyxxzfHQ4Zsfrr+hK0s9g/wVdKhSdGl0dzfd8y5YtAnR0uEGHET766CMRMPLzp556KhmqoIaBQILAgGPCsIWeN7rIkg5NmAs2/a37mvlytR6BDECowrc3AxCq8M3bjVM3GwsaPRoKMgiLFy/G9u3bcf7554u3yNr/NB66xLKK0ydEf1BRgZ+KlO8V0d1mk/63zSVpgPQJ+xcAQXVVlK5lCiQYugT9uwo5QBT9uj6A9qZ5feYQw56Dg6R/vRt3ac83MQsEzffYLDpkgSReD409t6HxVyJTjxzwl19+ESHj6NGjJdNBd7EkIOK2DDHxJ9kG3ROC46ILSO16TPb8ujLfqH4jkAEI1e+eZq6oio2ANhLp6nRehjlljX8zW+Htt9/GtGnTxGPmgr9t2zYxHAQI9BpJM/N9HW82Z0JUBc8xvaHZzm4nqxDabXZ06doFH/3vIyXKZHMmU40CATlGSeXKFGbY2TXpOWAWHbKfRuvWrZPXQbBIYMjwCps/NWvWDJdddplksPAaySywbLNkphjMhA5Z7Kz2xc4AYhV7lDKnu49HIAMQ9vGAZnaXGYG9GQFz5b2k/yp9EHRBpDjefPNNPP3002Dsna/NmzcjPz9/hz4KBAd8mQGCeX97c24H4jup2gh/Dj6obAajgmQkjI4dO+Lzzz8XhoIhFh2P53nrKohVARzocda6ARp33U6abACZEoI+XQRKAwVe2+OPPy6gceLEiVJgSesw+JPAiQBSZ3bo/esxMdePSM+OOBD3PnPMyjMCGYBQee5F5kwO8hEwe3HpniSzFUglz507Nyk84wJPY8jvaeW6FjTqFDqd2VDVFv6daRJkihiiCDZiKg+W48orrxQPul3btvKZVvdrXUJVYhDMbA8v1QxstKaC18ffee/JHrH+g/6MAKFJkyY45JBD0Llz5x3SIc2pk5pZ0dkPPE46SK1KoOogXzr22+VnAMJ+G9rMjjMjsHsjkJ6tYF6stbHLy8vDunXrkiV2afwYp2as2dyF0ayQT6eNq9KC/1fNzNQ1qvALAcG3K77F1KnT8OSiRfKeLihUlYCBeabo80434nqbvwoH8LOpU6cK89CqVSucc8458jVzqqfu3KmPwzmmWYmqyDbt3lOW2WpvRiADEPZm1DLfyYzAPhwB7d3TuPGfuekQDzN58mQQIAwdOvRP/RP4XXqGeh/pXqfZmGhvcR+e+gHZlQZBvB7WfPjtt98wffp0SfvURYTM2QvpY3JATnoPDqrvpRnQ6fuoBaYVgQS+x3ACAQDDDw8++CC+//57aSXdtWvXHUJRGlQydKFFnXrfVUGnsgfDmdn0b4xABiD8jcHLfDUzAn93BMzGgIwAKWP2StACxEmTJkkt/jPOOEMOZa4QqIslpafypYMC899ViUWoaGzNrABFioyt0xiyDwXH4cILLxRDaG5SVdUAgpk50MY6PeTEcdBsiXkOmceHAkYKHF999VVpg3388ccnQxG6YiPHSaeFmpmovzuvM9+vHiOQAQjV4z5mrqIKj4Be1DWDQC+Q8eVbb71VSuyee+65KCwsFO+Y8WbtKXI7LvA0jOa2wNoTNGdFaKNT1QGC2XjqW05jxwJCrA8wYcIEYVR04aSq5g2bwwv6+jTzo4GeGQToss3mbbUwkePA3wk8L7nkEinJzfRIhqV0QSUt4jSnP+p9VYe5UoWXhUpx6hmAUCluQ+YkqvsI6EVd/6yoVS/T0xhK4E+KEjdu3ChhBQIDLTCjt8cX/9Z0sm4fbF7Qq/Pibg7J0NDxWtnQiJkM1113nfytmzWZwxGaadHvVbcx4riwmyczWzTbxPc0COB7ZKe+++47AZkEClqvoZkpDULMY2TOqjCzFVoYaQYs1f05PtiuLwMQDrY7nrneAzYCFXmH2kjpzwgA2FuBZXXpDes4O8EAwYNmCvg9/bsZbFRFOn1Pbog2UDq8wnGhDoH1H5jm17RpUwkzmL3giuL1momoLuOlDTrnBEGTDj/ougc6Q4Gf9+jRA82bN8fIkSPRoEEDCTGQmUpnmTjHNEPB72smQ4toNVOV3lVyT+5nZtvKPQIZgFC570/m7KrZCJiNlU5J1AsvL/Xhhx/GmjVrBBzwc92ZUW+jWwKbh6UiNqKaDdsOl2PO1GDohZUkOS7sdsgUP1aY1EI9hmDM7I3ZyOl7UR2YBH0t1GVo9kQbcs4jAgVdjZN/f/bZZ8JS1axZE3379kWtWrWSparTmRYNxsxgSgOQTGpkdX7SgAxAqN73N3N1lWQEtJEyt3A2e31clKk5oOiOef1clM1sARd7DQTMIKM6GLc9vUVmwR6BgW5K9OGHH4ogj2EZ1gHQWg495uZUP7M2oTqMofka07Mf9PgSbHK8GJ7ifPvkk09El0BQwfc5/8xzjoCCc02Hs/gdM1jQ6ZLpzMOe3s/M9pV3BDIAofLem8yZVaMR0NQ4f9LA6RoG2lCxwA1p39NOO02Eh9zOXPxIv2c2ctVoeHb7UsxhGi3qpCGjYaPnPGzYMFx11VVo3LgxsrOzxfBRw6ENH2Pu5nS+nYUfdvuEKsGGek7pU9FzSl+nfp8NnDiPOAa6HDfH8NNPP5XsmWeeeQaPPPKIzD1+l2OnQQHDOGwGxs80w6DrJ2hmoTqMZSW4nZXqFDIAoVLdjszJVMcRMAu7CAxYIrl+/frJODFz+EmNM5VRV0bkYk7NgS6URANHQ6e9NTPdWx3HbFfXpFkEjieZAo4NiwNdfvnlIlRs27atGDk2NDL3H9Btj7XwrqplOexsXLRx1j81IDK/z3HiP16zOfSixYYff/yxsC99+vSREBeBgGZh9PfM4TD9PT2GGYCwq1lb9T7PAISqd88yZ1wFR8AcB+fp03BxkdZ9FS699FIxZFzY2amRzXZ0Bz8uxIyzm6ncg3kxNmcmcBypxudP3bmQRYGef/558ZQpXiSIIB1OqlwbTu0FV4dxNAPQXXnz3JYhBY4LmReODZkBjo+ek/PnzxfwOnjwYAEJLERFMSPf0+EG/m5mtfT8rg7hmiq4vOy3U84AhP02tNVlx39V9HZPmgAbBfSry7D86ToSSWqWjYjTU+n0KBYWFolBI6X71lvL8eOPP+KqK68UY0Yal7Q4gQKNnX5pViE9/ltth/IvLsxsiFgIiOOlx1pT4ieccII0ttIGTbdC1qyBBmJmKr46j6UeM7JSGgzo+cU5RZaKQIFjyZ8EBXfddZe0FZ81a5ZUYeTY6pRIPVZaoJgeyuDf5vBDdU0rrc5zRl9bBiAcDHf5b10jTdvOQAIBwu6ABP393dn2b53sAfxygn2F1UglAIux8ErLZaMrIxszWo3Fc/Hip/Dzzz/jJqYyxuPizWmPjIu2eQHn3xokmA3kweitmTUIHGoCLV0jQpdZpp6DGoR+/foJaOPY0fDpLo/mNtjch64geAAnz347dLpmgwwKr1/X0NDXTyPO93QIQYsZqefQZZrPPvts+VyzBxoEpAMA89+aoTkY5+p+u6n/4I4zAOEfHOyqeahU492Kz99s9CsCAHHT1/TnlRko/BUg2sUdNAACuwwSIMTjilXQnr/ORKB3Rjp3zJgxQnlzQTUDADP9ze9ysSZ4SH8djIuuGSDxdxp+ihP1+9qrZV4/C03pCoEcZxpA/s2xNI/dwTCOmj2hOFEDKTMjxbmlx0en32ogdfPNN8scZsnvM888MzlfzQBBf1+DBw1EzHP2YBjnqrnG7/ysMwChut3R/X49u2IUzCdAj9rYXnCGRf6r/K+/Cqvs/Oz1t6KRiOGVWkglyBdiRhMdFvOpf0h9DBw4MKmmJ7PAl16Q9RHSPbGq5u2me/sVjdyeGo10gKDpbbN4jr8//fTTeO+993DnnXcm2xhzPAnMSLNXNYDwd8ayIo/erFtI1w+Yx1IXStq0aRMef/xxfPHFFyIEbd++fbLEN/evmQX+TsCWHmKoanO38q9R/8wZZgDCPzPO1ewou+9lJ5BiECyJ3Q1JVNHhMloQkzlgKIH0t65QR4M0ecoUHHXUUejVs6eRi24Xg+X2eARQECBwYTUDBb2Q6wXWHPetoqP0t09bGySOmTb0FTELTBv99ddfxXhpfQIPbs4GqS5ZDLsaVD2PzJkH5rllHkdzVoJmBviTmo/169dj3rx5khr5/vvvS7qkbhWtQxRkafQ/swh0T8Hgrq4p8/n+H4EMQNj/Y1wNj7D7AIEXn1y8yR4YHnV1GxSOiHhqgNDeXEyZyqip1tmzZ8Hv86F///7CotjsDvzxx++oW1AgoMBsuDQIMKv1dZzcvOBWtzHc3esxgwGOkTZ66SwCU0fZd4D6Dqr2+dKNrczGqjprENLHNH3+VMRScWzS3+ffujW0FiyyrwNTSzl/CXRZsErrZ3RIzMx8ZADC7s7wyrNdBiBUnntRhc5k7yj43RM0VqFhMJ2qgkwUKipAJF5rMCjagqeeekpSxa67brQsoGRSthcWIjcnB8FwKLkY6wW2okVcx4sPJmP2VzNBg6gdAKhFha84flTsk8G5+OKLsXTp0iTTQLDALBIdkz9YxlPPyYrmUToQ1fNPN3kiS6ANv27qpEuAN2rUCMcddxzuvvtuCS2QRdCpkJzPGYBQNdczfdYZgFC1799+PXt5uA0skKw+JwswhflkA2Q5VttYLSmmwFio/+S97Nez3Xc7/ysvPZ4gS2AYIqiKc2oR5HioT4qLiuHxuMVzffGlF/HTjz/h+uuvFx2CWkA9Qssq7zcm+9AV/swpY1XJ4zKPmf49Pc69ZwV19g6E6rnJcV61ahUuu+wyLFmyRJgDjrE2cH9Ozdt382fv9rRrbc7ueP96m30xd7Rx51jqsI4eQ93XgUCBbbbZTfPEE08UbQKBgVkImj7W5vFJD0Gkh4q47b64lr27J5lvZQBCZg7sdAQUQEiAqnzpA6DcMzGE6mUx/lbv8z+q93f2QO/dkr9/bpAWBopd341DGAmMaksDIIkB1ABJe6/GGCUSccy97z4UFhVJZT8apvKycgEGVi1clJCEAhlag2AW3VWl+PhfgQHtoephTnX/29nA791MSd5TqC6ExcVFuP32GejZsyeOP/442Gx28L44HE5TzQqO/25MgP2+SfpJ7Pi32RPXRlO/p0MrmhVJ1xDsrYFNMmFGyWX+rSt66gqfDC3wfr777rvSB6OgoABXXHFFMqU0/Vz13+ZzrQgw6HM2M0X7/RZkDvCnEcgAhMyk2DlAiCmBIReGOBcHo6QtFwnlMyvv2W63pRZcYgbj04p2LDrF/fxKZkoIfvmzsdlhwRQCJKFYgd05NyOEwH1EohHj+lVte4fdgZikLNpx2223yc8rLr8cFisNluqoZ7Xa5FixWFwMFijiNEIS6eLEqgIQ9BjrRV+ny+lxTq/Zr1HWvjbMyqAp/BqJRGW8abRee+01zJhxOywWK0pL2VMgy5ivCt9arbtz4/fzpN1h9xWnA+txlrnmcCiIbugFtCE1Czf1s7s3ACFdg5DeDIr71KWbeV76fF544QVpAMVww9SpU5NppjtjP3RTMgJoDTr0UOjrPVjCQP/kDNvdY2UAwu6O1EG4HZkD8RqisaS4ix4YF1W7w55kE9QCq2MRsiwZo7XjQrd3fuGeD3xyudcWyAwStKcfN9dnUMfY1UIqOgN6/WRJmLpoCORYupZV6PgeF80p06agVauW0njJoTMTbAQPMbhcbiTiFDQqGGWzpro0pvdb2NX57PnI7J9vmGPY2svUtRwoaNMFitS8UHdH3QbTjEj/ey9OlcBLh4BC4ZAAtv/7v//DK6++ijvvuEMqVTqcTkV/G5qRHQixvTjmPvvKDsj5r9gEVahI18fQaYhkRTieBEEa8OjQ197MI80emGt4mA22BoH63tO483MyZEwxpc5j+fLlApR1CWeOlS4GJk6HkR6pAYY5NGV+Hvfm/PfZfTnId5QBCAf5BNjZ5csCYYQWuI4HgyFZgOgBO5x2lBQXyyLldDoQT8SMvH+GGEiapwGE/UobpLzGP1MA6rP0SpCa0jdggRgrvQjpn2bmwfy7DgHoLoHbtm2XPglclCPhMO6++x7Uq1cPp5x2svRT4HcZrxUBooUVEuPYvHkL6tYtUOArFpPT0J6f3r9W5lel6amNCn8SINDT1V4s74HTyQJFFcHEXRXj2r1RMIeBOObieSaAe+fMkXTTf/3rPPi8PqUbMVijJHu0e4fYT1v9VQGxFFhQ46vAgaTHut3J+gN6Hun0wpRR3bvU4vTwhTboqfCQYg/Nabf8XRdZ4nYvv/wyhg8fjilTpmDAgAHJipY8b25LMEFgoTtG8pnideny2Zo5yACE/TTtdmO3GYCwG4N0sG6SiPGBj8NqswlY0A9qMMi4I4RiV7nPSmgnEXn+zg8Nu6yWfsNrVNZivw/n7iwovB6lK/xrejk9RKGqJCpBItkEjg3BEr3kpS8txa8rV2HkyCths9vkOkNBNmVyIxgKiwYhKzsHeXk1wJ4M4XAEtWrVksVSp4npsEJVolU1MBADQa/QaORDj53phRRi6m00GEuW+t2BOfh7c0OPHfftcrqwbfs2ZAWycO+9c8SYXnzxCHmP52T2jFMgZr9PzZ0cwDQHKwTTOjuDYSkVztPZGDpFVl+7FmHqR03N770LoXdYKbcAACAASURBVJhZBH3iZi9f/85z4Hjy2EzxJRhes2ZNssETK4Y+8cQTwig0bNhQWASCR84PBa6tknFSs2bNZEaPBs3poYkDdYcO1uNmAMLBeud347q50HNxYTzXblNFfJwOhyz40WgEw4YPxVdffwW/3wPaW5stZf+1o1jxkm8BP9e5AAaWUG8kUrUW1Xf/BDF26Ayhlz6h/w1jI0tigh6OorJ3EBgau1TvK647GSAxTtZqUcyDVDVIZnGoAZP1VnQLFrlepTlQ2yV4AtyehpJxBJsNfq8bZaUUJ7IBUwKff/ktPvvicxx66KECrlSdhFQ8WRsALoyVHySowWG4hKCQYFIMViIGt8uJcDgkc4efuT1eA0Ty3qSHGFKzJAGCS45u6mW+x/oz87wyc1b6pvO+ELxxYj73zDNYvWYNhg4dIuDAIaxXGnBNzYLkgS0WhtO0gTVAr6nwF89VnRufkx3PKGlQiSUT+nrMM14f35hQFmpRzO+p4/La9L7Vb4lkMS3OERpa8chjzIhRc0Z0LpzXemLvhdhDA2PNaFW0XPAzAhUyAebeIeZiTDoDgtuce+65ks3DOd66detkRgm31yCDx1FaHc4nFdpMjuUeQZ1UOGs3lrpqv8kOQCttaP4KhGUAQrWfGnt/gbJIJIBIOCoUOhcn0uShYAhOpx0XXzIcQ4YORJu2LWCx8jO1vZVG3rQAK+Otlzdj4UtYYROQoBbXGI0yF7WEXYy7wgox+SfLZoJ0sVUlTmiJZMIixxSqXrIsuK8YbHw/zr+tctw4F1/E5XMxTgIejH/JxZOIgJAgzm+BR43RWCUMI0BjYdDS3B0X4RhiiETDco6SF+72IhZJwMpdJSIIRsPwunyI0kjGLXC4/DjtzHPw3PP/QVZOFmIRUvCSxyCeEz0vDRAUGNk7z2/v7/iuv5kKHpkMF8eSxiIclutY/sZrKNm2GeFIVKW/woqo6FkMhCVslDacKRjIfSRNqaA7dT42Qy4SM3SkMr5WdUc5h8zGmV/h5pFYFE6XBwkamUQCTy1+Cu3at8fhTZvKbiMEcIzXpy7DAKgaCMYlHKKAhBWJhE3NOplL6twSnBuc7zwTzkPZ0jgBige5jXGdcp7GOMmWkh6r5rk8WcbzoSY+550qS05wwfmo5rG6UhpOCmAllCMal5h8jUCzd++TULtWbfXMaOFtBUzZ3/XMdWiBAEWLa/V7usumGUDwd4YQxo8fL+fdt29fdOjQQcCFhOtcLpX2G4vKc5Ca+groq2FVLKaCTWpSqOqsag6o72i2Rekx/vzS5d9Tz9aePWUVbW0Gh+oe/ckpMZ2Ivuu7etoqPi/jeUk6Lqmt9DiJ80NQmkzBpnYqxQAnh8kY5HQgZj6vDEDY1V06iD/XOgSluo9JFoOKF5Jej2HExcMwaHA/tGvfGhYx5HFZcK2ycGojbzjVAgAUdKWx5z8rPR5Z/OKIywLIz2zqc3nIuIgrgCBLryzSXO0UsyHvJmLikkYtCgzQe7XHFUCQpdtC8GEABIY/BPSolZuLfyyuMjSoHJTFWESYMVl+ohYuwsw64LlEBTyo67IiFo0jEo/A4mDpXpt4UhaLnZZHAErcGkVxaTECgVzEwoQaFvgDNXFm339hxqw7EMgOwOt2o3adOkbanary93cX7v09XXcECFroaQUTXnj/4rEYTj2pN3qceIxqCiQWlBkfCl7pVti87woO7BogWI3bzZnAu8pdauNrTXrnKYNIwyufJwAXGS8K6Pg9m1W+H2FYTOguNYu0l64Wdu25M2ym55kV8YTyZAVkGsZczWMFELTxVuen9kFAw/c5rxSQUXBYoRLjQwMEqPcINDTeUftWTJuBYmjwjFCew+VU4j83620QsLvx4gsvYvKUqejatZsA+eRcMmxIerjs7wJQrUHQc45/69CR3req9aF6NdDwE1AQQDz88MMoLCwUbUKzZs2SoSlqLFR3TsPsi9VThl4DKzVlDINnZBUJ32cqlEVwUDFAIMzQQGJHE7xzoJCa9Tt/vlLzOH2bZD+a5HHV8XfVl2Zn52OGI+nbaJ2KDi1xSFTpd8XIKBGrwfTqMdYrbAUOSQYg7O8VtQrvP0kz0pDGYkqLwBRHEUoBI4YPxaCBF6F9h9bKbbLQ++YPi2IRjLWOi2TcqpE7gQFBALdRSyY9cPU5X1y4uRhr42Es0vSqYFdLpSzc2veOynFjFoIHtcjaYhbY4tyPMhQxMhGSThhTT4Yq72CEEYxUNzlvAgReX0wW9wi4T4fy/BA22AWCIxoMIJaIwmoX/x+hUBhWix122BCPRMktwOKwIR5TYInH9PrycGbf8zD6xhvg9XtRIycPLVu2lLLL5kVWx5Mr49SpCCDEZXysiInXAvTu3hULHpyLBvXrIhQNCdsiDAJnh9ZuSG0tNXba60+Ix6dCDCmeyLCn9JzNDILBJAnQ0N6UMSuklJXVgVA4DI/LjWiYLE8cdokJEVAS/NGAWmATUBoVzkjmqUXPP97PiMxlgsS4zD3tudJjj8MaI1RUoEH9p9kz5fUS0EStBgtg1BOTp0BArwUWzlEeVF7GOSg/2QDSBhMn4JXjRQCpAI7NYUeUYQXj23anCzdNmITzz78AXbt2R2lpmaH/UKJGMakm/c/fAQcaeJizV/T+xJEwWkprnYfeTreZ5rbskcF+Dh9++KE0fzr00MbG+Rn3XtKn7YbRTxVhE40LjNRqhibCkWRmxI72raJ6LAbQMgFB8zNWITdgAqDJZ3QnD6aM75+MrIHydviOBqE7BMeM2fvXzMaOXEVF6hIlZOU/ggFdOEz9TlGp+lxWWiN8w3AoAQT7x6S/MgChMq7CleacdCVFwzOw2OgMKgOdiGP4kGEYNrgf2rZrobwtmV80slz81DInJtsKxAy2T7ELFQAEYRjk20mPIalTELeKC3cqZCDUrWytKH4u7IZjAXvMChsPaIR1o1YFQgQkiDejB9jwX+XAcVijdE0jsFjjslxH4EDM4gQNoA1hIBGRmDZpAwKHSCwM0Igwi8NiRZwWjJS24s/FoMX4P6GMgUB2Pk47qy+uHzsG/qwAcrJy0aZNm0oZStjZFNwZg0CjHDO83V7duyiAUK82QuFyEWwKiKDx5UIV53hxiGhozYSsCgsp1z5VTUMYBAIE4gvx2GlXDUpf3/QUylChKqtdFkObgA4dEojDLpGkGOJ2skNqX1ZEZH7ELBbE4ECCYS6EYEVQxSviDCdRt8Br4AGjAiTtUQUZOLM4XzRAsMYVS0ZGJaIrjDIDQZ4RLtBRxWIRKMv8UAwV2TL+JyMiYTojRiHMHFGNer4EVtEAMMwloQyLMAhTp9+Co5q3QMejjxFW6ogjmoFCY21o02sk/F0gaqax07N/zJ/pzAeyC9QXaIEiayWsW7dOAAKrXn7zzTdyn1VaJNM2mTYcEyZKCxolnBinKJL6h5B44ZI6SWCl4kHyHuVTAozMIURjXqltxJWpcJonHaNdrMN/Mtai+1D/5BhaBGLK3NEG2xBM7ZBllQRthi5KL1Tpx/mTETe9IQyCRVV7jcaiCJYH4XZ7UVZWDp+PguG4PI9JjYoKcO2Uz8gAhEpjjCvbiagUJjHZSnouJ0gKOR5nqMGKYYOHYcSQfmjXRmkQ1NpOj07F4YXxF2+Na6GiCrnQKZBgxH+FQdD/JEhhPDtqgZTF1ljGGfOVcAQNvmYQLEy/JEAwjEvCAnvUCju9s5iibBVAMHw8Qc+qtoOKNigmw5YMecQQT4QVg5CwI2JxkZOAJRGCDREJiURiNvnHL1qtUTF0ZFYsREKyulObEIXL7UF5MAKHkyKyBHyBHJx21jm4bux1yM3Lh8/jl9K0suwbMUM9CyprqKEigBCOxIQFYbiG06RXt2548rGHUKtGANFIEFYaYy5EBAhSXIseC+cH77bWhyi4x/uhxQA6KCHsu4ACIyQg981cjkuxU5wvNgID9sGIROByqHoH9JA4Yzg9HXL7E4jajGMR0CEixjkqBpeA0AlLIggbylU0K+GQc2egSIkWCRCicLCFN0MWLBrEEJnBINiiCpwyKMVfeU006OLvW2jlafCtar4IwyT0lYAEAQiG9kGFKrgvBboZkpP4O+e0zG0ropw3drvoLSZMmorGTQ5D67ZtkJ2Th6M7dU6qhv8OY7BTsGgg7R2pfbVO6PoMivI2tAMWS7L7I1kGbqPbbxPMtWvXVlgFerZFRYXweLyyL90Lgv012Kqb48dS5uFICC4+WyxXbhhkdSzD+Mu8UWA9yUoZmOAvdQB7kWm1w/Oa7onL/v4qMJA2wqn4ivpgd7RImhIVEZh5f1bRqDDFmGNB0bBUbTU0LOZQkE1nn5m+ngEIlc0uV4rzUQ+1zrkWaiqm9AeyUMeV3mD4kOEYPqg/OrRjiCGGhKH4Eq9M0gAUKxC3WpIMgniAhhBRLfykfJUhF4kh10PjIaaOwBZn9N7wwmlOrIz30svSEbwgLFZqBmi6WbzJagAEqWSkPHmr+idmQhgEFa/Uixc9VFLJNlmAuVVY/LgYCBDc8pMAgWyFhSl7cCEKJ6KJCKz0+sJBOPhwiVyCoMEiAMTucKEsGIbN4UQsmkBWdh7OPPscXH/TjfB4fMjJroG2bdsad1yNuZkO3h+L+t5PL7XApfT4KpxjXLEEChQEBHp06YLHH7kfdfJzkIiFBDykGAR6dykGQRXwVrS6Eilqzy61qJr9PEVSqXmVehn6FuV6C0sh4fqEug9Wh02xU/EEnASZkSiiDnpRNM5x2BLUKEQRtdoRIyBMOAEDIHBuJOIMMeh/PEYUNgIEht1owCxWRAyNjcwjhrjIIBAgcP5xVsnnKowg848Gn+AgZgBlAbCKQZBtDXuSEIBMRk49UxLkoBfNy7TZESad73DB5nBg0pRb0bx5CzRv2VLeO/bY49Qcp9doU17jvggz6H2Y56u+FxKKNMqtJ58vCoiNmglaZ6NbQ2vxIr3bb7/9FhdccD5OP/10XHDBBZISSZaBFUcJEuicjBlzPV5/bZkUvGLWDPU/FAE77Az7sa6I1m2oM0rOEx1v17TmrtzyCh6Uv7TTymPZ8WUQsAq8pNl502dK8JpcBky/GAyn8V196jpEalyhwhB6vhj4mr4dx5YZO6tXr8Gbby5H06ZHCOvE8FNWVkCErrr66c4ypjIAYe9XzGr8zdTinFwMuKjblLpFREeWBC4eMgxDBw5Ah3ZtZEFmwSQKuIz8AYPiTyBh40JpzGIBCDrEwIVSefTiZVHMJgyBenps/M+I4SvlMo0I9QZKrqYevJAieC12xOGQLAgHF+hYXIw5vfwIjb7YbwUOdJhBvE4LQCMgBEiMXii3oifHvdoQhRsxKhE1g0B9QtwuAIGRg3gsAmuCagXGE4xMCbIPQVZN9KA8GpaFnAsXBYtn9zkXI2+4Bjm5NZCbnY/WrVonO2BXVtbAvBBVBBBiEu9RGgQazF5du+LxR+aioFYNxCIhMU5xodxptY00RoM90BoENeNoSI2sEa3CNsRoopA3tcnSGgWV1WJkyYgBVTQDq1bSI+IiScMh3r3FCgfDSAkgaldzWTQMsbCEyOI2ByJwIg4NEIICHBkKUACU18FJF4MtHoXdCFeReRBISQ1OjFkXDB0oqjtKcCoggbNNzUeheflp1GDIGLrgvritARC0lE6yGYysID4rEl9mOEe2t6kxtzrgcLkxafJ0AQdHNDtKam8ce+zxsr1OOzSnDO6Lxcs8X5O0fBoIEeNlsqwaKFDUy9AA20Wz6qISrzLl147nn39eOqB269YNgwcPhtPhFK0Bjd31o69Fl64n4NRTT5YaI2RmYtEwXNLjRAEgzhMVeTJJYI31JykYTK83oaT/Rl60EaoQwKrYPWFRTZ/LvDJlBqixkKs12AKNFuhcKT2AeSy0cFO2NvarAZXCwJojVXcqmZEi2ik9O/RTk8ImfIdzX8SInM+xOM7/90V44MH5qFEjX1hNXbGV67lcIUNraSmlen5kAMK+eFKq3T52pMRksorXbWgKBCAAwwYPxfBBg9GhfRuJu8fizHlX29qtStEuz4uNVKjy5lXA1Qo76WYaT+mOaEWC3hsXWlKwDEfQs4tbYI8zHmyItUjlJsKQQLIIGSmsCSvvjxoFuGBJOGGPUqgY4TJqZDEkFIuhwQhXeXnIDK+dC0AcsAvbTXlhVBTvkbhFgEDcwtoPYditMdkvFe0xeZ+hhgjsJJ95HVRsCyNiQTxsgcPuRHmkHBZB6hZkZdXAmdQgjLsB/qwc5GTlST64OS1JLw6Viz2Qs1IemeEmpfLzRdevRIrGuJ7Uoxsee2gu6tepgWgkrMp0c8JY7UofYBTUEo9YUhI4nxSdLsuiCAe1bkCtuXrhV8tuyv2Tu2h4TbJfpqpyvhnliFXIi962KvZlo43mPBJ8IJwTLHGmmxJE2hCO22C1eRCLh2Dj3CJopEDRmG8EwaKY5/2Whd8mQsQIdQWM/QoTZZP5xDlGtku+wX4cZJyMvhyc/5LFIwSaUZVQhJgEKiosIiNlhBeUIVE6n6ghGBbdB8/PAAiTp96CI5odiZYtW4sh6Ny5c9Lw8lp1xUKzMf+nly5tBHWlS93DgUXDGLY0V2ZkpgMzHrweD6684kp5TkaOHIkzTjsZJ554PEJBFmVyyRxTrFQqL0CxJSmjrjKilKA06Ylr8CLZTKrmQrKAmhGbT7IkRsZLkhWRkKbOpEgmXie9f00oKECU6pmhn28VEVAMnM4u0OuAPkYqapASPyoGlAySIbhOEhdGYz0DDEtqcSwOny+AgYOHY8LEmyX9laEyMjM8YwGMSWGlqmWS/soAhH/6Cakyx9uRRUh5CxQJqQWdAGHIwEHo3KkjEtQlyCJvcHxJJW0KIRNEixdvkAliWMXTt6rYr8OFEMKIWyNwcFWnoU84YCM7wBi/sM9RxCys+07an8s7e9Urbz9hccMad8ASpR/I+HAU0XgUcRooepW60ZKs3SqdkQ+pncVl6A1EVQgiSvfPSsrSgmicRo2MAcWH9BwZZiAYsiNqdQp9bImGYWeYJBZBwsbxoSFywAY7QiiDxU4DaUUWsxjOOkeyGLJyspHlz5EQQ9UGCIaOz7DSnAe9u3fDwgUPoE5+tnh3YpwFBCoPnPoDLug2EakY6Y78TBJWFARIFhdiwRwjJGRjiIlxfzJZBAIEpaoohVrgFY2lwglkreiRWm1SR0G0pcbn4v3JYTi/6NQzxEBwR4bKjhgttGgCIgY6YSiCLBLpfWoI5K6D9L8AIzlsRFJ9E2S8CBB4vDjPNSY6gRgNCucpz9/CuRuHhT1OjLohBJBkT0TLIJk3WpnJc1S6DWHZkg3IlAdLXY7VZhcG4ebJ03FksyPRqnVbESl26NhRPHKdH8Tr1oLBdM/+n1yWaBB1gSfd00EawCUbbanyy1xzXnzxRRQXFeGP33/HjWPG4PrrRqNb1xPQvVsXxGNsWqUynmQWCkBVAJCskUr1NDKkDQ2IVEFVqtCks69YJn4fBkuqQKgGUskxk6+prBBdV0AoehEm6txBnSWldDHKt1K6CLlWsj5GZVGZgUJJGeBbMn1Sv6v0awMMG8yaAA5jbVVYOcm9GSFTlUorIT2uOTl56D9gMAYOHIK8GjURyMpGm7bt5NrlOTL2IeAgPUSinsNEgt23Fi1ahHnz5lUpRfU/OakPzmMZk9UkNBKiVK22GD5sBP73wYfwe71wM+0qEsLZZ56BSy8bIZOPPRsYHyRwcNB75AJpiSIUiyIcCiI/4MOm39bju29+gDe7NuY8/ChumHgjDmlYB/FwsVD+bocXpaUh+LOzUVZUCKs9CpuTqNuGRNQKj8+NLRs34OvvfsaYsVOEjXDbEvDY43hswUPIycuWlDYLv2RRLZfdkvoWgsOl2v8yrBAuDyJSFkSNegUoLipEaXm5MAA2mxN2pxtFwXLY7Ra4LVGsW7kaq1auha9GXcyYdS9m3DINfrcdXo8doVhYtg8Xx+FmW2FHEJu2b4HT5UdOoCbO6fMvjB47RgBCXk4eWrVqZTyjqUImlTPUsCODIAbGxCqQ6hbmJBJG7+498ORj96NOzVxhXggoJVpvtcPp9aCkqEjofyrV4+GQVOfkNQeDYbh9PoRDIVn4mJZIL4jfiYRC4pVL1gDZAX5OoZWdnrlqoGVn3kFpUKhoak7sLOkbCkq2QXl5CB5/QFTdXr9PFmkQPIbDsFnpTVlgdbsRC4YRCkdgZbdEqxWhSBiBrFwEi8OIE+xYqMVhqmEcoTBEbFpYUqQ0C1bGxH0oK40IWHHZSZIVgymIcasdm7duRW5eHkpLyuC22+GyWxAuK4ODjbxYOMzhxvaSMji8HgG2FLvaGK7inPV6EIwqdoqjQGqedQVyc2pg3YbfkVcjH1On3ILDDjscbdu2F6bn+ONPgMWWUtVXhjVMpzzqnymgomhuAkf+1D0aGIaIhMJ46slFePTRBVi9ciXmzr0HXU88Hi63A0WF2+D1uCQzxmGzixEWfYI0j1KGm4wSmU0pZx7wIVReJuENCvaUNsPw8I1KoAR/qpqjRUpAsxy0puA5T3lu7GCrgINiAoTSN8IQDCkoCZYBMkQWwywn1dFVRLRGC20WnWN1T7Ym12yKYhB0mCGlR1GeRFzt1xCQK7CT6gir4ALZAxV68gay0G/AUPTvPwh16tZDdnYuWrVpowp4KVoqWTq+ovmRAQiV4amp5OegKS+dtiOo12LF4MFDsXDhIixcuBA9u3XDH+vXYfHCx3HGWaehfaf2UmXQaWfxoBhCJWVSFyBsjcLt9yESCyJcuA0fvPH/8NoryzHiyhsQqF0PgfxsRKLFyPExBBGBzerAxo1UNPsRyPGjcNt6+AJOhEMJuOwBFBZuRW5uDhY9vQQPPrQQDz/ysPjtLnsYPrdTUnsiFITZXCgpC8FhdUi8kkbIKqUc4wgHy+EkyxAKi+jL4vFKnrmXMdLCYmwrLEZO3QKUlZchVroVzy9+Ct98tQJX3zgFVk828rMCCJVug80WQWm4XEITAVuupHqGLYXw5ngRjgBuWxb6nv0vXDOGWQy58Hn9otzWtGPlFSgqj0r9P+VmaIBAI05jWlZO1X8M/+p7Fh598D7YLVH4Al7YnE5GblAWIgBQyvSykmIxBj4WzykPShVArz+ALVu2ITs7S47C1DYaxo1bt8Dn9SIvkI1oJCILPgNPpSXF8OZkoVioZjfiwQgiZWERJTq8boSsMYSKyxCwuuBgVUUuik4HthcVIuDzobyoGF6fF9FYBMVF25HP6pbhEKx2B0pCEdhcXli5/fYi+Ox+ODmVI8VwuhwoLi6D05Mr9P727ZtRp2YWwsEiBMNWRKL0FmPwui3wOuMIhqOIxK3wBrJhtzlQtL0QDhvBQRH8PjeiIYIoK2DzoCQYY61hxZbFI0AsirzsADZu2gib2yNsAQ0NxXs0VKtX/4ZDDmkgoGHSpClo3rwlWrZqDZ8/gHbt2ss8NocUDnToSoPfnYFgHZvXAEjodFHeW7Bl80bce/cs9O7ZHZ06dYDH78Xm39chKztLuqImyMgYhljKl5OVisVUpUaPSpssLafmwSvzlRaSDdYkE0XKyDuTXjV7SrBgk53FvgAUbdsmnVkJWgkqyMzwOwQGPKYKw2r2wKQhMECCmSnhPeDfqmlVTPpXUIehwy5yzVLUyAioJcECGYdUDZhkZgYZBXlfAZMIcaTofizwZ+Vi4MBhuLDfINQtqA+3x4eOnToJyFB1t5T2Q4WgyMju+MoAhEpunCvD6e0IELhmqaSxIcOH4z/Pv4AH592PNi1a4OP33sMzTz8p5ZdnzJqFWbNnoqBuHUy76WYc2+FofPHVV1i98Td8++tKrF3/E15+5knMmjIT33zxEzoc3xNf/fIb5i9agPfeeR0zpk3EoQ3rC3twYpdueOONt+Dz2LH87Vfx8rL/YvZdc7FpQzGuvOISDB8+DC+/9n+Ydc/9GDd+Ahodko+sgAU5Xjc++/RLjBw9HiefcjK++OIbDBwwCN26dMXll12GTz79HIc3PRQ3jb8eRzVriptvmoD3PvwfQg4/xo2/AY3qFeDOW28T5vKT739CJBLGLRNuwKKH5uO7b35Gj7POxXMvv4Hlry1DuGwbpk+bgG9++l5ovRk3z4I1HsegS85D6w5t8f6HX+LqS0fhxf8uxbhJE5CXnwe/zyt1EKo6QNAlrbRWpXc3ahDuRUHdfBQWF2HG7TPgz87F1ddcg6KSUtSqWVPAo5X1CGIxvPv2O2JQ27XviLyatVFWUiIeGrUrLMFbFiyD1+tDpLRMxGo0ekLPEyhk+7F58yZ4vR7YonE4rQ7xjGIOoMwShSNugTtswSsvLcXm7YXoddbpyMrLpUWQfyykFGY/Da8HscKt+H39b5gx83acfMY5mP/EErz/yYdwubxwwYFjOrbGHTMni9bG588D7AFs3rQVBQX5KNmyDoGAG8VlMbj9+XB5vNi0YRUC7gTKg2G4fLkoC0ZEMxALR5Hld8FhiSBUXiye7fLl78Hi8CNu8+KDjz7GyFFXw+WwIOBzYdvGP6TDYXmUNTqYthbBli1b0LBhI9VllQDYasNtt83AYU2boVXr1nC63DjmmGOVkalAfn8gWapkHN9UwIkZCUpEmTKOWjcRLC9HOBhEVpYf114zCr17dEPPnl2FsWTJ91AoqFJYGU6RPH+7gC6CJv5OQBkMlcs4OAkcy8tk3Hg8VdZZlTrn38XFJcII+AJZIoIkIGUdBrvTobpRFhXB7fGkOt1K2q4JNoukRhnqlJZAZSdpoy8/2QnX4cCWLZtRq05tbNm8WY7DW6XPRcJlGndoNsIwCGRMdGhFZ2aRcRIBq0qkFVGtxxNA/4EjMGjIUNSsXYCsrBy0a69CDFLlksCAxbyS6cUZgFAZbG6VOgc92WUSGdW4KCgbPGwYFj31NNq2aYNoKIhgYSHGjx2Ddu3b4LKrL8Nds2ehl7auJAAAIABJREFUccNGGH3FSJzStQfe/uAd1GlcH+cNvhAnndQbN14+Av6ECx+8/Sn6XDgCI2+agsefeRIfvPcGFj4yF/fMvhUzZt6Jjp264Iwzz8Gpp/TAPffchmVvvAQrvOhyXE/cNH4s5t4/D6vXrcflV12LFi1bw2GNoX5dD26bNkXSC2feORtPLHwWl192NS6/9Eo8/thjmHXXnfjfxx9g2WuvIBQsRd06NTH7jrtw4YBBKEok8P/eeRdXX3Ix7ph+O9q3a4u+g4bgnjn3wIsQanvdWLf6N3Q/ux+uGjMZ/3nmGTyzaD7Wrf9RUhhfXPo63nn1f7hu1EhcOnIAZs+7Eyu++wUrvvgZb772Lu68ezayc7ORne1H69Y6xGAUdjEUzAfa0/vzBN05gyD1D6ykNaMSujnzlFOw6LEHkOV1SYXJu2bdC6fHh0FDB+H7H39EIJAlMeW83Gxk+Xy48YYxqFW7AFOmT8e6teuwecsW1C2oi3oFBQISvvzmK1kL87Nz4HV7sOH3DXA7HGjUoAE+XfE1uvboLnnz237fiHx/FlZ8vwL5DergoxVf48jGh6GWw4fbpt0Gf408DBt1JX7ftBHx8jCy3E40aXwYvDl5+Pzzz1G+dTPC4WK8uvRFdO7SG0teeRMnn3ka+vQ9B86EG7ZYEKXFG7Bm9Rp4fLkIxuzYsGEjOrU5CrHgdnz37dcoiVjR8PDmyMnLRTRUjPWrvkdRUTnyahWgUZOmKCsL4ccV38PtALZtWY8mh9YVpmTIkCvQ85SzcEG/YSgLR1C/fgHKSrdj9S8/IFRaisMPb4zs/Dz8tnadGER6oCUlZTjyyGaokZcvee6TJk/DEc2aSXVO1kU49rjjDPC5YybBgZ5b5gqM6e2jtVHliQuD5HbDQdFphJVME7j+uutw2qm9cUznjgiHypEVCKiYPEWKDDCSSZBUS+aJKCEhRS+cmywQVFJWimAoiOycXGEGRDcVZ92MsGIQBLSoHhxWaocYbjLeU0aZ/V9UmEcxM6opls6gUNkYKf0C10uGsyT12UgBla6nZN3oZjHEIRVqowJudO0Z8fBl4VVVOc3jwrFRqeYKmqvKiSnRIotnRXSIwZ+NAQOHo//AIcivWUcAQtsO7dX5MFSn4gwyhnZrhkGoUoa5spxskj7T+h4R09gweNhQPP3cc3h12avwOR2YPHYcTju5Fzoe3QGjb7weN02agFbNW+KSQcNxzmln48NP/oc2x7bHyeedhnHjbkD7Jk1Qw+7Hh+9+jnMGXoprJk3H/McexeuvvoDlrzyHWXfdgtvumIkePc7A0Ucfj549T8ADD87GU4sXYvXKjWhxVCvpGjh02FB89tXXeODBRzFnzjzUqeuHzVIKh4Vd4uK484578MyzL2D48Mtx4fn9seQ5hiPmYfFTi7Bp8x8oKtyC7Vs3YuatM3Fc1x6IeNyoU7cAp3bvgVm33oaevXqhy+mn4557Z2Pzmp/R5vDGWLtmHY4/9V+48vpJeOGZJZh//10IhTdjzITxeOOt9/Hs40twyZChuOWu8Xhk0SN45/2PsOLLX7H0P6/hnnvmwJ/lRSDbh9ZtWinBGxckk0d1oBfxigGCDiqoT3VGga7sJwtcNIrTTzsFi55YAJ+Djb3KMOe+eVIs6oyzz8bZ55yHoUMG4YcffsLmP37Heef2wYKHF0gp4+EjhmPJf55Hfn5N0RGce9458AUCOP3MM9Cv30U4tH4DbFi/Ae+9+y56dOuCTp064sKB/fHVim/www/f45Xn/ovuxx6HydOmoXefU/Db9m1Y+/NK9D/tTPzn6f+gMBTEuSMG4ZU3XkMNTw58NitOOflUHNGyNa4ZfS3q59dAlteCNWt+xVnnDcATzyxFfr3aOKpFC8TKYmjdoinatmyM+++7H99//yvKY3bk5uZj0vhr8OqLS7D8zbdgdWXB4vJi2rRp+H7FF7j/vrtQq1Y9WB1OnH/RYLjdWTi5Vy9cPGwAvv/uMzRuVAv16hXgrlnz0fnYrqhd0ARbthVi5Kir8PRTj2HjhtUIeLz4feNa/PvCC/H6/72F33/fgNq1amHpy8swc8Yt6N69p4RoJk6aiiOObIZWrVpL98yjjz7amFMVqM8O4OKyK/aC4If/6FHHozGEwkHpqRGNhsUB6XLCcejZoxucLqeAJ5vDCruToRclVJRqLUbBJF22miChPFgO2OxweVwoLy1W4QEbg1UEA+zZEYXLw5ACNQJR2R81IFbqUxiCNPQNpSXUMbF6o/K+xZhL50+KZBjWMLKkDO+f+gd2v5WOuCEFOCQhOk69hAtlLAUeJkBhaWkjcGCwEmTYpDFckk3QujBVbEylbKv0almnqVnh8a0UBtvg9WWh/8DhuLBfP9Sv3wgen1/Eq6nn15QSXIFKMRNiOIAPSuU/tJK8KKGsSnNU6JXv2jBk+DAsfnax5C13bNsaS597DgvmP4BR112DJS/8F0Ul5WjXpg0+fvd/OO+Mvvjfxx/h6O7Houvp3XD1VZeia9v2aFTzENx9+xwcd/JZWPzK61jw+CJ88PZbeGXJIsy5byYmTp2Ec87ph1Yt26NXry54avEC/PDD13ht2VvIyqqNQ+rXw9Ujr8KLLy3FhInT0KnT8cjNc6E8WITRI4dh1S+/4u577seJXXrj00+/xoD+g1GnTh1cfvmlaNHiSGzftg2n9O6GY4/tiHn3zgGcfkTcHvTo0QMtmjTFxDE3onbdOiiKRfHNN19i+rhrsfL7FXjuuaU45qSzcP+CJ/HOsjfx1WfvYeGieciuXQtr/9iGvqeehfzsLEyaNh4Ln3sc7374Mb7/+lcsXbIM9949F1k5AXizXGjdprXydNLaO+9qEf2n545OLKzI1IiGnIuU1OGP4qTevbD4ySeQ4/eiePtW3HfffVIs6fSzzkK//oPw8PwHRDdyy/RpOOvMM/Hcc0vQvEUrSf2cNWsOuvfojl9++QW9TzoJ3Xt0w6mnn44XX/gvmjRugjl3342y0hJRs69btxbdenTDNyu+wbfffSsA4YyeJ2Hi5MmYPut21D6sIebNvgcNs/KF8fHXrAF3/dq485456NW5C7asW49OHTuhQZPD8OD8+Xjh2SexYd2vuGX6ZJzR5yI88ezL8Odm49gTjkMiHMdRTRvh6PZH4qcVK3DD9TehJGTHEwufhBXFuGPGdOkn8K9/D8Rrb74rXRXn3HsXlr+5DG3atsEnn36FcROmSj+OEUOG4D/PLsS2bavxyIK56NunD6ZOvQOXXX4DwjEH3nnnffTpcwYefOBeTLzpejRpWA/3zp2DrUVFKCsPo369+hg4sD+uveZatGvXTrRAgUA2xo2fKHUQCBAYYmCaY+VvGa5mMjNOdD8Aob6l0qlRsI0G3AqEQ2WYMmkSuvfoihOO7SzZRzSsdrdNZQ/RMDI12hDQSkUE6eFCjzoqZa/Zct0pPVJCSYDABS4aJjjwCQhhMTamrzL1ye6wIFReKoCLc1sKb1lZc0EJH9WLmTMs161SJlRGt0pvFP0g019Z/CoGCS+57KpvDLcvpj7C64OFDcSiYcnsYYVMqblmVIjkflLtyY2aGRSw8vqN3jg6/0FqfogUQlUu9foYYiCDMAB16tSDP5CN9h06GABhx6e5omc7AxD+6ZW2Sh1PA4RUHQSeviqpa8eQoUPQun1bnHtOHxFShUpKsOKrz3FIw3ooDZVj46YtcDncCDh9yPXnoKisGO4cL7JrZ2HVqp+QZ3fDb/Pix+9WwptXB8UJCw459DBEyspQvGkdGjcpwKq1K1FQ91BYrW589/1XaNGyKcrLCrHy17UoL4sjNzcbLVo0x5atW/H9D6sQi9oQt5bB4YihbcvDsWXTFmzfXoYGDQ7Dmt82oHbtAinX+t3336CkeDt8Xg8aHlIXOVlZWL1yFTZtL0ZRPIaCOgUIOLyYOHYcunbrirz6jN/50LH54SjavAkrV62DK78Am4uCOLLRYXDbo1i95jus27RJYskdWrVDIlKOH35egWatmmFbSSliISuuvOQaTJo4BT6/D1l5PrRqTQZBpXSZF/OqBBCYhijei6xMMfTq2RMLH1+AvGw/Sou2Ye68uZKGd9LJJ2PgoIFYsmSJ0MEECH379sHTzzyHli1bIZCVhycWLcaoUaPg8/vR4JD6KCwqxDnnnYsPP/gAHrcbd828Ay6HHaOvHYUvv/4K557bF88vfQlr1/6G/y5+Bv8++xxMnjINo268Fsf26IqJ48ajdeOm+PXHn1G3UUNk0djOm4fbJ0yFI2FFQb36WPnbGoy58Qb8vzeW4cfvvsTUqZNwfv/hePLZl3HeRRfgtDNOg4OUdaQMDksIr7z0Eu6+ex42bQ3innvnoFGDmrhz5q2oX78+zurzb0ydPgNXXX013lr+Br788hNcdNGFcLkDqFuvMdb89juuuORSPPDA3Sgv34THHn0QgwYOwqiR4zF+4lQUFUfw9jvv4oILzsXsWbdj3I2j0bxZU0yYOAEuv1+0Gk2aNEGfs8/G1ClTBZQMHToMLrcX42+aJL0YWrRsBa/Ph86iQagaC46k9HFtiUaNFFjWRFDtrPkKhcrhdjtww+jr0btnN3Ttcpx06XTaGHNnHw0phQWmwipqXvWqYMrp+nW/Y+bMGRh1w3UI5OXi629W4O677pSKgvUKamPSTWNRp6ABXn9lOe65716pkcE6A163HffefSfq1S1AOBiBzckMBGoVHFLZkjUxFFUv1bFE9MeQJmu0SK8Mo+8MFQEUwkrtF2ZbWC348acf8cfmTcitVRfjJ07GA3Pvhd/tYtKshEPIdIjRl7XWhmjU6HVjiBJUZ1mjyJw0sFJMAE9CshykTlQaQKhrAIT2fwYIO5smGYBQNZ6fA3SWOwEIMZULPHjoUPQf2B+dOrSH286ysczzVTXn+YARxbIaIsvJsuhRwsoixhFJdbTbrXAQ8YcZv3NKtcKY3SEZByxyZ4mGYLepHgqxKFuUOiTrIB4Lyk+Wv0XcbjT1MYoTxalUZovhIGLxEjhZByROz0IJdlibkWic4rZIJCRpi8zTV1RdAvGoKqgUloqRwJb1GzFp/AT8+9/n49ge3eRYllAJAsyCiMRQxvO2OsF8NysrLdpiCMv64IJdev2ycBSvNy4Z9QFvDZx95nkYP24SfFk+ZGX7RVAmXkcVBgjJskWJuMSKe/bsiScefRi18nNQVlqEO2fOkJhv95490a9/f7z77jv4ff160YFwbJli/drrb2H8TePx5vK38eEHn+Dwwxpj3DiVDnpRv354663lomZ/+KH5sNusuPLKy2URvvKqK/HeB5+g2ZGH4ojGTXHiMSfg9ttuQ+/TTsb8RU+jY7vmmHfX3Zh331zMf+xJTLj9Zixd+jK+/fhLNDqkEa4dfS1atWuDe++9G4sXPomjjmiAgnq1cfRx3fHkMy/i6+9WSBVIn9uKdq2PwpABF2L+gw/jrLP7orQ8jnvvnYMnn3gE69atxvTpM7Bu/QZ079UDM2bMxFdffYlbpk/H99//gpatmuO6MeOkI+mAfv3QplVzfPLJh7h4xACcf/6/0e+ioVi7YZsIcmnUx467DstefQmPP/oIireXo0fPEzFw6GA8/vhCNGncGKeeeipmzJyJhg0aod9F/VAjvxbG3zRRCiU1F4Dgx9EslCQ5+gdo+diDw5JBUAWylEfO2LgWLqr5pcpxXTNqpISXunc9QTJBmDVDQ83y1PTqDcmBITwE7BYXfv1xNYaPGIxFzyzC9vIyXD9mnIQa27ZugTdeX4q3Xn8FCx5+DC8+/xYWPfscxkwai/w6OYjHy9Cwbh04WCgtYmGFFkQQg9/rRyKs9DY0yp6sAMqDpdIbwuv2i24gTBGtxYFoKC4tuUuLi5AVYApvKcpLCzF//iPYvL0I/QYNQyAnD9l+n6qlEg0izOJiLidsdhdKSsvgdnlkrlMwST0Gy95zjYyEmFqr7i/1DZJmbGiYBKsTIPgDokHoN2AA6hRUDBD+anpkAMIeTOKDb9OKAYKodBHHkMHDcPGIYWjbuqUgY6t0EVNtn1VLVrsYXak7JJU5VM1DxguZg8zSxHYLlceq+x6ptQhL8NqsQrXxgZBSuExqk5gaa9kzP5z/7LBaVDpYlLUH2DEwznx6lsplcZ4wYkYVPyJ6UosqPEJdQpghOil4I3XjheRnFTWlAGYlRS42HpcXhZu3wuNyIWpzSMyzrGgrAm4XwsEQytnAx8rOkWzURAgQR4SXTwqS4qIYvQ5Fn9LIZGXloU+ff+Ga0Tcgp0YN+P0+tG7Nbo5VGyCI/0KAJSKrCHr16IWFjz+C7IAXLifjrQR5UXi8Xkk5C4dDwtyo2vkxWQDX/bZO0rB4n9l5jop0isrMKXq8Y1LaJVnZ04JQJCS5/uFIBOUl5QiWhnDuOedj4aJH0LjZ4QhTzR5ncx+vSiNzOqQWhj1hlUY/TBssD5eLGt7hsKJk+xYxUC5vNkqDjH+H4fN54LADpYXb4PN7UF7GJkEeuD0BrF27FgW1a6GwcJt4k6yxUFRcDI/XJzH0oq3bpBcHtTBunx+ffPIZhg4ZhrfeXIbsbI+q4Bjj2NlRUhqC1++XboUeD8+zGC6HE06bUxgyp8ct4La0pBQ1a9bEqlWr5bqU4M6CqdNuweHNjkSLFi2FUehEDQLBbhVACGaQqZ5TFXvXwDkmlVGB0aOvRe8eXdGrRzcRKTrtfHZSqX+6FLUU/mG59rgLm9ZtxQUXnoe58+/Fa+8ux+JnX8biJ59FrfxcbP59Jfqc3hsTx07Apk0JvLDsDUy+cxq82Xb4fDY4E3Esf3U5Zt9xH/7V/3w8/cJ/cPmIS3BCp8648brr8MZby3FYi5aYMn0ijjjsMEy4cRKeefZFNG97FK66YiQ6tz0Gl116mTCdL7/yEg5tWAvjx1+PWbPvxudf/Ywz+/4bzz+/FG/+3+sIlxbi9lun4YMP30dWjWzMvuc+WTcGDBggPTa+/vJLDBsyECOGDULDQ+phzaqVqMu5V1RkQChVI0QVfkoBhIEaIBgMQjsyCFKRPFV5cme2LQMQDj6rvwdXnBLEKA2CUimqdJ04hg0ZgSGDBqBzxw5SZ94qTWaMiodGbq7E6mQ2qiIfUrFOvGXVjpfiH5azTVKCjBMKVcYuizTcCt+qymiqB4RsazACbJ3L9syq6pgDYO8EVju0RSXuRy+EletYsImLhlpMVEU8KXAi8U3VSjoaSYhymWV9CE7CoYiIIIMlZYhabJK6xmI5Tpa7ZdEcpxshiqmEOWRaFRdjXo+q+y9thVnwRmjIBHLzauLU08/BDePGSiyQBVgIEJTNq7ohBoGRUrwlJv969eqJp554DDXyslFSsg1+v1e6W7JEsMfrkTRG1jWglkDNKeaS22G3s5gVS3Szz4C688xTd/l8UiSLNS1CwSCY9ubx+eBxO6XADOcQ6wJQo7Zm1WrcPv0W3HLrdGTn5cgxmUnhdFLkFlNpbSKaUHFazmUWRqIn5nBYpIYCmYpwOAqnR1H6UuvfQaMVEaV5mCgwYYODIrnykAjWWBiJRszuYPntsBRkYgtmepOknR0u1uEow08//4K5983B1KmTkRXwyjwjePC4AxLn3rR1MwJZXhQVbRGP2eP0wOcJCB0ejkUEaEn7ZhbzcTql6dfvGzciJycXLLV8+BFHoFWrNjJXO3XqJJ00K6qQtweLwD+yqe4uIOEBEfAZFQuTnSBVQaJRV49Czx5d0KPbieJF01mQ8tpcEVRygaqYKvW1LbBF3Fj76++49JLBmPPgLLz7+Qd4672PMW3qXQgQpIYKMeDffXDZiItRVu7DFaNvREHThrB5YqhXUAPz7pqNaGkQt02fgQVPPYvrJozFpUOHYvnSV3DL5Cl48dWX8d/XX0M4GkTdmrVw3+y5uPXWGVj29nKsXvkbLh96GcbeMBYXXnQ++vY9FVdfPQK1a+fA7nCjpDyBLj3OwOAhw/HRB+/j/vtmIVi6TcJdC59ajE+++Bpn9z0Xk2++GXPmzMF7776NlT/9gNHXXI06tfIRDQdV9obUPFBNvAgIdVVKHWIYOEgxCLVNIQapfL4bEyMDEP6R6V+VD6KrgWmRIh9eBQKGDx6OoQP7oz3LBUsZZQIHSfRRrXylnpJSvqvUJlMlfxYLkfQ4hWMlIUmnAYkIVwEIFYPjs65oR8bnVMUyNuJhSVyjQ54chU12GGZgTDwiYQ5pFKTq08q+lNJY0ZUUHQlokLK5BCHcJ/GHSITkwQuWlUqxJ7c/gK3bixDw+xEpL5cmTVFWamPb4FhQHjXpNyCNn1SToLDkrVvUOcTiCOTk4vSzzjNKLechK5CDNhJiqNoAQVeMI/XJce3dqxfunzsHDerXgZVhIqNhkIyVLOZqjJnP7/V4wWpy7B3An+LXGDXiuR2NYTDEcJPqJMqxZOdCAgVFQ0fgcLsRLi8XMECjKfnjsSicbqead0xXE0MfhZtNfYw69TT+3B8zLHhewVCp3HObwyUgQc0dSN58INsllDJFgm5vAOwdwHMic0WQIDBWQHRCjhsN0/DH4HS4EaJynUVoqDCPRhCX1DrSxMqiERht/GMLatWuI+AiHCkTpoyhFMa+o2FW4CPlzPOhcp4sC3U2fM+OsvIgcmvkY+LEm4VBYKEkjmenTkdXGYBgZhDM3VZF8S/ljFUVzWtHjUKPHl0lxMAS62B/C2kjrzpz6p4aqmV2HPaoD5vWbMWAAediwcL78d6XH+KRJ57CzJlz0ah+A6z6aQWGDxqEu++8Bb+tLcUTz/4Xd8y9B9n5PlgRgdfmxPaNm/DwQw9h8YsvYcTVo9Dn5NPx5IPz8dbryzD/8Ufx8+/rhcH6bdVKTJ84HR06dAJ8bhxx+JE4uetJmHrzZJx//rk4+eQumDX7VpQUb4HPn4PN28pxep8LMHDQMCx94T9Y+OhDcFjjGDnyaixd9hqWvPASLujXDzNnzMCzzzyNN15bhp9//A79LzxfGIRImOuO0TGXlemlN4hRllszCOzFQIAwcCBq1ylQIsX2HaRoWAYgVGW7XGnO3QwQDAZB4oUECENx8ZAhaN+mtYQP2LVOe+j0cdjASKl1FbIXUM/GKAZXrJS2srIqMGFQ1TqtR7c5FAWw5OzqZiI8jvI8pf69hB4IJJxIUJcgBpcdHjUDotTEuuqI0JCy6OjebqoDoFGkTOrjk6pjDj5rJLicdilyw/PlQi9nIW2f1eJls7LDI8MIjIkq1oMLW4RAQ8q9cnMChByc3uc8XDd2DALZecgO5JoAgvKY9KsqiRR1FgPL2/JaT+rVCw/Muw8NG9YT5Tlvm91ByrxUvG2mfGnjT9Am6WlGLXveY1ZeJOOj+yu4WJ65sEhYAIIR1vGX+2CBpIbx1rIUM0NAKidelU6mAScIEVBJY25jjwRFq0praWM+sgw3zyESC0l6JaNf8t0wQQhLItsQipVKUadoQoWiVOefVMdI3jeH3SbsBsdAKvoZYl6+EY2oEsI8f4YKWL2T58hr8bhZXdIm8WYbtTxkxOKK4SKwodCXQIl1AZiWp3oMsNS0E6VlZZKxwN8nTZ6Co1hJsbVKc2zfoZOUo64Kr1SWjBK86uJFAhAMXQIBwLXXjkL3rifipN49hMWzsoEan8gY9Quqm6zAVKNrOAHChl83YmD/87Dw2fmw+m2Y++B8rF+/DQV1GmDt6l9wTIcj0f+ifljy3Bu4bdYcdD25NxzMjIhHMPLSK/DZR//DokUL0aR5c3z90ypcOWwECrKyMfLSS3BUu7b4bdtWnHLqyTimY0fcOnEqGh9+OOJeFzp3OgYtDjsKI6+4Ckcc0Rg2B/DxR8tx5RWX4teVa/Dsf1+V2hePLHgM/31uMX749ks8v+Q51K/fEKvWrEbHYzqjZZs2GDduLJ5cuBDvvfM2vv3mK1wyfCh8HpeESCWMa7Sg4pqoxJFqfeT6xCyGQUOG4aL+A4VB8Pmz0aEDGV9FLClAkSrznj5XMgxCVXh6Dug5VgQQFJsg3RwHDkSn9m0VtSchADXxpFOfLJBsPqMMsSzOnLj6PW3A9WRlSMFYwMUGG+1WRddgdFNL8aWGMZW+ukZjG4Yd4tQqyLdVxzNBC0a0TUqWpyhM3R1PN32TpkDclkjcakd5hJ6tTZo0bS8sRl5eTWwvKlYpTiKaIkBhDXYaFyXKlB4BAnzYPZIMCc8pIRUAfVkBnEaAIM2aakgd/VYtWyqDRcaligIEoYcl8qM86B7dumP+Q/PQ4JB6iEnoRbE1bOTEwjesUMeFiS2J2X+BjAGbKpFBoncsdepZFY8xZF1f3+FQ2hFp3qTmEwVbqnYXAQFDRBGjrK5L9k2PX42t2l7aPwtTJFnjimkQ68NGXxbYXCoUxSY3DF9EwuWIBqMCamKWoIQiYHVJKh0ZBC7S0vDLAsmxl+0iKdDA8BZBgc5h5yH9Pj82bPwDeSykFAmJ1qI8GJQwA408mw+RKQgGS+Vaec6cO6qpDwGREYaJxyXswLdZZZKah4k3T8bhRxyJZs2by3udOx9TYYe+A7qc7OTgKYCgnk/1UuFF1UachiyG0deMlGZNJ/XuKSEfKoZ4PxwWAicVOwoTcIrSGbBG3IiXWPD+e6+jVfum8NTwoaisDO+985E0fMurkYN2LZvA5XDh9w3F+PSLb+HKylK9MOIxtGrWgk27sXr1L2h8VAv8snoD6ufno0F+Pr776nOs27odjoAfzVscBb/LhZU//YrfVq9B3OvAEU2PhDPhwKirrsKA/heIVio3242jjzkaq35djdUbNsPlz5Gqjsd2aod4pAwrvv4aW7YUScplu47tpFHZZ599imM7d8b6dWuF0Ty0UQO5Vup4ykNBpeXhdDa6o1iMtYjhTq/Xj4FDRuDCfv1RUO8QYRDatGmbXGsyAKEyPg1V7Jx0Cd1UHQQVMRw+ZDDefettBFgHX1KQVchAFnaaS+nOJ/ZZIVbDYxOr34wrAAAgAElEQVQm3pDOKm8uNSDsvCfbSetbtsk1kK7GABWNnVmGa1Qek9xk0zJjyCdSa49hOBSM1lXNVWyaDeLYT8FmV+EReimKXrCLPoLXKKXyGQpRZIKRVgRpKCQFY5VTI9fCbZijbXPasHLtOjzyxOPIyc0XBoHNmugJV3WAoHPXCZxOPqkXFsyfjzp1akmJW6luR2FpPAZvwI/tmzdLzJwhAXrjNLbsj0Fjyp+sFEgPWJgCqXVvk9/JQgizI/tToMPrcaO4uFjpAKQjpBFSiEdFv8AGPlLlTqh5imEpfKPvpYyOdNeLkZUIScdONlYiaxAOlopK3unwIMi6/H5VrCYaVS2WefP9Ph+2bt0Mp9shwlsKIu1Wh5QiZ1iKoJFMgDSScjhRVlwGl9MlZXulr0csIsf1B/wIloekwuS2bdslbCGhC4ZWHDY5f+6bYFTX4teNgpitwPLALCg1afJ0HNa0Kdq0aweb3YnOxxyjQFEVEimm2ojrhzpVnItz61oDIHTv2kWaZlmlg6ZKKVQdPo2GzjZ2vozDGnHBESOQK0fCxRyEEIrLyhEI5MoiRGfFkmAp5xC83toIhePChBKQed1ulBWVwMomXB6HdJsNhqLwWKyyRgQLt8LidMGZlYvycqbAWhApKYPdZUe5tPZ2YOPaPyQsMvLqK9G5cydYyGxKu247QmQbXR4RGWb73UhEQnK/ykrYsyRLAEVZeTHcbo+AX/WMMKTCKuEhAZOhcEjE3fynlBiUZTCbjMwCRbNZGDh4GPoNYIiBDEIW2rZtJ3MyVRlXl7n+8+KaYRCqmLE+EKebDhBI/XJykUEYOnAAjunYXmKnEiPViuKkx29kQjDuL7wfJ7N6TyXlqBdb3UpNefmnwg3yoFr5ACtDm3qZEUH6+wqgaKGTHMeg0XQ6oQjHpMCI2rGEMMSr5DnKyajwgTABEcDCFs+6NStjyTzzuAjYCBXiET7w9Gxj0jaaRV4jgpLYnlgVgCE97cvJwZlkEMaMEcEiBWYs4yxnW4UZBGFeRMehQk89u3fHYwvmyz2oU4855DSMrI9Pyl7RmjRwTBVlTrlQ8cb9JU2vOoYqdMnxoxFPtuQ1NC3i99sZfbYIs0CRINkGDjtDCmQE5N6TXVBcj9LCGApvI6nG8ExVi2UiO2kRLaknFCSyE6ldhYsSIYSYVcPUNTYPkkkLqeIXkqI7yvHl9kJ3i8aGAlU1F4XDiqsmTiKENVqN83kh0GElRKnAZ7QAJnXM7xEgMCQjYQVh5FTfgKKiIuTm5iHMUEwsIdkPY8aOlxDDUS1bIJCVIxXzVJZO5X/tyCDo81VnToErQRKf05EjR+LMM07F0R3awu3ivWCohkEGahCM0A4LHxECWsjmuWGJsB5CELBFYHGxNTiLeqmGRnROolGmEroRLmNLbrs4OpxPZLUYNiOxF7PGJEMJFjuc1gQSkSDsktJtR4St6mNROCyAQ2L/cYRt7DPCKcU24QwVqQ6fBAfQKYmsumi3I8wKjda4PB92MfYuxBnKSnBeMEMnrNYnOW8ac65fDJupuSAiRfIckrrAcC3nPTOy2O3Wj/4DhmPYxcOlEFn9+g1w+OFNpXAU2SgCkv/P3nWAx1Ud63+rVqvm3igJhOoKGGxTAtimN0MgVIMLBgKBgAFTEkIndFMDBAzGFEOAlJf3XkJJeLSQhNDSQwskAQLGuKttfd8/c+beq9XKloRsS/Jd8Cdp9+4t58yZ+eefclb3CgFC91876/0OyzEI9KJPnD4TJ8+cJvXEiTgNpIYePLZATZ/68p6FV4Gk4tau5/pP8gjp0dHjdtqC7wkr4diH8gPhKABTg45OVkWrAMTyIoIbn+j7en9yjxK3c+1StUgTBdlhj3HjjCzcQlZBTp7wIMLKCTUIrMIwgMHFGS1EkWE8VJLjaGRUKVXX9cFBh34dF15woXS+q+tn2z3r93tqiEFG0FUxcP732WsyFn3ysQA+ZvrX1KSxfMlyTUSVbGs11wYTLXmV79JLZza6ioD2ydf6eDXiHhtFpU0yQfrpW1WC+45838JaLuTlKuld0EmTXuW+1QjJ9WR3T2WEtGuGyYgQ2Yjxc8cISX4cd87j/Sb1afg9qdlxuJed9ggheZ88VgwLPxMgIvjRe0nXPZEnBaJkXSRsR2BK7or42Z2XnjP3sspkOB5RVFdXSoLskiWf4/Qzz8R22+8oyZrjxk+Q8zP80pNeEhPXrER5+RUNBZx15pk4gO3cd9wOfbjrZ6Qo5Y5qGLW0kXqIxlP8kUJM1mOU5dGRnNsaXPdOEIPKEGHU5a1EKrWPAEOljFJIRRJzj8hKMWSoIUWGHAgqmCRZQAJFpBSEki1iv4JcBrloVraKJxaQtS2JSBQxzc0SOSMzJAnZZLEyIn4EAIgmZbtmSbgscCdLbnuukmu7L2qI04EGx2YGAq3SWIlbkvfpPwAnzjoFxxw7FUM32kQSclkyyUZapftg6L4MLV8hQOhJK2c93asCBK0mMM+cv584YyZOnDFV0DwXhnpFPM4pJEEKWtVgyYpBEKD5CAoOxIOTskbHGPBbQhe6EINDHS2IBN2vzY4wH9EZfq0FdirG9StXlkDukdc2Re4MnGZL63Ow90KhEEM+QsVSkJ0ZqWh4o2Q18hFNOKMnEisq9SvNWsRoRdFcyCPGfg+ZZvFEqPQra/vg0K8difPmXCDeX3VtLUYzwdNdv6cCBGMQtAteFlMOPhjz592N2toaGQPxrmj52CGuWBDjxXi+5GdI8yqtbOA4SSmsbYLDcZHQAKXCAT4yCA4A6AYzapAFf1IoNV4j58g5xUzl7QEOzoVLZBSFy3CRY5goG5p7WHD9/LXlrijreFTCATx9TPJrNGM8K/Pu4uSUewkxaRIhx0VYJBosKfNhzwN6tnndcZDlnCaDmizhSm8d6BWAUHCb+VAm9cV9Chi3rqvrI/1EmMPQf8BgfPfiS7DFVltLFQM7VzIHISq1gD3n5fW9kNieb7DUg87h/DnnYfJee2LCTjtIWClazCObz6IilRSGRhOZ9ViG+Ei1S14Ry6Gpnxy1LpsbEQC47GQx0nQAWGnDRSwJx5zPLKIJZQw1OZVJpGzMlJXj2Lk1hrQz/pokSVBBx0LLLZ28MQxCSMpcE3d/BAg5Gn8CQgqwMJLq+UtFlMgN5067I1oeim7QpGvJr1rQsk7RJSKbdEoisknarJNOw4knzUJlulqYy+HDh8saImvis6sKmkKA0HPWSre5Uw8gqPhppmykiBMZYpgxFTuNHS2EvNHkrmuquntSUui+55IV2VWRRlXfJRDQumXRCQ4gWEEkqWLrrmZVBy2TmKRmQMvj3D04DsPtGaHupaal0fg7VkEbluv3JG/BWAQqDm1sxL4KLN2UZ6B3l1cDwF7tBA5yxhy5Bm3oIiEGSYhk1nteYpHsdkbDRyXALY8PmnIkvnPBd0S5V9VWY/T2Pb8PgrRalmoE3Wj2oAMOwH333IUhQwYL08IQAw05m1/p5jb0oJmvQhpd508rWPzd5dTJcsbbtZJ1adcCxEwGxNEW9KCuvcim5I1QQfrVMyJsrtOcm3WVP/m+AxUOeEgsm/cnR0QFaBR537JjIPNMckLjqo/HiEJgEyt+zxl98UZt1zxHB9AQFKTyho9LuWPfBw3NuFIbp7TV8xSQ66oW3KYokrPBfg7Sw6E5g4qKSsk5uPTyK7HtiJHeds9kELRRUrdRJWu8kXIAwfQJ4+/fvuB87DJhHCZN3ANVVWlkmxplPMmUs9kZGT7ZyYBJwm4jJd2xkUyesjkCxKXTK8uktQ+LsFAEX+SKiFPZ/ZXyyURIzpfkKmiwqhDN63HxCArZKKIFMgiskKGBpx6kbsiKbDB0KoBUWpEDTGdiQIByy3XDPSqjEmYrSOiBt5EVRchn0eotkUGCSY8lJYAhNcHwpYYbbD3YbpCyrmJxYTFOPf1MSVJkPsKwYRtjq623kYofAVOuYZK0kPaqxPxpChmENYpseIAKt5XCUGlRkIs4ceaJmDnjeIwbO0abJJFi87IBW46bUcqqnLWiQQGCTxvbZ8FvOhLCO7b1bFiIwZVJOhpbeAtR1BocVoDgyjBbbJ+qAMS2VBUAxPil3JjbVMVVUcg9yzrX/+SsRP/OwAj4ENChCzrh9qpnyRwzsatq++LgKUfiwvMvQm2fvqiW3RzJIChA6VkMgj8zPoPAigXggP32w4L770Pfumpkc82yOQ6Vs3pDuqUtexmwLJQGUuhkl3eijXKCJtzNn+uZ4TCdz/072tVqFqXc1X1fc0y8eIX71VkCd/uOmFKPi4pWyyK888uvDmIK1BTO2Prgu7wGF86QRjWSi+HCVpRBARJ6EtsjwAe6ZBpMolU2qfAtNObSMESetDmZ1rjbi+CAuQukkxlfvviSyzF8+AiMHDNGSinHWx+EHqXCXEWMzasL82ipcB5nn3Um9ttnL4wfvyNqa6oFtK1YvlQSPYUpIPfHrccJKjlezivWEkhVOCpvnjvi2FHTRwQXFAPNieJcUx+QaTKHQrCeMBDqDAhwcDqAh8nxZCLdttGiKcQBYQKh6xEjmFaynoRpUAJJ59arRnDCZ/hXSxedwEiZdUHDZG7rZ9GnEp5RvUTQWFVdg6OPmyYAYeNNNpXVsbPbBjwRT2j5uEssL5fMGgKEHrV41s/NtgIIkoxWxMyZJ+LE6SdgJ4YYuChcHbLv4a+f+xWq1uLHBkScolbl7WLmvnYWJWEbxmgugt67eTStfrqNVOx9Wdiy9apLJCNAYKZytkkb7oCJZH1xyKFH4bzzL0KffgwxpDFGGiX1bIDgRlTKFzn3Bx5wAOb94E5suvEwycQm3VvIZpBIMImwILXbbBikDIICPGOJaEQl4bHTotPxb1pIzGeRfBlp8zbM8JfIUqmcWBMpEyi7hinj4PFBWfLvxZdDwzsaOy54YYZV9U2IJyul1fI22w7HqDHspJjCTuykKJR6Twoz2NhrvN2DT47RmT37TPz6heck6ZWhJz5fqiKOhoYmyQHRNauGVM9kFJNfHeXe9WTMh6QOmjog4V3bx5gtxMG7O9frxM7rRNo5JMoyCSaR3R01nGC5gV5elNNXBkh5vGvl4OkyT6fpU7qmdIppDd7IanL4lkCjMp3CX996B/c/8ACSqUoMGDQIm266KWpram10Ap24wxBDp9XOhvzF9gEEImNtb1weIJSsurU4oL7SdfREQImvSSGXgoc2AYIXkvANEr0Z9WC1XXAilvAAgjAINQ4gXHAR+kgOQu8BCNp8Sne3m7jnJDz22COoSsakFE27YEok1VUvsCVx3N/C1vW+oFq3XNaOm/nOC1R5w6x3YN58Oe+qFBwGAaV2Dg2GrloC0+BnqwOiwc+sgoE5CIlEQvasSCYrpOKmrs8AXHLp5dh8i60wctQoJCsrpcyxp2z3XDp7BrR1DtSgstTvuxdegJ0n7IQddtge1VW6iVH98hWoqk57OwsINxCNC4Uf4JOEwVHo6bOXpdcVDiJgJ00OrRW0BkUDbIJnZg2cGMOjEEVYAkcsWqjWHal9OAJMloJCTX4W+bDtno3hLOfYCDulnIPKo4YyFKSwHXgKp33zDEw/8SQMGrqRlDfuuuuuLfZhWJ2MhAxC5/XKBvPN9gGENTEI6wkguFkq5x2WMwwtAYJbwG0wCXZOB+iVQXDVyCxZI4XXnFEGgcqqqqafMgi9ECDIuDmqc++9JmH+vHkYNmQg8rkmaRkse3RIPwjdS0BKzUQTa+a5gANX3eL8uI6zCKLYOwEtxAP0jbnnOQYYplJgqeELu5afQFYKMPXvloyUGb9y72vnzdb3ooZGW0MTIGgTJd2EjI2dkqk0Lr/ie9hy6+GSg1BRWYlxE8bL8T3xFQQIHkgq5DDnnLOlzTL3+8jLjq+6hbLQ5EwYdfu8SIIoW7G7l/VXsBCWsVTBHizesSUi5FXOtJAtC1W5gJZXSq1BSjP2+tOFUgOhK3mTeTtOxiwoJceLsQ8kDbpclBbncUpHwhKuM6zuR+NCNK5dfUW6CtNmnIhjjjsBwzbZVDZM22GHsSJjUj7sQLBUCoVJij1xqaz/e24NEDRJcebMmThx+vGBEIO+75aDtzRN4XdKeXfi8Uu9/qDSXrsMgstCZxw5VygDEPpjymFHYQ5DDL2NQXBJhnRfJk+cjAXz78FGQwdLnToTFKXjoPXIsGxrbRLg+WCixD2+tzNhBt9gt19szF206gfNWNGYsB9iknfl9tw9ut4ZdsNBsBgMI7QAkWXCES3l0dCsizUHDJXW87iyNlcTz74P3AiK2wInkpWyWdPWWw/HiNGjkaqsxI7jdhKA0BMaJZXOVxAgMP9CK03yAhC4UdNekydqQmCBbbu1SkQAqNu8SDP/g02WVC8FWSojAoJ4oDXJrndWDnb6TILLa3BdPW1DOi+nQKfOfwUMuQKEIFDw5czbt0TAtwuZWHpMgKlVoOkzCKy2YFkkq4Sqa/pg6rSZOGHGTPQfOAi1dX0wdocdXWWNMp2rk5GQQWi/Jtlgj2wJEHQrVg8gzDgeO421HAQChNLVEFDAnfHuOjHq3QcgxKXTmc8g9E6A0HInvgImTZyEB+bPw7DBA5HNcutmK+L3AZRzoDy6VzMRnPbzAEQnJr8TMia17U5MtZTMj4O3FWJSwNAybGB3Ww4UeF5wCRvV+vzOIAWC0cZWeDuRujwa6azI3gtRdnKsFAZhq623xcjRY5CqqsK48eN6BYOgY6R65dyzzpLdHCdN3F1i+Zb3xARG7ZSpnS6ly4XkXlhQwYGDYBgr2EHVT1XwAGsQGHhMgzP0lghbSlpJNZYXKvATLi33SY+39vU+ANVKB+sq60CCq8gR7G39XSy/wgELnxnV8THGQneWjSKVrsYJ02dh6rTpGDx0mDTQ2m4MN9fThE4Fwi0TpIOrLgQIndFBG9h32g8QFDj4DIKq/Q2XQSgFCP0w5bCjSxiE0Vrc2YOrGIweld30igXsNXky5t9LBmEQ8lnSwMzMZymWKjEaNqVSffnwAYIvLp0IFnzhlWkGO8g6BU9ayhSUO64tgFB6bFvncjbErSMNNyh7oFS6VTRItYzs4VApAOGKK67CVltrFQMZhJ16CUDwwFiRIYbZmDxxD0yatIf2OnUVVcYOKJjSbdcVR5kpt/yDQJ6LAQSnoixiVMoitCWHfvVNgCBwLIKVNpo8yc601jDJ7VsSlAddDy6Z0QMRrkOpY7IMiPsgwACBD0r8czLpJ4bKdA2mzTgJx3Avho03kc2bdtxxJ70Xy8UIAcIX1hsb9Ak6DhAsUWdDAwhWxcCyawsxBBmEIEDoG0hS7PkAQRaI226XrZYFIAwZhFy2CQnuaSH5CcEELss6UK3o/WVx/2BvgXW4+lYHEFb3md+102cVgoxCOXZh9QChpVkyr9SAglYmRF2Igbs5poRB2Hqb4cIgMAdh/M4TekWSoo6d1v6fezYBwu6YNGl3141VS669YIIDCAG+wA8tqJD6ibBOxryolsEJKzsMGuwSGTTmoFxIwjYDM2AnbJltFeuqDLx+LEE2wbqL+iVUelVhEBQetGKcLGzleoVYsqI02IrEpffBCdNPwnEnnOB2cyRAGCenDTIIbYWhQgZhHSqfnnqp9gOE0iqGDREgaPZ6eYDQF1MOO8YxCAQIla7MURst9dQ+CJ4p0z21MXniRNx/3zxsxCTFTJP0k5fOb640SztWSksstyQCAMFPQuhEsOCLr7CeABA01KA9JBhvjkaTXoiBOQhkEHolQOBmTQwxTNodkyfvoY21XNcAYa+c2bOwgvz0doR1IEIqGdQ8WvJhKUBoUUmzuhJHb7+ZlnJnvS/8smnNHQm+/NBAy1CV4IFA6Mq+0xYANdBggEOLGrSjbTESl82Zjp92EqZOPwGDhwxDdU0txo7dSZ6/Pbt0hADhi+uUXn+GjgMEr85mAwsxBPogCINQGmLYkAGCNKUH9ycIAULr3IVWnmGggsL6ZEh74Ba5DyFAaB9AcADUhWoMlq4vgGBGPQgSlCloyT55YQch51wHWIdmgp8JY2EJwDzWbUTHNs8eQJg2TXIQFCDsGAKEXm+11+EDrhkgbBdolGRJisYebEg5CGsCCBtCiKENBsGVQMp2BcIgtA4xOL/OiOB1KOH+pboPg+C45UCcWAGCddzTXUs3WAZh0p7aang1DIKyB6qHtHrBKhlclpRVKga4B5HBDoQYygkpZci6JxojEGQQuhYgaLdOj0EghSAAQTfyCgHCelEjG9ZFQ4BQvqNiaTKaJiIFQwwbTpKiWq7VhBgMIMh2ywYQLGtbd2tUfR0kfNf9OuseAMHfslyHRJrnBnYlNU/TGAS/iqH3hhj4zHkNMUzcQ0MMQYDg2qEHwwp+EmxLgCBjGqxgCIiZFxQNiGHbSYrl5VMAgld26Lq22n4i7iurCzH4nWD9K3sAw+sSy89cdwe3kZNWWgQBgjEIrGIwBqHOMQi6C8qaXmGIYU0jFH7uNhqxvRjKlDnuOEaziVu1Wg6yCFJQs05Gs1wMr5TOKzXupQljbVG+wfc7DhB6Z5lju3IQ1gQQXH+BYOX6OhGWkousf4CgN+ScXe/ufIBQjkHoTQDBwE/LVsuqO1wOwkSXgxAACLqDgdYyeIYzUCWjmEC2hgt8HoiA2ki77byDOLVtrVX+E9ULLZ0KCRGoTfeSDcuGGAK9Nvx20S7EEPxMcgz0plmtYTs9Kk43BsEAwokhQFgfymRDuWb7GATdTrVlq+UQIGwIfRDKAoT587DR4IHIZ9lJ0aoY3D4VLRgElzLmuimGDEJ7AIJvRDXEsCEChD1diaNWMRhAELbFq04IJkkHyhw9INHaZekIg9CWw1MWIMjWom5uraFSabt2rwuim19/aybNQSgBHY5ccltBO/bA5StoiCEECBuKjV6vz6kAwRC91mOzIZJs1iSNkkpzEIK3G1yk6+Yx1h+DsKYyx97JIHiKLxhicI2SCBBY5igyI1UM3HLX7VNQUsUgXp4laq2Z/VwrwrT+GQTf+CuVYIEXypblIDh62ctBSCCRTOOyK66SToo9sYphzYElYxDOlBADmyVJiMHJHPfYjspJ/KJHPwchUNfQTvnyEhk7IWVl2cpAFUNbOQj8nrAg7h6tCkJYAq6ZNsocJQch2OBLNo0jUAoBQiemL/xKR0dgzQDBOimyzFHE2V1i3YMD0allyoTWTYhB48RtlzluOABhPhmEYJljMMTQAiBY0ZmBA2cq2igv66jsdvT47gMQjI/2AQK3EXZF8a65liUpGkD4HrZmJ8UeWOa4ZoBAneKHGAgQWNoo/4IMQouuCMEyx3UnX+V0zdoqc9QQQyBJ0TVhaskghDkIHdUD4fEdGIEQILQ3STEECNYHIQQIfny6LdBRmvfSGtwSJYUAQVVVCBDacn5CgNABYxYe2vUjEAKEECC09vCchxsQN9srgI2SQoAQAoSOaKKQQSivY2wMV9epMwQIHZG08NguH4EQIIQAIQQIwZ0dXelaoJnR2mm1HDIIvjILGYSQQehy0xaesCtGIAQIIUAIAUIIELpCl7R1jpBBCBmEtSlf4bnX4giEACEECCFACAHCWlQx7WiPFTIIIYOwNiUwPHenRyAECCFACAFCCBA6rUDa8cWQQQgZhHaISXhIdxyBECCEACEECCFAWJu6KQQIIUBYm/IVnnstjkAIEEKAEAKEECCsRRUThhjKNUFqZxJsWMWwNiUzPPcaRyAECCFACAFCCBDWqCi+wAEhgxAyCF9AfMKvrs8RCAFCCBBCgBAChLWpg0KAEAKEtSlf4bnX4giEACEECCFACAHCWlQxYYghDDGsTfEKz702R6AlQLDtnvMlmzWxL7ruxcDe6H4fOd7Zut15p7vsxRCPJ5DJNCMWjyFfKKKqph8OOewonHf+d9Cnbz9U11ZhzJgxusFMsYhoNOpNo2zcohtbdIvXmgECt7jVvviTJk7C/fPvwTBvL4aobEErkhBxG8/Ijnv+89lv/nbP62pz8JbD2+32YnBjxLENbtYUEZnhWOpujolkJS674mpsvc02GDl6DCoq0xi/84QWMtUtBKmNm+gMg4AiN2iyvRiCGseXLW7YZJIkMmZx/bW418f62IuBuz1ab1M27Qr3YujO0t5L7s0EXQ2Vv6J0Z748TjzxRJw8azrGjB6OeKQo2/py0Ra4tSmBQpS7+BVESRWo4BBBNBLVnckiVGz6u77KG0PrRN+RIW0vQLBzli5ovs8dB4PPn89zB8uI/JOtV3mMe8+eRxW2Pm8+m0csHkcunwUiMXn2qpo6HHLokbjgggtR17cvqmtqMHr0GEQiUQ8gdDdg4CMWN08RH8TYZ/rMNFi6mdDkiZNx//y7ZbOmbIa7OcYCY0kdbbteBudcFbxIGse4JcLsyPR37lgHxkr3RygFDGpjWu66Z++Vk6PgZ768FWyLBU/+uSlh62tR3lQ2uK70n46StrXm+oogEo0jUZHC5VdejS233Bqjtx+LRLICE3bZRS7JufHuOwA6u5estYQIpeZewWce58yejcmTdsfekyeimM9BV5Ye7X/HtAaVEN8NfmLHrj3wHZQD+930nIF+m+tgB85SvRWUh+BmT+Vk1NaLfmYAIYp0VS1OmH4Spp5wAoYM3QjVNXUYO3ZHXWuyzlbviESKxWLx+eefx8KFC3HXXXd1K6+lcys9/FZXjYAJjwqdKhpuK6oKsogZM6bjpBOnYaexYxAFgUEWMSogrkEaDBA0xNCcySCWiDslpUtZdB7PE1UlCNmutC2QEPQ11/x03kKTDdT1+HKL1lPY7jg5RsBBXl1d3V/VPU4U+XwORblPp3ccSODfMi5OccdiMeSyOXnmbCaLSDSGfBGoqe2DKYd9Heeeey769R+AdFU1dthhB49BMOXRnZiDlgCBY1J+jkyB8+fek/fCfffejY2GDkY+lxHgmMvl5DlFPIoFcIxU6dOZVTAAACAASURBVKk82dR7Dt+6BAglRtM35CqnJkS+AncyXKByVdmSrXkDx5bbvU/lkKKuAFpky8mXCqkqbPeh28LX3Q3XH3Srdd3al1NB4M11mRCAcAUBwtZkELZDuqoGO+y4I+Lx2JoXTLc4Yk0AgU5JQQHCRAKESSgWsh5AcLjJLffWwNNpgZInXTsgQT14BSacK5URp+9MXtwcBkFBEBCYztKfhRayYADV1g6XkYJI6iCVRWUQfIBw/LRpGDxkmACEHXYY6zs7IUDoFtLfY2/ChLapqQnJZFKeg0JPwz9z5gzMmD4V43cai0Iug5h4Kiqokah6PrL1sTMCFPQoFRaVZN4ZCQd917RUxRFo56t0obVcbC78EXBRzQjYJXgEGQS+yBLE4wpu+DsNWz6XQ1QokggKeQUTaiR0oXIYstmsjBdDCxwLRKKIJypw4IGH4uJLLkZVdTUqq6oxetRoGUtjJ4L32q2AgkfNrg4gFCSUsNfkvfDA/feiX9868NE5HsoMKMOiQMF5ck6RlpvaNclEO8VhtYeVilVrJa1gwICx/7kaclHJDjS3CKwFTizvB/82D88BBLtBXySVITBgbp/r1sa6va/IWwHCUpGhSiRTuOTyq7DNtsMxatQYxBIJTNh5F2GzDP90K3law+SVMgiym2Mxj3Nnz8akiXsog1Agg6AhhqLJk3felmfwL9cSiHSFDJWeIwgQbA4NMLQEf76jZJ8HAakPLhyQ9BSU/2wSWjCgKWKmcim6KBIToHjCtFk4/oRpGDJsI9TU1mH7HXwGYU3PHzIIaxqhDfhzU4b0/pqbm5BIJJBIJMX4Mb4+a9aJSCaiGDxwEIAcCrm8sAwMIwiQoGPoyAEaCjGwiQTRgaNH1XNsjyFozzHlFC3fCzq95cBDcIoF9weYDbIGfNYIoshkm1FRkRRWgM8oXnA+JxRvNptBNB51+KiIhDAmRWSzypLw2KbmLH7yk//C1ddei379+wtIGDNqtHzGhU5lHsxD6CmiZ0wAGSQChAP23xf3z5+PimQCffvUIZvJiCdLYGWsEmUhqLQ9lSdsAiPsMnPrZAgC6rZMaEONuxpkjfPqKwAQqKCFQWrrZUyEfo+rQ4CF+57/LT+gxmsRfJaaORp5yiTlUViLSBRNTRn07dcfl11+FbbcemuMGDkKyVQldtppnAv96FmC8tXdwUJrgJCXEMu5ZzHEQICgDEI0oiyUbgftDKQmGwQmww+Pmlx1wN/osAyawZa78Iy3Y8qCUu8QoSdbgb/1u+6ZnPwF6FAvl4Jyp4ySeyI6X8LnSowXlelqHH/CLJwwbboAhOraWuyww44qve3IcQoBQoenf0P6gsaycrmsUMSkNPmzMp1GJpPD66+/hg///S8Ucjn8/e9/QW1tLZoaG0RgY7EEbr31VtQ31OPyy6/AkiWLkayoQC6fQ6qiAs3NGRXQAI1fdmQFQ7SNIlZn8L3ciaBSb4dmENajSCNPQBRHLpdHXV0ffP75YkQjEfz2d78TZbv9dtth6OBB+Oyzz5Ev5j1gweevSqfl2auqauQc9Y2NiDLUkCtg0uS9kc3lJAdhzOhRck4OtHp7mufQk16Sg0GImOOcFnHA/vvhvnvnYcDAgcg3ZwT8JJJx92yqmEop+NYpiet2DCweq/StyaV5ZA4SCOINwBr3uzEI+lnpfbdkDxQgOObBGY9WcurCEBbO8iBJIBRTkayQSxF0RmNx5HN5nHf+BRiz3faapJiqxPjx49VoGkvn8n7sve4sZ60AAvNbCBAkxLAH9t5rEgqFHKIRzXvx/kWUZuff/kzorpgt/i45oivXWzmAwPMrs6A61Z+DIIiwuTJAqaEoT76CiTkBMCFy4n1G3cVgVBRM0Eylq3HCCbNw/PRpGLbRJqisqpIQg+SDBZKi23r+ECB0pWT0qnOpx0RbtXLlSlRWppzXo0qwWIyIV0gPOh6P4re/eRlNjY3iDT/xxI/x1FNP484778IhU6Zg4SOPoK6uDoUiE/2ATDaLylRKjYRnENuw3OJQCqFfHj/I19qy+qs3MuXARVBpZnNZeVYyJv3798dHH36Ivn374Cc//ok8U/9+fXH1965C/7790JRpRmVVWkAAX/l8AfX19RJmIIPQ1MwQTAypykqgSKCVR0WqAjvtqPFACzOYIulJQMGnT/ncWew1aS8sW7YYQEwpYAEEDL1EJBfDpquVPbXpageI6+ql5seJ9cwuWFZyGWUNLM1GgiUlALcVtmvjWUpDZi2u5zCF4Gf3z9g4kQ9GtZj0Wp3CqvpmYQm4Pj/66GPMOe88yUMg07fbbruJESCo57rsSQC0ZSDAJWkW8jj3bAcQJk/WpFgBCI5FkEG1pOcASChKgEvnzqpCvFnuaknyDb6CAM0fMNBg4QfLXTFAGWQaHHxgYMslRfuJhypuupY80CFJCPYcXGMKEDgSlZVVOH7aLEybMV0AQrqqCtu3AggtRzs4IiFA6Hr56EVn9JE5jeWnn36CIUOGCDhobGxEKpUSX2jliuV45Xe/xd/+9nd897uX4LsXfxezZp2CcePG49bbbsOgQYPQ3KzlfrG4Vi7QeLYni9aU9Wr42y4fb3ogVKZ8+srKNFatqpd77tOnDs2NTaKQ586di2OOPgpXXXkF/vHeP/HSr5/Hp4sWoam5GalUpYCawYMHY/HixfLsffv3F6DRUN8o7MmwYcNQUVGB4dtuK0ZAGRpF9d3Zsys32Aa0Mhkdm48/+lCenSzMC889L89EWfFZg5Z0a3d43iCDUPqMwczz4O+dxTHt4UZ0TP0j5W8HRvr164cVK1aIPJG14/jWN1CumsUgEExQtiZMmCBhPX6XACE4zkFWocsXUBecsOTpvSoOMgh7TdoTe0mIIe9yDwwg6I6PWtVg/yKIBADCughb+TkIPkAolS/7W0GESlIpSGAyq8xZIExhx1kURXMQFCDI9+XpGX7SPIRUukoYhGkzp2OjjTdBVXUNttthByEcfHlwiedlKpRCgNAFwtx7TyHphSKAixYtwuBBg0AjwKS7eDSGzxYvxoply3DyybOwfNkybLPtKNxxx22IxRP49NPPMG3aDDz19DNIp9OivFjyR6GvSlfJOrVcBeUA2i638XH/uhppXTCSqChGWxMrGR7JNDUJZX7xxRdj7NjtceSRXxfjfsThR+L279+Kvn37oqamBs3NWVSSLXDJjKoDNHxgpZDLly8XZkU+sRLKAB28rp62a65TlDmmrCSTCSxe/JmwIn/6058lh4PhmoaGBi9pzmdvfI88SAK3zQp1zd0Gz+IZelPUgQ/LGXM7fk35LJ5PV0IrBM9Zeg6XguHyMFpe3ZIdOc7KGqRFJpubmuX4ZLJCK22KEQEOO+7YMhmtOwCxzsweKzck/7lQwJxzz8bkSRMxaeKeWlItoTmuqTwiUa5bZRSYMG0gywCCyJeABX0Ffu3MbbX5HS0oaJk8qBUHwfe9u2gFDhQocEp95qFl0qoLgzH/gNdxDIWsGSmLjbrk6Bhq6vrguKnTcMK0EzB02Eao69MHo7fbviQUZrq3tbSHAKFLRaN3nUyTZFzJDkMDmWaJp//now/x5htv4rn/exbvvvc+7p13JzIZejN14h2nKtM44utH4/bbbsdmX9lC3mtqakRNbQ1WrFwhAIGVASwnJO2u+rM8qevM6jocWN+75SK1tDR6YjTsTLzLZbKYd889wogcNuVgpNOV+Og/n+Dc2edi7I7bY/iI4Zi8196oqalFIlGB5kxWxofH8Zzy7HkdV+mZ4Koj6OV5aqObNUpa0wToM0TR0KBsS1VVWpIT//bW22hqbBKPlhn3pEYJqKJ81haVJC2jzusyDUOjVP71W95JyyfvLGtgEl46jqXn06XgoJKXrOm/x+M5hvzJ8SVYrxTGiqwe838I0JLCYG2++WZyOQLcIDvV04CC6qEiWMVxtuQgTBSQIMDAMSs0pgISIlpFJN63mUHHIPgAoT0czpokvlQuArkrIk8uf8X1RgkCQb+qxYGGQIKhfeYKFltcxIvACdIwlOMnxyqDoFVmMealFCGgkRUMxxx7rDAIUlq9444eg6CyoImO5XISQoDQMTnYoI5WJOsorAg9xCb84K67kGluwOJPF+GwQw/GDjuORf2qlRLzTKZSyGXyeOXV1/Dccy/i7HPnCGigPFvWOvMWJGu3WEAinvCaJqlebDPTYN2Ou1totuAIXmIScmC2usu+LxRw6KGH4vrrrsFGw4aI0qbafuGFF/HcCy8Kk3DOeRc4u8MKiKwobYIAetP0AgkUtFmULs72JA2t24Ho6NUc85LPaUKmeHUt6/AlhOKS9IKMQevem12vxNt6mtXVH3R0BL7o8ZJwJjmS7vlLh8ElMAYZJ0tSU4Cpc5DJZASUKQjtKb0Qyo8eDb8lHZ5z9mzUr1qFzTffHLEY2b24PGssrsycltIWEZN8BF/ClEVwMK00b/SLTpr3fWXDWoHAAPg0g+yqwVcb8QjKpcx34MTlQ0SWnqlgRfNW4nj0h4/irNlnY5NNNkV1dQ1GjholCeMSRnWOiP0svfcQIHSZcPTUE7WM9gWfwgAChZO1+0uWfIZRo0ZhYP8+OGj/fYXOowezfOlSSeLLsDlQPCmthA85ZAomTt5LarVVEAPJalFtksPFZJ+tHiCs27G1e1VHQP0QGwt6J7IMCwVMOWQK5t54nVQykFkosswPRTQ1ZfHsc8/j6V8+J+WMV37ve6K06O3Eolr+yHNq90GntlwvBXvSnuTlWeyUsmDzauyIeud+CMnAgarqdQcC1q0Edf5qqwMrfoKdGgAFsEoPB5MeaVDJ5hCUKzhoOc49SbZ0JIuOZYviV798Bu+++64831t//7uAbbJxUh3iyZ815HJP3rL4xMlj5+eo/Dd1jLUwS3/X8GzLoz0A0Q6QYseaTLQACIFZbZEX4w6yvBP2YeG/Aw84QNpvpyvT2GabbZBIJluMl63XECB0tVz0+POVz2AVL991ulu5cgXeeecd7LrbrmhoWIXm+lXINTcgVZFEU6bJayTE0MKPf/Lf+Ne/P8a06TPQf8BAEpwu5q6Z7JacY96yteltrbRWR/Su5UF3ilfzxJTO9SrzhZErIJdtxiEHH4I777wDNelK9KlNAwWteijEEpKM+Mc//hnLVq7CtdfPxdHHHINTTztV6tdlMTpA0BZr0BaiX8tP3unTi7woEtDSLCsXdPX3Zsyk1TYbZpVJiOr0xXvIF31F/8WAkSWvGdjyvEBXKSKw1nnSKl9f7Hrre3jVW9YQguRYoIhEPI6nnnxSdA8TYAUMufJk6SsSkD9L6Csx1V06Lu1hoVrnrJRnHDwnQXIK/CTGtuchcHWHKnw9y7EA6hsaBEixXHvnnXeWU5nuWV2yeMggrG/pX+/X97N9SxWJeYbaGCmKZcuW4oADD8Jzz/wCyGeQTCWlpbA0AkoksHz5SjzyyGPSqOPUU0+XZEWW8zFvIZgIZmDAkvU8q+KNhRdgC+LkdTpStpj1TvzEQqlgp/Ip5rFy1Urs8dU98Nqrv0OxkEHD8s+F1l3V0IRkKg02h62qrsXiJctx99334EubbYZjjz1WWAQrc+IYMHzR87w6fzpsrAgQlEFgSMbR2oFa/9bzvk6ntEsv9kVyEVSiOvcKXldaNltoLoDzI0Ib6/ktOdYzOusyuaNzj9hKC7A8WoElVxSwdOkS9Kmrwx/efBMrViyXeLsl/5JW1z1S/NLoVmMtY9V6T5EvcrurW79BDz94jWAlQ+trO71cLmRRMkLWUEnm2yTLK5WNSFUVdXhFRUoYl+23Z5KiAgRfB5d/+hAgfBGp6BXfbdtT9xR/oSDInYaeTMKl370I99x5K+KxqACDZcuXSfOkSCSGeffdLy2FTz7lG5K9rh3kNecgJhs12aZHJpxtxUfXH4MQjO/JMg0mDGqjP2SaG2UpThg/Ds88/RQqk1Eg14x4MiHAiG1OV6yqx1vvvI8phx2B0077Ji78zre1Hl0yjbVxCqlSISVaxSl7jnDZ+EjCmDNYzD/gc2rXQP+lz+w8vICxau1drbvnL6fcy8d4S7y5Mk0PfDvdkhD2AbImGar1duGqwKN69xLcoyH4uWu1LO27S+RGxt6dWA2mZvh3Ho6suzkodyVfbvS3bC4j3SWZhGmdJq2tOXOgpJTTY0xKLGsp1y+u+fp9vtVe3e1Z0hbw0Fu3+GRgpFxIl3NOoGS5XwRRBATMfbKW+UE2N8xB6MaysD5vrVQRep5zIHnFhIdJisxAf/7ZX+KnTzyOSy65CP3795OEFx7z5FNPS+z9+htulFpcXbBapaAVusFFG0gaajEAnfWt1uEoSpJlHpmmBkyfPh1nnHEGdtx+FGLFrCiwaCyB1974I/LFIr5/17144MEHBDyZ8tKF2ea+R+vwQbr+UqWGvjy9u4brWp5H199etzijZtN38lY6sDw8sNKDWIOyQMHrE1Dwmj4tW7Zc+pKYB2x0ub+uOjBQnZyK9f+11QmR23nWhYq9KqwKlsKqk9aenishg7D+Z3m93oGXYBbozMUbCsbGmSXMvz/77DPpaXDv3Xfh3x+8h6FDhuC4qcdh4KBB+HzJ5/jhD5/A4CGDcdTRxyAnSF+7L8pujW69lqRLlTx7z/B2tDGJEOrIZbPS9Oijf3+AfFO9gKAXXnwJ3zxjNvbZb1/cfuddko/A7XcJlhLJhJckVZqZvF4FoYsu3gogdMYQegChM1/uogdZa6dxXT3W9qMFMEhPDl9xGjTZUpMuDRBQzph/wIZrpM2tIkj86h7bS6RrhC4436bf/Q6OmtzK8SoNfZSTkxAgdM2c9OizBIWIgmOAgO/bwuT7pKcuvfRS7LrzBBy43z547vnn8Mwzv8Kll1+Cf//7Q8k7ePqZJ13Pce405zJlAwvW9m5vOWDlmIX1OaSBgG55l0aqMthWmB0lt912a7z7ztsoZLJ47rnn8Ic//gk1tbV47733cePNNyOXdy1T2VI5HndJin78rzf5Ol0FEDodpF+fYtPea1vaT3uPb+9xbRATPR0glLKa1nXU+oasLsbf3qHr7cfZGJaOHZ97tfkTxWKx+Pzzz2PhwoW46667enSyVG+f5LX1fEHhYbe76upqj4YK5iEceeSRmD17NnYcuwMqUxWSXPfiSy/hrh/cJcmIs88+B+PGjdPtkFmTzWS1mG6VrOfRJiblwUF3MpNtAwRvPPI5eR52svvf//kf3DvvPtmXYvz4CbIN9sabfAnP/PKXePzxJ3D3vHskg5iNpmxvBumrIGGctveZWFvzvc7P21FvuTuJwtoarI6OyZruoxePWZA1KMcOlPOYS1nQNQ1fb/68XH5PMEEyrGLozbPfRc9GIZKGI7GYMAUsHeKLHjIz8/fff3/cfPPNGDlyJDLNzZJsSHaBx7/5hz/iiCOOwHvvvSfNlBhP4Pdq6+rkcwMIWiNc7tXdtFvbAMGy9PlzyZLPpSESx2vC+An4r5/9F/r26SvNoaKxKBYvXoJddt0Vf/nLn7Fq1SrZUIdjqTkZrpMicxN6tbvcRQIankZHgKLZ3ZbLWp4b6ibrNmpsp9HkdukNPaywpikIOnoS2gyUQ/r6ubVghSGGNY1sL//cDJ519iMFTuNuxp+U1NSpU3HZZZdhxIgRkiTE72SzOem5L10GYzHvfSnzW7VSPGVJXgy0ERVU3yMSplbPIASV0Yply2WskhVJxBNJ2caZyiyVYjJQEf/61wc455xz8fjjj0k3xYoKhl0i0pFRmybpbpXhKxyBcATKj4CBgvZ0GrVjQwahY9LUVrljCBA6No698mhbVGQQCAAYYlAPeQluueUW7LHHHth9990lGaipSRsjsYSRQGLZsmUYNGhgi8xYDhK/L4kwjkrX8EJPMYRrZhAMUHGfgXRlpTQJkk6J3AKbxdgoYtnS5bJx029/+xtp6sLwzICBA6U4XbY+lo53rTvd9UohCx8qHIEvMAJBUN4RwPAFLtkrvxocR3MOwxyEXjnV7X+oUvrNBENj4JrVagiSOQj0/rmd7D333IOtttoKBx54oFyMYQfdSU4NPX+yAQc9ZgKHPn36SJiCLzIJ1v7UrqN33Dv4Ua/G2DUC0p0f/S6CHIfamjqpcuAY//znP8fbb7+NGTNmYGD/AY5ZcZ3UStosc5QsQbT9sxweGY5AOALhCHTtCIQMQteOZ7c9m4ECMz7lDJCVEREkMN+A+y4cdNBBXriBYMByCsg0kFEgi8D3CB5yuaz0ftftV7XLGxsB+UX/PaOMsa1JtPBvkHHhszMpU7pJxrUygSxCLpsXlqUgfeL19c3TTsO0adOxyy67tIgl87t2TosPtgRV3VaswhsLRyAcgV48AiFA6MWTG3w0M0DWyY7G3nbzsp88hgZv2rRpknew117cbKngNdTw2ujGdLMle/lgw2+1K1yBJMOwZUDBNQnqKSGG1kLhd8JzPcwc+2LjIxUKFQkpf5SXNEKyzYuismf766+9jgUPLMA1V1+LdLoK9fWrkEqnZCwJtoLZxD29NG0DWVbhY4Yj0KtHIAQIvXp6/YcLljKyuUhtba3XlcwMP1kBbmF83XXXYbPNNhNWQLohusTCYEjCBwARCTPQwEm/xEBPWd0wRnsA6Dl6LoNgj+UlQbkH5fjoM2pnRB1nZl1rDob+7T83W1XPmnUSnnj8R+jXr4+0oDaAFWxesoGIZfiY4QiEI9CNRyAECN14crr61miIdOOlOBhGqKysFMPN/AH+/NrXvoabbrpJtgPlcXas7B/gNhQiiOD3xUkO7lEACOCwzxQs6A5/uveAtlruqZ6xBxCYjOjCBnFXwqlVHVqhYONiAMovz9LZ5LFLly7D7rvvgWf/71nU1dXJVtEcO6scse929fyH5wtHIByBcAQ6MgIhQOjIaPXQY82LpxHjy7ol0ljT81++fDmuuOIKTJkyRaoVzEu2TH0eE9xkRwyd20yG2fhCjbu9FmyHOatYKO0H01ODDD5AsP4FwQZHLRMvrR+8hWE8UCQb6Cijsssuu+GxJx7HoIEDUMxrNUMwzGDgq6cCqh66VHrPba+hGWjvedDwSdbmCIQAYW2Objc4dzAsYAwCgUJVVZXcHfdXmD9/vrAGbIZkiYf0ZhlisLbL/NtyFWi0dOc+t8+CCy20NmYKG+zVcwMM/t465ETEw3ftjSyEUPrswVKsYIIo+yTw2+wVce6cOfjmN7+JUSNHStljsKmUv/mMX2kSgoVusKB6yi2EAKGnzFS3vs8QIHTr6Wn/zZXWBgeTCG3fbwMLVnlA488+B1tvvbWwB/yc5YkEEDRGpMfJNlgeQmcy64MMQu8ocGz/nASPNJDAMWdIh70m3n7nHSxYsACHTpmCsWPHeuNc2lq23L7tIVjo3DyE3wpHIByB9o9ACBDaP1bd/khLROSNBgFD0LAz1s0Xf86ZMwf77bcf9t57bwEEBANWysi/LS5u7EFp/+5uPyDd6AYNsBGcBYEYeyM88cQTOOaYY4TF4RgbILDbt79L26N2o8cLbyUcgXAEeuEIhAChF02qAQTbHtV27uL7NP7BfcDZ3+Ciiy7C+PHjvfwCAxb8SdZAkgxdzNzCC0Kv94h2yd1nYoM9DmwOmN9BtoZ/n3feeRLemTx5slfxYWPPp7AE0WCIp/s8XXgn4QiEI9BbRyAECL1sZmlYaHRWrlwpbX6t5THBAo0+GYLDDjsMd9xxB/r16yeVDFZ5EKSy+T3ri2DAobTcsZcN3Vp7nCBAsPABAQLzPfgZu1bOnDlTyku33HJL6VbJbpYG8IzdsRvsTKhnrT1ceOJwBMIR6LUjEAKEXja1NB4WGmCsm4mGNPz8nfQ2wwonnXQSJkyYIEDCdmukEbJcg2C5ogEF82JLcx162fCttcexcbNulRxPA3FaIlkhbM5TTz0lwI7HESQY4LMKh5DBWWtTFJ44HIFwBEpGIAQIvUQkgs2OjDWgkaGBoaFhtcLdd9+N7bbbTvZWsJi4JSRqoyOls81DDZbphfkHnRcUC/0Y2LLwAoEYgVs6nZaT8/ONN94YH3zwgTA7/NwAAv8OVjaEQKHz8xF+MxyBcATaNwIhQGjfOHXro0pLGWlYaPitERJ3Zbzvvvvw5S9/GYcccohQ2zRSfOkeCpq4GGyAFNxa1QxcmHvQeTEIVpBwbDnmBG4G4mwuZs2aJftfEMQZ62A9ElY3D2HYofNzE34zHIFwBMqPQAgQephkWAzbPE7zJKU3gcsb4O8EADQaBADnn3++0NcEB3yPAIGGiS/bdCnYUrmHDUmPuF0z4JZXwE6WnBtLWuT7nD+GGq6//noBc4cffrjMj7W8tjm31tU25yYDBiCC4K5HDE54k+EIhCPQLUcgBAjdclravqlgKaMZjNJNl4wRoME54ogjcM4558gOggYOWItPQMB/ZrDCUsa1JwjBvA3mfNi22ZwfsggWyuFxy5YtEwD3wAMPYPDgwTj66KOlWZWxOxbqaQsEGBAJ2Z61N5/hmcMR2FBGIAQIPWymDSBYIqIxAWb8rVqBBoI0NfdWYGa85SXY961CgT/DUsZ1IwQGFMpdzVpZMyeBYOCTTz7Bvffei3HjxmGfffYRMMdjbG8HO0ewZ4KVpobgYN3MZ3iVcAR6+wiEAKEHzrAZdWbBM8HN9lQwZoA/jz32WFxzzTUYNGiQHGMZ8cFSRkuAK7f5UhjT7nrBCDIJ/iZO2muSc8hyR1YwcF7ZafHKK6/Etttui0mTJsmmTnwRBHB+efyqVavkfQMPdp4QIHT93IVnDEdgQxyBECD0wFk3T5LG3uhn0tL0PpcuXYrbbrsNe+yxh3ieNEqMdzO2HZYyrr/JDlaEcE6CFQlBMMaE0j59+niVJBdeeCH23HNPaaT0+eefC4Cw3AMCg08//VQqH4K5KevvKcMrhyMQjkBvGoEQIPSg2QyWy1kowbxSAgSWMjJ2zQQ3bt1sn1kYgkyBJbiZMeEnewAAIABJREFUt9lqx0E3HqEX2rWCYWGctpiZIJtjTJBVOLDjJUMNnFPrkskqFUtCLS1/DJMUu3buwrOFI7ChjkAIEHrIzJthCRp9GhIyA/QkyRLceOONQkkffPDBElLg52ZEzNhYOMEAgj2+gY8QGHS9QAQTS409CI63gTT+5JyxPJVVKMb40OAz5MBtuW2PDOvCyLs1QFCuHXY4r10/n+EZwxHYUEYgBAjdcKaDiWjlOhmaN0ov0srgpk+fjiOPPBL77ruvPBGBgB1n3RKNQeiGj7zB3pIBPhp+gjzOUbAM1Rifxx9/HK+88gquvfZab87r6+slvyQIDGwgy7XFDvNKNlgxCx88HIFOjUAIEDo1bGv3S0GPk1ey+HLQ+7RSRn5OxoCGY/jw4V6LXnqiNBy2SZMxBlbOGHqWa3cOO3J2SzrlT0s8tCoVgkArhfzVr36F//3f/5XKlGBoqXQug6DDyiINHIQMUUdmJjw2HIENewRCgNAN598UfnA3RjMiNBY0GsYGsPnR3LlzscUWW3hNj8wYWOmcgQyjo0Nw0L0mPZifQPbI5rZ0nvjZz372M7z22mu4/PLLvfnm05BNYBgiWP5qe2pYG227TggSutf8h3cTjkB3HYEQIHTTmbG4ND1KggJrt8vYNH9nPPqyyy6TRjojR46UY5iPYKDAjAEfz4wOfw/SzCHl3D0mPwgEgrkmxvoYg8Q5r62tlVwTVjOwLTOBAefe2jYbqCTI4L9SNqF7PHF4F+EIhCPQE0YgBAjdcJaCDAJDAmQM+JNGgABh8eLFUq2wzTbbYMqUKV5NPDv0BUsZS2vtgzSzGY4w4717CEBwPkorSzinzCOxUAPzEf7zn//IFtFMaORnZA9s/41geCm4yZYBju7xxOFdhCMQjkB3H4EQIHSzGTJwwJ8GDOwW6RHSi7zrrruw+eabS69+Myz2k+yCbc1sBiHoRQYfN6Sau8fklzIIwbsyUMf+FgQBlofyox/9CP/85z9x+umnC3Nk5Y8WYiiVAztnOOfdY87DuwhHoCeMQAgQ1uMslVL8wdwBCw0E48gEDOeee6501mMTJHqUtskP2QN6ntZSuS2DEIYV1uOEt/PSBhiCISEadoJDVi1wjjnvTz31FJ599lncfPPNktxIABEMJ1FeCB5CUNjOgQ8PC0cgHIGW+qJYLBaff/55LFy4UDzT0MNYNxLS3lJGGgJSxgQArFY477zzsNtuu4knGSxlZCyaxzAhLZzDdTOH6+Iqln9AOeBGTsxBYMdMzjUBwKabbor3339fwCLnnTJhG0IZk1Su5HFd3Ht4jXAEwhHo2SMQMgjrcf6C1LLFnXk7VtdOEGEGguDgjjvuwCabbOJlr1upozXNsXMYvRzmGazHye2CS5cLN1m1AueYQIGswgEHHIDnnntO2AW+rD8C+yqQVSjtntkFtxaeIhyBcAQ2gBEIAcJ6mmSj+mnkg4aAv1sXRNuY54wzzsA3vvEN7LDDDgIOrFqhdOtfAwjlOuqtp8cML/sFR8ByC2z/BWMDggmo3L+Bm3P9+Mc/FpAQZKeC4CAML33ByQi/Ho7ABjYCIUBYjxNuBp2UsO3ISIrYstCp+O+8805MmDABX/3qV+UYZq2X25jHYs+ltfOhUViPE9xFlw7mphj4M6BgG3e98cYb+OEPf4jTTjsNgwcPRlVVlWzu1K9fP7kLS24Mw09dNCnhacIR2ABGIAQI62GSg0lojCOTKbC9Eow9YNb6ggULsNlmm+GII47wShnJHtBI8Dt8Wd+DIAthXmMYYlgPk9vFlwzOYVBu7DJ8jzLALaJ/+tOfSrLi1KlTvdBCsKKF3wkBQhdPUHi6cAR68QisRYCg+9zrK9KOIbTj23NsO07XjQ8pjS0HaWBrjXzxxRdj7NgdceihU1AsEgjkRbnbd4P7KpTWupc+emgUOioMlMVSOWwpzy2PKHd8R69Z/viWoECvo4yCv65WrVqJWCyOd955R8IMX//61yVXhfkHpYxD52WhI+szOFatpLFrBqbbnMWf+7UnBd3mYcMb2cBGoIsBQlGMWSTCn6ok1Hj5nkuhQOUWKfFkeKwplWiZKdDPik5pr20I0WFoI8/X+rbbUhhGGfNnNpsT40/FT3Ygl8uKgmd9+y677Crv8TiGHdLpSq+skUyDjIkYC15cxzwSiXq9EawJkh+ScOPo5kPnpTdLfNtGrVgseIDLp+uLiEYpr/wsikJBx4ef5/M5xGJRJ6URkUUOnQ5fwQ1iOdntuvHV++Kc27zp1ZuaGqVyoU/fPnjzzT9g3j3zcP75F6C2tkaqHvgs/lps23ivDjwU7Rm9tdyW4BShx7r1j9Ix8Uet5ci0ver8T1qvqHIwbnUi7QGu1Qg+Z7f1S88avBc7TvWS/uVdu8W6dHqQklIsIOqu7VSkfjsScaHDcnffqxdp1y2Q8ExdPgJdAhAskUqNlCpeNUoq2FRQPIbvq9GKoJCnMo66FUWFYko2BhQDCyJi78uZfA+qraFYzcIvR9F6Vyr5XkdAQmmcv9x1TEHbbedzNDgxUSocK+uUx2qFa665GqNGjUEhr2MZizOcUMSKFVoHb6WMxUJBDJUonEjRJadxF0c1IKaA1OgpCDMAwbHs3eAgqM7LKVgflNr85fNFAQEqxzp++o/vU/R0vFUOYxxyN4Y5957KdkdfLeXF/37r+bF7ZlhBgaGxCQxVZXPc/juFT/7zKY47biq4uZOGr7gWo2V3fQze6+oAQgF5Z+rt+f37NDkT80nnwAEEhVFBgBD8bnCcbLWVX3USZpHD1QQrNAuOdMfHvKWx90fBBwfl7iUIHfhsOh8+QLA7s3vz9SHngMISEf2n8yf6r4gAYDBmqPTanXu+jspheHw4AqUj0CUAwTxUpcGBAsGACH9BFVg0Ku9FYzEU8jnQsMVi9IA1jo4IFSy9aK4dvhd398lF5d4XpfAFPbS27ERLbdMxKfHcgMDJV+eai05xCoBAKp9HrqAb9Bxx+OG4+uqrsPU226CpsUloYyofjlkymUA0puPIl98imeDLwAaBGY0Zx09ZGjMyGsumoYh520B3nm7u2BCtv6PbZhCUtaFs8gfHiYyBKuh8MS/vxaJxUeDFImWXSj3nFDxlO6bMjcy1yejqAALlow3v3bewLcGxokq3Rsyk+cBGvdEo8oW8K22sRDwWRzabxzbbbIu//e2vUhFjDF7nE1aDDJ/JOZ/d/e7JM8cieJ/lQJoDCRI2UwBsRlPXvzFhbrxWi2ID9xIUsnJrskNCGJgnb24CgEge0gCCMZstGYR8ju3RDbw7BUNAJ7CiIMCpQN3ItSyypyBOZSQECB2arvDgtTYCXQIQeHesya6oSOLlX7+Eww8/AoMHDRShr6hIoLmpUb2XAg2b6rx8XheLaBRhCYpq/ql0ig4I8H26afJ/S4+lLUzdlj4pXXYeHWi2ugR7qB0vUegllLx86k5kxti8TpsxecISZykeiyCXV5Ja/A91JOR69P7prfKnKJgojT7/VuPFnyQU4vGYfL+QyyOaiGP5ykb0HzgAL77wojITxQiyWW2wxNJI9Ywt5OM8sV5PIbQFEJzn5wCsVpMouJKyUwAffPABivkCYiK3BL6cEBov84I5aTqDIqOcSRnPMkZLRdh5nEGj6Wy/J2bB75dZ80JZ6PfzBCsRMlDKPqUqKiUMlUjEEY3GkcvlMXHinnjppZfcPVkoqi1d4gtpWYqdi9fWp0qSWx/Om/ce2ww7b9OtX++SPjhwwqjnMDreG7+ijrnoBmdcW9z2agxo6ZoNfq+F0gjqE67ConryrTBc4Everw4MeEAkqDxMoZgj4GioaASbbvolcLGvqq/HgAEDlVFwnIhiIw1xhQBhrdm78MQdHIEuAQj+zoFFvPTiC+BmMpdfeimq0pUCCBZ9+gnq6mpBGyXoOVJELJpAPp8QWBCJZIFIlioaKCaAYlKBAt+PZhxooFfsGAdhG9rwxtoYADnaFrjp2cCxqiI8XerObjkVzul3CsEd6YCLC3xEo86vcAbAMQWq5AKLnp5TkYYnJl/k2BULekN5izGLQYoC9PYlzEAFRDaGnoeLizvVwlBNvljE8oYmHHPscXjqyaeRSqUFJNBgsCyyuVnBm73Uo9Rchd7NIrQNEMgKUBY59plsVj1Zx1C99sbrOH7qVIweMQoRN+axmI6zes0Gbh02MNlxQM+Z/ZaSGLAbSsX74KA12A16q84uq3VWPC04ugiKDe0JwR+JpXgshkg0glyuIPkHK1bWo5DPBnIW3C2V2iBn8H1oE1xbDgGXrJlydljH0H/JEiaoUuvnQyR3eguT0CiqHPpJuJbtoc6BGwO7hza8g5YxfV0ofqhN17LcSsFbwd5USeCiBI+Ugn1RD1yz3g3ZNLpgg4yrnjsaUXaHd59MVeLV117F/fffj7E7jUM0FkcjHapkCom4saWWp6Vg03+tATR2UOGHh4cj0JER6BKAoOtfBfu5Z5/FIwsX4tprrkYyEUNVOoVlSz5HVU0aUeTFyEmcshhBsVChvEGE3lBGwwyFJCJoDRAiRQUIwiSQ0hWvrWMvp+rKf8mUh3sW/dO/hpWbqXLxD5bfA7dixzlu2othB983yteAlfeZ5AroGMn4iIbyT18g1U2akvR4MaIhm0IRjY0Z9B+6EfbZ50D85Cc/Rr5QxKBBgwUkkGImk8AQxYandFYPEIydyjHsReCWLwhY+Ne//41LL7kUC+bfi2gxj5gwWQQTyjSoHEpSQiBcVBCj7VkcY8eC+TSeidTzicERMStlHVpawIA9CgTeCXAU4GUzOaTTVcjmcsjn8khVVkqHxeqaGuQymUDiZRAZmOEJ/BQDbAbKZ0bkPj3mpOW68JaJgAMNO3jLQRiPAJh3TKCREb7eaMlsKRAOgCgHO4zRCzJ7PlBRNs7QkAJpBeemmyx84a1lb7ZaI47gGrcnVgCk1xFM7/552QiB5GwU8pI7xNyrVLoKp512Os48azZGjBqFgoChqLB7hjb8apNSvRYChI5p+fDorhyBLgMIEkOLAM/93/9h4cMP45abbxIUnYxHkWlqAKhohQAw5UjqlhvJRFGM5oBIRhmEAsEBWQTGJsksEDhEIAChoAxC0UIPHRiJUkxe7qsS3RAl5qowDAc4r8Di+EHs4GdFa/qUfmbfdwZevh9EEc62FOiVap6GARKJK0vOBpWQn4im7g/DEREwwVGSziIxJBIVWLmqHtV9B+DAgw/DtddeK6Br222Ho3///gISGG+XDHzvfMog9P7X6gCCAlWOje6aGdOcj2IRb739Ni44/3w88dhCFLLNiNHISV6CmXT6tw4geFQAExgtoTZodH3j4xvfcgChJUgIhtRsnnysQcvkKhok2Y1sFLcFzwnI0T06ikhWJJHLZjzWobxn6t+rj7kdSJA3nLGWsJ8BjPLg3E/qtJXA+2R+kS0kNwKOTTB7LqMayOwXZicQVDQWwDf0GnLU69nKcffmQLVgFS/Z1K0dB/690F5JiI3rTU/K63tL2WNAuGYsCiHg3kE81Qvueh7o0EREvl9dU4uzzzkfhxw6BdvtMBaNmQy22GJL0XEMCcn9BKoeWt5WCBB6v57qvk/YZQBBBbyIF59/Hg8+8ABuuvEGFPM5RIpsDUyDzwQvLmvnURCNF1nCBxQiVNCqSMgeFPKMo9KgZQE4BVeIA0waYzYwqVy3oNQLp350iZBWJSHensbxmUEci1tSkFNeLF2zSgJHLVChWMa3eRmqnJyx5t3naZy1qiCooGhoGPeVGKJTXKR8SfNbJrmdyzfUChA0QK1KwuKQplx870Vjulpyp9eKxRJIJiqwqqEB/YdsjN33nIzrrrtOQMOIkaMkzqm5ES3LTl1QpPtKZZfd2eoBgtLFRcn+Jx1M6pfj9de//gXfvvA8PLRgPlKJCOJRF96ReYpJaJ0GORKNiVFOJCuQz2VEvhVCaMJjLJ5ANpMVgy2skCTnMteBjJkCSU3mVcm3HBOVAU2ClPXhQlJMZmWiql5DK3+YM5GsqERzU7OEpOKxBBpWrZLyWOYmVNdUw2Oe3PWYW8F7JxsmoSYB4AFywlgEPo8zmF4IwIW6eB9aRQPEJFzFvCJdczI+AvDVIaD8qfE1wkWrG/Jcoy5ZUUCxrGV9X0CCVI9E5d6s66itOblnWfN6Dx7jF6ju4DXVi+d4k3lT2KWtqHVONGyj4II/OJ+xAFihrrH8H2P+5HqW9CuJh/rssjYLBQn1cGxYFRNPVKC2ri++debZGLfzLhg5ejTiySR2GjdeZpGhRhUFJzsb7FrtskUfnqgLR6BLAIJn8Ap5vPTSi5h/77249ea5SFVUSN5Bc+NK+RkVBcqFryWP+WwEiWQC+QKVm/OkC0TpmnldLOYQj7k4eZHZ/JCksZxUSai7b9n8XKBM3AvSkJ7Ske+o1y2ggUrI7YHAkkHJAxDvXCOfVLr8F9wESSswNFvdPAYDCVZGSPqf90cFZCCBWoff8/M0tAKBwCGeSMh9GQBRT0q/H48nXNKiGncNOygYovEgQKAxaG7OYOnyldhk8y2x97774667fiBZ7F/ZYksMHMhEUVWyqgzNU9tQvJK2AILCLqlWEFCYdzkhWp77rw/ex4UXzsGDC+YB+QxQyAo7pkMY00oQd2r+TqOg4qilvWosOOaaZKrrQ+c9l80ikVBWx5cJpcIpCwQTBJRkNZSTsgqLAqJxzrsCaa0QJuBQtkBCTQ1NMsdssxxPp7H8s8/kd5XTln0y5HsBoy0AyYFPPX9EgImVH5tXS8NNcMD7MFpcZF7AcQw5GlgaX2eMbUxkXbq1YPrLwgM83sqgZcxYrcPF7npQBGl4Bc66VjMEX4kKqeKgPtBwjYIJW/uytsXoasIpX9LK3IWH1Kjr9zW5t+BFL6W7qfUucI6HPIOXhKBzKJPhYBvvjWNBw68sRxTpqlqcOfs87LPvvthk0y8hnkpi3PgJIiOSi+THSVzOxIa4VrvQqoWn6rIR6BqAYC1/oxG8+MLzeHDBA7hp7vWIoYB4FKhvWIXKiiTicS4u9bJFcURiyBXYatgP50ZjCRQLlthHF08VopRJEm3TM3ENa4jSzdSJkpaMc+d5CM2qv4tx58Ln51z04pkoLZunh89jJTdClTm/Zx0NRYk6BSsLP0YD4UCAAwvS7tgpSVFeAcqUitTq1Q28mAITIEHL4vWNcJ6nlKrRQPjJhAYOtCWzzn88lpSEtEQyhYqaWuy2+yR8//u3i+cyYuRIDBw42LViDgFC6YoRtoievM6uyKKBww/+8R7OP/ccPP7Y/cjnGxEXcGA1/QYOrKGSevmSGyKAQwGcv8lSwANVdKnGigmFEQjYFSAQ1a2aM5lmj6GS951MyvliMWfk1BUPesYVKe7R4VcEsOVyTU2tGkPKeiAhVVgJWRtaDUN50fuCMm2ua6d61bpmFeDo+tBkWv/e7B7N6CozoR4714WtQ/98fm8TGkmuEQJiY8cEOHGtyvLnutdz2D1aWRBzbQgusnmGKAPhPQciCPAJuqgbYlINpOcSHcGxcuucQpDJkgEiSNKupcENzyTfwLE5fuiBrIg6EZbkSmrTAyY5BW/ZXBGpdA3OP/8i7LHnRGz2lS1aAQQLLhmQ3DDBfJfZtPBEXTgCXQYQ1DAW8ZuXf4375t2N22+9ReK2zD9IVVVh5dLPUVOjW89q9n4eyVQCK5ctQSqtoYZIJC6KQih0aaSkceFCPgOWBmaam6URDL0UUybm5Tc0NKK6rlYMvhpgzVeIJ5VyTSSTqmTEy3chAvG88khWVHhKjJnqEQcS5DvFgsaoXda/Wmel+alcLYSQTCSkFr2quhoN9Q1idhKOYqZi5X2uXEnqNykKK5ujJ5kQL07LEDXhkAqGzALLRpOJpJyfn6cqU8hmmuX3ylRaFFoiXoGmpgwymTz6DR0mIYbv3367AJ/hw4djwMDBnveqSsfvYGl0aRfKUjc8VdsMQiHQ7c+obU06BP7x7js4e/a38KPHF6BYaEIiQc8/j2i8AvmsAlsFb0BjQz2qq2sklCA5LJx5ym82i8p0pciENbZKUM7yeZnHynRa6PGmZp6fcqBglsmkNGA06uJVu54XIlu1tcg2NeleHBKCU2+awJVeLOWm6Dz7FStXok+fft5aoAxzzZD+JnioqqqWXhuJZNzlWuq5uBYa6+vVWEqZrZPHhnpUpCqEghfA4UL+vGZDfb18L9PYKPdPdo73TjllLo0B/HhFBRpWrZSwR/1KrsmEM8SQ8WJCLeVegFCcpZpZBRnxOJplPbDqSRkavrh2qA+aMgxD6r1y7ITFcGyisnMFuS9eQ/N7OD85JOIxAXbNmWa5X7ItXJcMzdTW1WLVylVIpdjdNCckhgBBqRSRGCcamxpkjpWJ0fNQNqSk2IWhiP+qqutw5lnnYfc998RW226LZKoC48bvrI3jAnUfIUDohipkA7+lLgMIsmDzOfzuty/j4YcexLVXXSEUaLqyEp8t+hT9Bw1CNtssjVyKkSga61cinYohGlNjGY1yIXLd5ZGoYNiBaz6BfKaAREUU2Vwj4lRYiKB+VQOq0mlV0gHWgIu/ubkZVMRcbFSGLCeiYuEipqriezTQeSqkigpRPFRycv/ShCCKbFOzGOxERdJTfkZfUpHwOCp1Kgl6gEbN5vi+oxttMyXGe3mMbdMsmfDRiBgOKj6+eD8GnDQWHkVDfaNXhdDQUO+UV0bAR3VVtQAHsrCpFNsvA9GKSux7wEG46eabJDdhxIiR6M9aa2fIWgIE9Xrts967BlYHEJTp4bhoMqi2Vk7Eonjnrbcw55xv4bHHHwCKzSLHZGoK+QhSVTXIZ3Jq0CriyGc1RESCO5sj2EyJQWTvDwLIWEKZLBroJH9nKCGreQniuUcgskSa23JMmLtD2RDGzLFnen+Wc1DhYtx5EEKkCILr1YCLPNFAF4qoSBL4KjtCGYwnkpJamctnHRXPioeUGDaJvwvbBWeom6VENtPMChjmBRVknfDvSCyGpuZmeT4uKp6bBpgloTS+9NaFDWnMIBpPaFMP5yYT5KfTKVmLBloIxJctXSptoTk2Wceskbgn+GE1BkE+15lLW5Dn5HU58umqKjQzZBeLoaGhAamKlKwhrn2CHFYLcA1xnLMEEwQWSY5hXpwOcRqE0YmgsbEBFZXa0pz3Uu3OzflJJivkuZmrwnuh3koJCGyQ70uIolCQfJA+dXVYunQ5KlJppCqrMfuc87HHxMnYfIstUJGuxIQJO/shJC8HwZKSwxBD79VJPevJugwgSByvWMRvf/syHrz/ftxww7WIcFElSJdnXMc09ZLZ4KW5qR61NfSQV8mCy+cJFtLI5RuFWWB8MRZNIxatQHNmFXK5VeJ5NDc0IFJUKk+oSacc6/r0Rba5SZN+xCtgeZcmJpIloLKTGC9pvwyVdQIrVq5AXV0fNPKcNOySeKUJTNrhUGPK4tE3NIrXVpFKyflXLFsuCoF/02MkMIklk1JWJvsnFPLi/fB6pI1NQzY0NiBdXe3FoCX+LUZE79Pi0jQ4ngfpKhCsjXU+5zpUst1vhJR3BLFkCgcecihuvuUWqQwZPnyEAARLevQBgsZLN3SA4AJHXvKb5KUwqSwWxXvvvI1zZ5+OhY/ch1iMJpghpxSamkgpV4phk1JT5FHhmKPqmj5oblSwGU/ExRNOVVK+myV8IAlzzC3IqxGtoKwItc8EWsbuNSeliQYqVYFYJIamRgWJTGpbtXw5+vbvp0xFkQC1AqtW1SOZSrEOSBIRxWhmNSlW8wHUqBHcxONJCUnw2jTQlFcFBRn5rnTqjMex9PPP0bdfP8ltIRAg8cR7zWfyYrhTlVUiPJRTPlNjA/eA6IuGVSs0BEF6niCDbEMj2S9l6Pgi2yKlfSB/4zqs5vKyXgh4JamymuBX700FVfOOOJ6VAobzQunzuXkP/J36g8/D+yRrJ0CKuT1k8RJxAQ0EDMLkaIahMAi8V4KKYGhRO41yHRa9MKOAgwrmOjDxsODCdnFhgT5fskTWL/UOGQ/2NSAzoSwic6wqUJFSgLDbHnti6222RSJVIQDB+m6EIYaeZTQ3pLvtMoBgGcG//fWv8fCDD+Cqqy5FRTKOd956G5ddfjmmHjcVe+w5Gb948mlRbF877GCkU0Uk0wnx2BOJWnz44SLcdsdNOPmUmVixsgELH3oCF33nclRWRhGJZdQLi8XEQ2jO5uR79IAIFIjsX3/tNTz91LO46KI5EqqIJyvEQ5AFGAE+/vgjfPjvD7H11tuIt8KFmuDCzufAEAXjr1TuVLCvvvo6Lrn4SqSrCFZIZcZwxx23iwKiR0WAQe+Gz03lxDp0KggLb1jiGxUyz6khCWZOA02ZZqVCc1nxFD/9dBHefe9d9OlTh4cefghnzT4L/fv1kyRP0sCW2d3c3IhBAwfh008+lXtQ6pogpQpNmTz22f9g3HXXnWJ4GGIgQNDs89ZVDBsyQDBwIJ0ohdrXXA96yYl4FO++9TbmnP0tPProfMRiBTQ1NSgwyBRE2dOQMlkv19ToEgWjWL58JaqrasSo0sAlKytQyNFAMpGOceqMUOr0gNPpanz04Ufo23+AxtXzPCYurFKfvnXi7XLWyA5R5skI0PDQ+6WcaS6LZvurbJB6Uy+dXj2PYxih36ChaFi+EqlUlbB22hUy5xIq8yBYTaVTyGQaBeiuWL5cwhjLly5BZWVaKjYkVFCRRiJZic8++QS1dX3EsJFqZ74QDXimuUk873QVG6PxeXIyZjXVNSgijlyG64JgPonly5ZIx8/G+lXSr4HMAJkLYQ9caIIOBUNxNLJci1WVabkPZWLIruh4co1n8nkx2mzERkDF8fS2TxeGUatD6CysWLEC6cq0MANcW2QRJWmUG5/RqWhqEtAjLCd/JrSHCEHN0mXLhKlIJJISFqIDwrUnYSOXc5Fp1utXVaWxfNkyATSRWFzGf/Y552Hg+SfFAAAgAElEQVTX3fbwQgwTdt7VL4t27oPqDs1tUXYvUC67IVml8Fm7zQiUAQjOmra6RaNr7QPFvVZiRE8kGY/j5ZdexAP33487vz8XxUIGb7z2J+w5cR9MGL8T5t50Gx58+IdCcX7novORTmSRzzejqqaPlDa+/c4HOOPMU3D1NVfi4/98hjtun4fHH/spqmuSaG5eKVn79JwWf/oRarhLXZSGV6sX8vmMGHp6In3r6pBnzDgSE/qvpk8dcrlm/OiJJ/Dmm2/itFNPx5Bhw2Shr1i+DEOGDhXvilQrPanFixfj7bffxne+cymuu+5q9O/fTxTxgAH9RYn169NXPD0uaCps/hQPJ12JZcuWS9IgqejFiz5Dv759RSkvX7ZUAACb2lDJVVamkK5O46MPP8T//vxJ/OMf7+LoY48Sz2r4iG2x6JNPEKcCiiexqp5eWn/U169CujKFfK5ZyupoNFbWNyCTK2KjTTbDxMn74Pbbv49MNoeRo8ZIHwRRMi7RMhhTsDp7v0q/28hkF95IyxBDqQTbhSzEI15jNIL33n4Hc84+E48uvF9CYPQQkSti1knfwPvv/xtHHnUMps2YjmyGeS/ViCIneQVMoJXke/FK80hUprD882ViYDK5JgkjsCVyY0Mzamv6iMc8//75Mj/Tp09HVV0NVq1YKkCV00bgSeaLXi49XjZv+uquu2G33XYTGatMV6G5mbuBcg1E5X5icfb/hzANVVW1eOWVNzB9xiyh4ocMGYz5996DPnU1qExXSKw8yyThKEN4/BnDz3/xc2y88Say1ThfGvqISjMuxuTPnTMHr7/+Bwm3sMSWa6gmXY1Ro0dg7k3Xoa6uCpEIjXYGyUQKjY0Mp2iyoLAkcRrMCixdukTWAxkByvEnn3yCYcOGyTPTOL/88stgR8uvH/F1DGV4sjkjeRZkDqSR1cWX4tVX/4T+Q/vhk0+WYO9Je+DKKy91/VYSMraDhgzCxx//B1XVNVKCmmTb98YsGusbxXmpqaqSEk0yiY1NjUhXsQOp6pSGxmbJAeLzP/PM06IDPvn0M/zhzT/jW2d+U9YWQxwr6+uFVSGQq2AzsmJRwj0E8osWLRIQX11di7POnoPdySBsuy0SFSmM33kX13RJpdBKHa0aRp0aBQgbxlrtwmUfnqrLRqCDACGocH2AwKxm1g7TCL/++9fww4WP4JKL56AiGcGf//i2dPhL19TitFNPQ319FtFEBBP33AVHHfE1/OmPr+K9f/wTjz32U+z61T0x7747Mffm67H4s+X4zoWXYv59C3D9DVfh888/xh/e/KvEM597/mksWrQYV1x5LV586bcYPmIr/Pf//AQLH3oQ//OzJ3H7rTfihuvnYtGniwUQrGrM4I7v34QbbpiLv/3tbcyaNVPAwGOP/QhDhw7CDTfcgKHDhuDCb1+A995/F+PHj8dOO43Dww//ELfddjOGDBkiWy1TUb/6yu9x1pnn4sQTT8AvfvEkDjv0UBx00EE4+ZRT8MrvX8fwEdvgkksuw5gxYzBnznn41a+eFY/mxhuuwYjhw3Hxdy8XZfKb374qXsi8eXfg3nvvx6+efQ77H7g3Xv/Dq3jwgQUY2K8vLjz/Arz88qsYOmxjXH7FFeIFzZwxDTuMGY3XXn0Nxx57BM448ywWnmHA0I2x84SvSg4CPZZthw9H3759RSF7NXlesfuGonTaCxC07FaqCyJRvPc2QwxnSaOklSuXSmJdY2Mzvnb4kRiz/Y4yvpdcehkGDiJoW4ZV9ctRV1stIbam5gIqU1XIF5uxePEiDOg/VAj1VDopQDHTlEFdn0FoWFGPf/3rX7hv/n0YNGgATj/9m1i2fJkY7jxzd9KMXaeQcVs5E3x86/QzsO9+++HrRx4lIYAVy1dh4KDBEk5YuvRzSaZEMSv3UVNTg0//sxhHHnUcLvzORZi819545pfPSPLwY48uFOZgVf1KARYaP4/igw/+iaOOPBpXfe8qTJgwAUWG0CpSyNQ3oK5uAF75/e9lM7GZJ56Ee+6ZjyOOOBrTZ5yIf3/wL1x+xSU4bupRGLvjKNEDyVQS+eYMqiprBDwTWNMACwAo5FGRTmPFUj5vWr30ZFKYwQ8//FBk9oWXXsSvf/MyzjrzLPSr5pbVETSw4igZFxB+xmln4PTTz8DGX9kco8eMweL/fCqJzIUCG65FJWfn/Q/+gU2//GVksgV8tngRorGIALOqdBUyjQ1YuWKF5JDU1lULKCNwb2xiFYkyc2QTyOrss8/euPbaazB+/DhUVlZ5FQ6ZXBZLlnwu4J0sEVkDrrn3//E+aqurMFQcD+5Hk8JsAQh7YIuttkKqMo3xE3bR0EYLVa770VhL9RAgdJmdC0/UyRH4QgBBqU6tSqBHy371L73wEh564CHcevM1iEby+Ntf3sNuu03CpZd+G//1s18gmajE9mO3wyFTDsTRXz8cb7z+Gv7x/r/xyCM/EoBw863XC0BYtnQlbp57O2695TbcOPdqbLPNl/CNU76B2bPPRnOmAf36DUBtXX+cc87ZmDv3Rrzxxqs49ZRT8P3bv4/rrrkeV15xtRj56TOn4aCDDsQJJ0xHc1MWb731d+yy6wR8/4478L3vXY0///nveO2113D2OWfjvPPm4KAp++HQQw/G3/72Fo44/Fh85StfFvp36JCBuOG6a1FbU4Nrrrke9933IE45eRbOu3AO/usnP8Fll16G//3FU3jllVfw+ZLF2PwrX8IP7robJ598KpYuWYyf/eynuOg738bV35uLXXb9Ko488khcc+3VyOTy2GSTL+Ojjz/CIYcehDlzzsEP7roD//fM0/jLX/6CSy+7Ak8+9Us89cyzOPXUU3HqKd/Agnt/gL/8+Q947bVXMfuccyRLurZvPxxw0MG47bbvS4Ln8BEjxMsRR8Szk34z+w3DK2mdpFiORdDqFlXMBLrvMknx3LPx6MIHkUhqA4QfPvJDXHvtTbjl1ttxxx0/wMnfOBVDhw3F/vvvj6/uPg5Dhw5GdboK//Pfz2DE8JGYOWsqbrplLhYvWi4GZc55ZyGRjOH+++7HLTfdiWeeehaPProQo0YPx8CBfTFx0p6YevwJOPCgA/D8Cy9i0MDBuO6G7+GhBx/Es796CaNHboP/fPwRjjnmaDQ2ZbDw0cewsr4Zhx9+mLAPTz/9FB5Z+BDGjN4Wr77yJm699Ub8/nevYd69D+KJJ55Abd8+sl34UUcegVNOPkkaNj300EI88OB8PPDAAixbtgyfLVqMhx9+FBMmfBUHH7Ivnnzyl/j440UYNLAOV195NW659Vb84smnMHGvvfH+Bx9gn30PwQ5jxyMaLeCGG27E+Recjbfe+jP+66c/QmN9DhtvNABnnvEt6a4aSyQwbcY0fO+q72GzL20q6+i+++7DFltui/977gXcfOM1GDliOC644EKsWNWI6tpKbLzJxpg5bQZuvWEu3nrrfWw1YiscP2OabHr0zVPPwF6TJ2H7ceNk7jYeOkxyMa644ioMGtRfnnXlqpW4/Mqr8NJLL2PBgw9g5apG7LffPvjmqd/Am6+/jgfmL8CiTxdh7E7b4eRTT8Z7776PM844C7vttgfeeP0NTJ16jIRq7rzrB9h0ky9j1OiREmKcM+dsLFjwAJ5+5lnpabHplzfCrJNOxoIFD0q+wyeffIb/fPwBrr/+OkwYv7OwRmeffS72nDgRX9lyyxAgdNJYhV9b9yPQKYCg8Wsjp12Mu8Bs7ix++/JvsPChh3HzTddJeeK77/wTX91tTzz99H/j0Ucex7x59+PEWTNx9NFH4tBDDxXlsfjz5Zh37wOYcujhuGHutbjt9pux6NPPcM01N2De3ffg6qsvwZjttsS0adNxy8234I9/+RP69e+PLbbYGjOmz8D//PfP8MTjj+GEqSfg4YcewdwbbsK3L/wups+Yjt123xVnzT4DEybshqaGHN5+528YMXJr/ODuu8XLj0TTGL7NSOy992RcfuV38Y3TTsSeE3fHk794GnNvvFVi+kOHDZJcBeYx0ku4//4FePjBR+U5jpt6LH70oydw88134MUXX8bf//ZXZLINWPTZh7jhxpuwxVe2RTIZx1e23AIH7r8Xbrj+VkycuB8OPOhg3PmDO/HhRx9h869sjb+99VccddTXccF55+DhBxfg8UcfweLPl+Ci734Xz7/0Gzzy6OPCwMw+60z8/Gc/we9f+R1effX3OG7q8Rg8dJhsCLPPfgfg1ttulWY+BAgDBgzQEIM1dtnAGQRbXqUgwQMIrtOhJCme/f/tvQe8VdWVP/699ZX7eqFaUYoIEVsUKdJEbMkkRie9x5noP4QilhiT2FJUjAgaEiugKBqdZGbiP4lJRpEiJk4ssSCggg2pj9dv/32+a+19zrn33fd4Dx8+MpybDwHvPWefvffZa63v6rOxYsVyhINp7NzxAWbNnIv3t+7Cued+En/805/l/Y0fPwEXXnAB7rz7F2Jip3vnvXd24Ic/+BGqa4vx/IvP4R8vbsCTTz6Jk08eg/POOxuXfPsS3HDdzbjxp/Nx2mmnYk/jTsRKozhzxjR8+vzP4p577kZlVSWuv/5ajBs/Hv//44/jRz+6FkcPOQrnnXcePvvZz+CVV9ajtKICQ4cdg5vnz8cf//hH8V3/+IZr8cQTv8ctN9+IyZOn4Pe/+wN+89vHceedd6K4tFRiDr70xc/jc/96AcrKYliy5D7cddddeOihFdi+fTvOP/8C/OtnP4vvfe/7WLt2DYYNI819BfcvW4o/Pv57XHfddbjux9fj6xddhNsW/RJtiQwOOfRIOV7l5TGMH38qlj+wBP920Tcw5fTTcfVV3xcrQm1NLYpKinHRxf+GH/zwhzhs8GAcOmgwli17APNvnY+ly5aBBYcH9R8gfVwe/e1vcP9DywUgf+mzn8e13/8Bzpg+A4cdfRSGjzpG4iXmzrpUXBU1tf0FAU+fNhUzzpyOZ9etxRVXXo729jh+/ejDyGSDuPHmW3DcmOMx46wZWHT7Inx35iVYcs+9WP/qBkycOBGP/ccj+N73L0c2E8Sc2VfizjvvwvZtW/HYb34tFpWZM2fjumuuxwcfbMWmN17H+PGn4ZeL7xSwQxBzzQ0/RHl5JXbtbsbQoUfjU5/6BC6++CKcc9bZ+OpXvi5u0blz52LihIk4evhwHyB89HLOf+I+7kCPAYJjNfDk72oRFtrG4lizeg2W3LcUC35+o0Qrv/byRpx11jn4w+9/K7797135A0yYMB7f/NbXcfEll0jPAAZrvfvOdkw/8xws/tXtYtZnitDVV/8Qd/7yV+JiCIUSqKnpj9Vr/gez5sxGY3MLnvjD/+DQQw/H+ldfwoUXfAbVldW4Y9EvMf+mW/CDH1yLL3/lyxg3YSzmXDoT4047He1tGTy0Yjk+df4M/PWva9G/3+GorhmEUz9+Go44/DDMu2IWLvnON3HKKSfhd7/7A66+6nqcc85ZEgCVScdx4QWfFpPirT+/DcOHHoutWz/AJ//lHBx19JH41kUzMW3KWRJLcNq4EzB12jjceNNPUV97uARBTZo6FocOPgQ/+9kCFBVVor5+IP781BMSkPje+9uw4uEVOG3sKfjtYw/jL0/8AevWrsWKFY/giCFHYcu77+OYUaMwfvxEfPPrX8ef//A4nvvbs1i3bh3+5dPnY8Qxx4qf8syzzsEdd9yBZDqLUaNGoaamRqtHHrQAoXtUIQDBmHa5XZs2rsfcOXPx0IMPIBRI4m9/ewbf+Nq38LnPf0MC5J55Zh369e+PL3/p62LRWv7gUvQfVIdf/OJ2NO5pw5VXfh8vvrQGv350BWIlNXj99Q0YP/4UfOPrX8VPbvgJ3ti4FS88/yKWL78f//Wfj6K8rBiTp0zEhf/6JfzPk09KXMntC2/FkUceidWr12D2rEtxzDEjcOGF5+PCC87Hk0+tQqSkBEceNUzqbpx//vli/bjllp9h5VNP4bK5s/Gp8z+NDa9txCWXzBKQO3LUaMkwuuG6a3D9dT9S98Y9S3D33XcK4G2PJ/DJ8/4Fn//Cl3DNtT/CypVPCUD41re+hUULb8Vf16zBFVdehhvn3ywA4Wc3L8S3vzMLU8+Yga1bt2HR7QvR3LwH7779JmbN/A5OOfnj+OkNN0iQJBuHcYcvmf3/4aJ/uwgnjzkeRxx6OP7rt7/DwsULsfT+ZWjZvQflJTH87nf/jWUPPYj/+N1/4oX/fR6XzZqNV194Ca+t34h/bHgd9YP7iaXl0jnz8I2vfQ3nnHOupJfSysMA0zWrV4q7gy4DWhNq6vrhZzfOF58/Ad2j//Ef+Mz55+CuO+/GptffwJgxxyNSFMDZ507Hnt1tmPmdeVi65H689/5mLFl6F7721W/ikm/PxE9uuAnvvrsZm7e8Li7I5fevwLXX3CBupvkLfoZQuAg7dzZj/ITxmDRpPL5/9eUYN/Y0XHjBF1BaEsPs2bMxYcIEyWJgGqXvYugebfpX9e0O7CNAsBYEtSLQ5ykdGtNtWL1qFZYuW45FC28R7XXX9gasWbUaEyePRTQcwot/f0mCq4YPG4Lnnv+bMEP69crLa9CvfhDefncLRo0eid27G/D2O1sxuP9AzJ//Exw5ZBAOP3QIKqpiOPGUj0u62OvrN2L3rt2oLCvF8WPGIN7ajk0b3sKoY8fgtVdfxyGHHYLaflVY++zTOOKIo5FJhfDyqy/giCP6obWtEdu3NQKBGA4deJj4Bv/37+twyCH16D+gFjt3NeDZZ55HWFKsmOIInDb+NDTs3I7t23Zh2NDReGvLZlTXlKG+rhobNmzGGxs/QE1NJY459giUlYfx1ubNeOP198U/OWBwBWpr63HNj27ESSeNx+BDDkVxWQijjxuFhoYmvPDiCzjkkEHYuvlNnH3mGWhrbcaGjRvx1tvvoayyGqPGHC+Bks8+sxaTJ4yXoEcGdh1xxBCUV1QhHC3GtOkzRIvl3owaNVoAglS8O1hdDE495K5DMRUg2D4YwMaNr4kAIkBIJZuwbOndeOThx/Doo/+NWFkFHn30MdG6P/GJz+Dn8xfg8d//FtW15bhj8S/Q3BTHFVfMw5pn/oRZsy7D8WOOQ0tzC0aNGol582bh1ZfX4wuf/yY+e+HnMHPmJbj7rl8iEs7ijDOn4ktf/Ar++7/+KH7wRbffirPPOgurV6/FC39/GUcMOQKbNr2KL3zxC0hlgnj88celBsIJJ56Eiy++RNwVFI4nn3wi/rpuLf7tm9/C6NFj8Nijv8GvH3sMVVW1aGpqwL9e+Glc8JlP4bX1r+Hyy67EoYceih07dmH06OPw7X+/BJMmT8VJJ52E48aMxt+ee05AfltrE75/+aUoKSnC9T+5Hl/5xjfxy7vuw46Gdgw85BDs2d2IklgxvvqVL2HjxvV49pk1CGRDaGzYiR9fcz3e2PQGfnX3vRh0+CC8897bmDFlGgbW98MTf/ozrvvJDXjk0V9jz/Yd+NoXvoxv//u3UV5Xj2BJEJWxMnzji1/Bg0uXYcfORjTGWzH1rDMwbfp0XHLxTCTbmdUzQLIORhwzHDOmT8Mdi+7AxNNPwqY3NuDV197ENddegydXrsZ//ffvJchx0OB6XHvdVfjruv/FPXctlXoIRx41ALPmzMTfn3sFM79zOc4795N4+ZW/Y8aMSZgy6Qx8d+Y8lBRVYOTIoUgkGzF3zhzc9av78MorG1AaK0JRKXD+hZ/Dr3/9O5w+6XRMO2MSrvzeHIw95TR84tzzUV1Zg1mz52DypEkYOny4BFr6AKFvBZ//9O7twIcACAoStMWriUEIp7F67WosW/IAFi38ORr3NCKIsGQcNDa8z0pKKCstk0IiJWUlyCKB5lamO5UhGCqSSopNTXtQWcWUpTgymSCam9pwzQ+uwowZ03DuOWdLWdVwaYmmGbHZiUnjY0mZZHuSmccoKipDNpVFW7wVpeVRZAJxtLa1I4goQuEM0pkWFBWFgWwIH2xtRl3dIKklEI0yJSqFnTu3SjpaKKiBU0xppAk3kWCt+zSCYPoka+fHwTow9OdGwjEk2iNobm1CdU0ULa27JM2rcY+mYDU2fyD+ySuv/BE+/akv4IzpZ2LHnvcQK2M+NwsuaV52eVEUe3ZsR21tNRqbm5ANhpENhZHKahBVrKQEyXibFPRhP3kGzzW3tKO6rh5TptHFsADhMJs1jRIXg3wOVgtCtwGC9mSQEtzBADZseB1zZs3B8vuXIBJN44OtWxAIFWPQgMMQb08gzuyXpiaUV/TDru27UV0dQzgaQFNLI0LBiMR+NDZtw86GXUjF05ICOGBgf9TX1aGlpR1nn/UJXH3VD3HCCceLG66klKmzAbz04ks4+ZTJ2P7+VulPwgyZ5qZWxJNawCkQ1AJesbIqvPP+Vkmhi0aLpb7/ju3bkEi0ora2Eu9s2YzDCECjpXI+3n7nXQG5VTWVqKksQ1VlmaQNvvfeVonWpwm8tKRMSnNv3rwFoWgRystLpWU0MyPi7a0YPXK4WAh27N6FyrpaCRJOJFn2vEhoh2mfhx9+CBLxVuzYsV0i+fvX1qGqrELofdeeBgSKI1J9cGBtPRKtbRIEWFlTjQ+2b0c4k8WRgw/D21u2oCWVQDhWzEpIqCuvws6t27Bj1y6UVlei/+BBaE8lpVhaS2MTmhuZMVAv6Yy11VVoadqDiooiJJJt2Lp1Jw47YgiygbAA+FQ2g/4DKxGLFSOQCWHXzkZJpYwWp1HXvxpvbdqK7868HLfMX4BQOIWBA6tRUVGLTeu3oLioQspuR6NJ9O83AG0tCbz//g4k0u0YfFgtYuU1eOe93ZK1ECuLorV9NxLtSQweMEQqSs6eNRuTJk3CUUOHSYCmDxC6J6D8q/p2B3oMENQUm5vNIPnkaVZNS+PplStx//0P4cYbfywR4bHScjTs2oHq6hJkU6xlkEIgHEErCbm6DI2Nu1FRVYV4OxskZQQ4NDc1Smnj0tIKtDUznY/pSa2IVZRLUZntu3ciVl4mdQholWCaFMvDllZUoW1nE4Jg5USgqLwUoUgGbe0NWiY2ziqNrAK3RyqgMZI8FqtFKgG0t7GwCvPKM4gxnzsUlL6T8eZWcaYwt5waVCLJugRFKI3VItHajGS6TbpVNjW2o7S4H9KZJFratiOdbZec60C2HE1NjcKEJJiTTBXFSKYyKK+MoKV1j0Sry0OYrgagvaVJ0rDCxcVo2NOISAmj4oNSM2Hnzp2ojJUiyYpuEgXNHgIhlFfW4uzzPombbpoP1t9hJUVGVEtFRx8gFKQyW5RKenqYIEUChY0bX8e8S+dhxfLlCIeYitsmrcYp3Kuq65BMxY1VSWsjVNdXIZtJSt8A7veePQ0KRNMs4hNFrDwmtQrWrV2Hiy6ag6OHHo47fsHYlsFo3LUNkVAapbEoguEotr3XgLr+A9HeskdM0UyLjfNsMjOhIooAi2olIfn/rG3AiHsCTBYEyvB5ARbo0g6PrQ1N0rWxqKRU6j0wuyAEpjNqR0NWOcxI35MwwkEWL2M1Qs3zZ+EwBlWyfgFTgAmOq2pr0NKwCxEWC2Nn1WwYAUb8B1k7JChCOZ5oR2msWIIeayoqpYYDg3xZ2yGRNVUR9zQhm2Jp5SKpRULNnjS+7a23JfsgVBTBrtZmVJdXIJBMo625BdX96iXLIxCNiAZOsM3MjmiIJZSZNlyC3Tt3oSTKni/cGxYv0wJXjc2tqB94qBRfI1Cvqa3Ezm0NKC0uF4BQXVeKd9/bjHff2YVL5/4Af/7TX8RSkM22oaSoDKl4EC3NrKpIvtIs8Q0s4EYAV1pWhPVvvohYrAolpfXi7qDiEy3KIt6aQCRUgaIogxTnOAAhWlqKsaeNE7eglGmWOG+bRWN6fIj+5ac59q149J/eCUDwBiF6Q7sUGHQACNI6mU1hMli9+mmJ5v35/Ju0ZjxCAgLqasrFbJ5i2o+UKc6gtb0F5bVVUiUuSCYTjSIgFeFYO52FUuKIhkoQjjDdKy5CfufO7agfNACJVAapBMu9BiUtqr2lGWFpvsT2vSwyU4pwNIT2ZAta2xtQU1eLRFtcGF0wZNrIBpg7zu531WKtYFlkEbqBrJhjyXQJPqRwSiYtgr6sPIZEPCOm5PKKMkQiAbS2taCstApvb96FuvoaBCNs/MKKd0BLUwZV1VVojzeYwkcpNDS0YUD/gdi+/R0Ul2hRlvZ4m1grWFyHja1YZ4E1HYpKY1IlcWdDowR6lRQVC3MV1wdTxqRgTgDBMEstn4dbfn6LCAcCBHZzlDLAB6uLoYtqUA44MM2TCLXEghAOqQXhu3PwyEPLkUw2o7iI1TSLkUlqBUG2MQ6yVgG0N0Mq1SbV90JBCkz2BACC0RDibc2SLsdrWcOiKFqK4rIKKSxEt9OObTtEm2WhwUxK+2wk4yGUsypjvEXcQ9GSGLIpLQUcT+xBa1ubFG1iSWdaENrbk1LUaPduWjIqpK16JsnyyOyNEJceAVpRlPNm5cYkikq1CmEqnkBKGhsF0d7SjvKKSq3+V1QEtpZOtrciGoshndD57tqxDRWmn4qUpS4uQ3tzm6yRdJjOsh8FgVFKaoJIJUiCa9bsKC6WugEEH6wNIgCXADypxcUyybTUJSBIbmfnVfYsiSdQGinCB1u3SmAi581iS23sT8IW7uwXISXZScdJVMTKpVdFIJhGY2MDquv7o2FnA2LllWhtS4F9VkrLw5KWWlZaiVAgKve1J6hAhJFKhpFJsUNqCrW1ZWhr2y11LZLxAMpKqpBItICFJOPxJFitOpGMI5VNoLqeAaAEkkVSbTKdYb2HNKoqarB9axPq6vpLFgMDIocOH4FwSbG2ew7SKmTbd2s3Sj2H2oTOBwi+gO7rHcgDCL8wJU69GQr5AIEFTLU5iaq9tp0ty70m8QxdDEuX4vZFCyX/mUKX9czbWhu1t7v0Y1VGS02A5lqa7225U2o5xcUsDtSIsrJKZGdHoIEAACAASURBVJJU7ZinzcqFbAvNR4fAHGTp1iZlb6lBRBFvi6M4yqZGFPRhBEIBBKN0BbRqJbtIRDSVdCopwpexEMxTDgYiYl0IR0qQYRe2CDWGPVIRjVogqzGy1KqWYQ5K4SJqDKyYx/lKA6Z0AOFgmVSQS2daEQxrY6hMWlv3FpeE0NbSKhoNXR0sPoMAW+ay2U5C9pGMnPvDimy0jKj3JoC2RApFJWVoZk+GkhKxpjDug3KfBXPaE0kUxypx1rmfwK23LqAdRHsx1NZqqWUbUHrQZTF0TV622ZF2GdSGQQSFG15fj8svvQwrHnoQgUAS2XQc2TRBZdR4bJJG64tIMa5Mho2QeH9KmwKlE1IoqLgshrbmZimcFIqwbDHfKTuHJqUAD9+dlB1mMzJWIOQLzdgx2RSJ5Z8zYr3gGQpH2W2RgJKaJz12LHesrVAJqJPJdgnUY08E6TUSLQLLcrMcckl5DKlkHCyVwAA+lhdniWMpEhWMaLli0k8J6xKwN4p2P5TzI9YBVhxkMzUg2c4y5rRMsYZCVGoJEAQRICDA0tEsrKQWNOlKyvgkaHlj0hGzKaT8Mrsqcn209rGcdFOTlCEnTyAQ4BpIs3QnstgU3w/rP/CadgILVsFMZqSgEX+j6YwuxywImoqxp6FJYkaYSpxMs8pkBNkAS0uzaBOfDSlEhmBCLIOlJVWy/2yAhiCBC0u3RwT879nVjFCY2j6tBxHty1FSjN17dqAoxv4uAbCtA/tGEOynU21i3YmGy8WKNG/e5Zg6ZRqOHjac/iKccupY6cuhjeO0o6g05vLrIPS1TPSf79kBD0B4AIsXL3ZroBvh715rayZ2DhBSqQTWrXsGy5bch5tu+olo32QALGsqTEc605HxpFis1ZCElrvVdrkZVnfVHvQB+uRFnxEGKZpQKIO0WBhCbKtmpqZdJInaqVHQ7AiaTWV8/iWNfeVvKWsrUle7GipmN7UcMqxepw10xKOapfA2pCutcbXJkjBNkf3aIjoQYNtdMlKWsi0S7YlV9PiHNe4JVBhfYNv8Bjj3LPeFOInMke2sKdJt0RSjQZja+tI5Mqt7JaF0rB8v09bc/UQ6K9aUfgMGYcKkKVh0+x3SqMcGKfpZDF3TO4Eq3xkxqm069PJLL+L737sKDy5/AKEgXxTPqz1v0pvQaRHNboWsA+C2U9bzxnOh3fkoOCmEeb4p3Fk2nKWQeKZMkK+4Nxjbwl4GPEfa9EeBC7s2qpZJ4WvLLCug1nPI9y1HXUzVDF3UNst0wdFVJ2BewCFLamV1bMHkBpjTiiDUyWeEzLh69vU5On/SLV1wFuSDDrEMW1WbFtFBAhaeZ9P5kG2vpZuiAjDGCUn3RNKQMauHOHVmIZgW7lqinCWhDZ8JBpDWUisIESuldO5prZ8slgc54+y0KF0VuUdsH831S/tF2T/upkOvUm46IDSoG8FujeyxEEQ4pDFBANeqPEhnTrpNIxBkq2g+Tp/J9QYkron7wz3keNwj8gRaVoOIlVdLqeUpk6dg6LDhKIqV4tjRo6VPg5SCdjLC/EJJvnQ+sHYgDyB4LQjWQlDYgpAlY3BqhWtven6eWbMGy5bdh1sXzEeQjIUNVdhgJhMQoKBMhx3mTFlaElpAmQgJnb5aUU7SGpBFhkmBKgxAAAIDEVkLnwKd1c6E9MVtQCYbEDlOrY4auQpxxQQaiEbOJExaK+NIdTVlxsYakiGqV2aoMQnajI5zpKCXOabJAEzTI2H0+kz+raZrFfL8n45Pi4kyZD6FjEu0kAx9wdQ+maalMEEgTCAr+6a+cQUHjCuQRjLplLhhpKlPCc3MEbTGk6iqrpECNrcuuE2EBusg2DTHg9bFsBdaU2GbkQ6FPL/sDcD4l3ffeRs33vgzLFxwK6J02BPAiqXMDMj3YwScvm++W+t+UxcEhYmMb1pDi0AM6DvPBhQUioXJAaymoBXfswNcjQAzz5ZxPVY7tSHRKmG0UJ5//glQk9beEqLpGwwszxQhykZJCo4VmKr1gjQlfQWsVst1S1tpNXkHxRKgmrtUniRtyrMlgEYgrNCgcUNyPMroLDVl/knxtyASoSxIXXxoJBtAOBNAOgiOLPTJOJxAOiMgIhnIIi5AO4goA4fNElKkUYIOAUDawVIskbLvWvBKgLvCJXknpF/SkyIYBeW6Cwr4yKMsnXIdBPi6TgVqtrC8ngO+Je2wye2SzpyiUViAL+2o5J2TRq+6+oeYOnU6aurq0H/gAHzsuDFSPMrWmpM5sQ6HZ799F8OBJSwPxtn0GCAIMQk3oYC2IEK16HAwjNWrVuKLX/gchgw5Eln2R0hmxYfLIB+WKiadOUJXFRThX6RtFeq0FKpWRgRO+a5Eo5XuwjTzEZkLelemzQqO/Lf4WEnMhulqG+as4w3h73ZM60Qxrd1NHQedD62e4RDXZI6E8aiIniUmTGWoqhVyrmRQyhykWY1hYkYHs8UmlQfIOrJiChZjA4UNwY25R6AH1yExjQZIGY2MvzH5glpUWVkRMghJ46f2ZBpVNVXYvmM3Fi/+JVra2sWCQBeDvhej/fouhhwaV+sBY0W0fj7N2IxBePHF5/GTH/8U9y+9R5m2aPam1odKF7lH3r3QgAI5bSmuvRDoRlCBJeLOCBcVwHy/GWqYFLhCEHq+6TYSsKEY2vFD82yoICIYUIEtoFi6RBJUq79aZT41cEiPA3aEZHyOBAYbUEOpSnqiJUysawb1CA0Gw3IfAYIIRnveCYJIX7ROBLNIUWsWywh96DS3U7BxrSlHyNHtQBM6yzUz8ygaDCNi3AmJMKDRM0AklQW9cSLwoyEV9HQVkFCYORTMImlkc5TuBFoDMlmkwwGkaETgKEpUamFR1UGYCnu08FoBPkbg0+xPdxEDOukuFDeNuFlcawr3WfZHhlGBL3tuH2PeF61HdFnSOkq3igUQbNAmyoC8zBCiJaXSzXHsuHE4dtRoKfN++umTxKrBZ2mZbz1LvovhYBTDB+6ae+xicAECCcC2Dlbtn4THGIR77/4lfvbTH6O9vUV61duoX8Hdwg+N+dUQHNME1eqpxEKTLCUkiZPmVmkPL6a4tGjQ4qtnpznjKlBzLZmUSlLOi3nYeh+tDaq1id7C1sihYqQTjK5mi1ameSnDVCZNRquWDJpT1QwcktbPtGiQgUrtISMklLipQWjDHPpZ1ZpgiD6kgEqsFgIo1NKiVggKD43dELEjamZIg7oYPyHWBun+Y2IUaLJkpDokYJIFmBioFqeLYeAgTJ9+lsQgsBkMC1D169evQJCiQqODo9Ry14QnwXEMxkswqE/jCxgE27BnF44fcwIqy2Nq0iZg5DvXekryMdZ5Yz1SUOn1ymlsCWWcW4OB55GhJQIoCRRCQDwVkHAUHnkTu6tCQjGAOKUFhhtwyzkIDRnLFmVjiKDRAExt9kNQTbCsdOW93nqneI+6KHj+LIYxbgsaHYy1RO5XT50+0wpNA+yFBs21ITGPZeXsSiwNA/woKINZ0JUQ4/1pIB4BmDDMcYvZ9IkdIQNZtIvGTasC5A/xeTIEJIQQgNIMGL0jc2vj9hAvqRFI3o99B04ElcFlNomHa+Y74bbyenUVukqBwQiOVm+1e743YjPvR62GRpnIOxvc+1SaQEy2Qyx9iVQCi36xWBo31ffrhyFHHSVBodbFYIGNH6R44ArLg3Fm3cxisPEHngwGyxVEgFKrkagprHtmNVY8+ADmzv0u6gf0R7qd0fkMyiMjIkVyLCJsCnF1HYhfQKSWDdOxaNxeb16NaDGG/NWJqXEG2uTd/LF/qT9QeZf6GcXNwNSsLNmMcDMEAnGNGRBGx4Y6FNr8lep9QhgsdUjhQ46NmZof3QZil1UhbM2qJmvAlSVWS7NapFkq98MIKNveVXyWJvhQ4iCsRJJF0Myt6Wk0qzLgSiBVJCoAoT2exLf+/WKpPknJozEItarFcp7G2OP2zzD+74Px1NvjZKwABHmMuKc2SNC4ccMruOp7V+Cee+5CQCxSBMC6j66/WM+dmvlF/1ad2J5FOdsEsjSr2/NtXFs8c/JdCGmm5BJQOlEmavoW1GDONoGxXm/oQ+jAPtcFIO6rdHwheW/X8TXYHSjwu6EX8zT3Ao3p0RXrqpWuKGk1U0bmpISiMTd0EUgMEBDKBlCcousMaI5kkSBQygIlKaCIoCGYFSDA80mLQoRWgkBWAEKWygFTOcXoIY4M0GAnlgUZ27oeJNrIWDbdv5Vszewd4KOWAUONuhoPmPNujFznkK8Cf0vzhgE5Z0HITMBUQC03oZAEo353zmU45ZSxGP2x4xCORnDq2LFiqVHXk0uLvgXhIGZIB+DSCwCEQgzHI+6c1DFDaaLFq4mU5s01a57GsiVLcPuiWyT1kBpUSTF7pqtPjySsWjQBAtMdSSEmPkAYI6G6oXzx0+b+Zn3/TvVGMiuZsmWKdpfdjoXKyGjSZac7Bj0agEDmHaAuoybiQIaR1RE1JzM4De2iMdlIcTEhq9plTI+GTRqQIE82+2PBhGUmjilXN8pcyqAuG3hmwZfO22VWGnglvDej/l3uAcdjLQUyaEKH8qpaTJpyBhYsuM0BCJrFYHbTAQhmfzxM6QA8l/t9SmKyF9cVzc20TNECxHRW7ddx1ZWXY/nyZaIFKtNXwOZkhAie9QJTAxDkzBJVMt6GFjFmqBihn+F/ayS8xgNEkEEEadKPBLap2UDOuNABPzybpBd7vvmbdxa9sVV2bC8NWRuTCwREEzcA1sRXOg9Xt4gBCOZvK8h5bTCTRRExdzaLZmZChBQsWIBAcEB3goAJtt1OEyAAaRNCQdDBYkp8Dq8h8KCLQTRvWhDElWACeZW6HNnvZqvYrwywt/DA0JeN0FYXqgFBhuZzuIv8ZsyfVjGwCMIxveh8CAJY6ZRBimefcy4GDByMaHERjj/hRHnbzDRxwYfJwvDTHHvjUPtj9MIOdBMgeLRzQxCOGBYTuwlkCmSxdvVKLL33Htx6602aR0DkH2awIIEBhbS1nVLyugFOroYkKoMOL9dagCCGTgQc5mg0AhscVgAgKJswklEyC5hNQM1OgYkEBwYSJjKbkZH8nkKCGIAWh4RRiIw1goGHDi5y/beqnBjO5Qh/67/U2AllUjojBQvGj+38t/I0vY4cVTUVZc8MWHTToOieoPWCfQEYe9EWT6Cm30BMmnyGZKLEkylJc6yrq9f7BdSowucYQQ5ygKAZBrrH4jN2LFMZKdM7b+4cPPTgMj1/JuhNax0Ys5W1XjnCyFq/vACB6ILuI/Xhy9kzAEG1bbq/QshIIKq5z/gVeM6tOBMLgtCCZuBIYGKvf1wad1UEVyyKy8yZkcH1eXNQvCTRtuo6ozpgzh01/yiXQfdAxGj/zHBiqmGaMQjqTpBzTX+8xivK/RyH/02QYRX5lMRxmN8Igg1hSu6He8g99Nb5hunlOrKXRo0u4HxnmJJLu85zLF15wD/BZCCEVDqLklgZ5s67EhMmTsKQo45GSSyGE046SVJLNVjUWE4Y+2GDHGVKunm+O7DXD7s/YDd3oJsAwY5WSNMwh1gEWxrPrHka9919FxYumK/+PRI8g4Ek6MeQtBHq4mKQj6Z0eU2oRrJ1+E0Yrcf8ScCRbztwZ2u4k3mGZgtomqHzXEc7o4igM9ekRwpbShpLgT5TA56M9i9dgK2gV8aobgZljt6/HReC/uQxbXrcFtY6YVbnMDoZTx3MEk0uvs+gFIoR64GJWygqLcPU6WdJLwaaullqmS4G7cXgA4RC9OBYdSQAkfEdKYRDQWzctAFzZs/CIw/dbwCqAgNrwTHhg8rY5TBSs7UpbjZbxq114YBfaxUgKFVd2VTCVHeXpseZ0+0BCJrxYF0PCkS8+n03ad25zNJLLhAoREVegKC3O7LUZHG4z7bWAwuW1bIn2QrG7E4gwD2PMwBYgjHVbUCXArMYrEUgwAwpww4c2yXpywAPAXV8H3YBJsWRtKlZTbkfNQhotpHMxQuUnUV5bJCyFNd9aP7LvhldkYeO83fOTotVMCORKEibs2bPw4TTJ2H4iJGIFEVx6mnj1BNjniOxCCZQ0S+U1NMT7V+/v3aghwDBQ02eGblAOoO1q57CvQQIt92CsKYmCPPVlCGSkkk7FIHqtSB4AELOanPBg5OyZ68RP3BnH1fr0X+ZqC/HfKuRzy4DpyXEaogc183plpXnmRu1joF5ttmEXFeC/ubEEnjGsDP2Xu/EMpjiU9akq3YQBQhqXA4gmUpJiVtGwTOSndXiTp9yJu74xe0CGhikWFtbJ+AsNwbBPNm3IDhuHGtB4Hvifm3cuAFzZs3CIw/fb/LZNTCUqa+sYGnEjCukjVqrVghzXmmlkpgE6x6w7jOeOVoVFCA49TpMmqAdWyuC2UfpmOpJs5YKj7DuAXfw0kohS0GnQ1mTu5mCtbhYS4ylD52jEa4ECFQMDEBgzAHXRGuBZHBQeaBlgEYHCfz1aP9WmHsmrAYK6+bzbI9DgrTwdeQG+TRpLUdym2PZywf3yutca0TuzoihxKS4urFO7r+E5iVQOSDFmmbNvRzjJ56OYSNGSDGqkz9+qnFVmlAOv9RyD06xf+lHtQP7ABAKT00LCKWw7pm1uO/uu3HbgvkIicPQZvdrOqDk9jvmc48K4FgQXLalT7JmO9ca4L2ic3BQaJ4WhHQ2gmvWt8/2ah5eQV9I8HuFvpexeH2gHfyhXsuBgCZjrTCxXhrObv2dWan3rzEVEjqntRMCbOBTiYmTp+OOOxQg0IKgpZZ9F0PBk5DjYrCau0amb9y0EXNnfRcrVihAoOUpJAVybLqbx/TrOcLum+MrM+mNAkA94Ff+aeogaMa/54xb7dcbjGssFJYUzPmwOHb/Mgqj/Zu4Fwef5JjxCwlqBTNaIMkN6hNhbKxw4kUzUcZyrdlHoQ8zvuyyh8A1idG11rkAyrXEFRLo+TTnpdP8/euKVt37vODBHgD9W62FOmmJ/wmEUVQcw5x5l2PCxMk4atgw6Y0hlRRNxpX1bmkIq19qef+eaX/0nuxArwAEDfhSE+za1avUxbDw5yq+LMGYPGwvmtdAvEIi3gsc8peTDyB6sty9X5vPYLwMo7uWAGUO7roK3ZfDOD0M0cYaSMCVCYbSoClNyYuw5LTUeyfQCiEbZFok/ZwVOPOsc7BgwUIJUhwx4hhJc6QA8l0Mnb93eb8UWsbSxcDFjRtex6VzZ+GhB+/X5kfZBIIB7n9Kagi4WrxroeITFDa4GQtiHbAZOnIoTMSjsUxp+KgXIOTOU7MZHGTgcayZcIS9H+cPcYUF5nKCNGbH42LoDJh3AMae3FAHnpubSRfyFFMpUUC3AQgSdyCuAwvVTWqxce1J2qVZndoGXfBQaNFeGvRaEJS23NXkWxvy+QF3wboxnGstaDOxRfLG5DyphaiktALfnT0PEydPlnbPYkE45VTrfMkJSPazGD7EkfVv7fUd6BWA4JBwNoM1q57GfffQxXAr2wgpQHCYpGMzNQvx+gs7AwWFvt9XkFCIGVuTsdUKvHPS4EvLCLoDEOwb8l7b7fuMsLKrIwgg7xFNw2gnGsXN/Hap1CQBbnQxlMTKMfWMGRKDQEfEqPx2z8YA4wcpdqQh62Lge7YAYe7sWXj44Qe05C5YvVNTDfXd2DREozU64EBEnCEHG5Ng41ZcC5gbc+M9e955uQLLCuf8WWsGRW9/8se0FgQXIFi4kp/FYGeSI1DNebb8wVKWuhrUfC/6tgUIxidvgw+ZvugFCIxnkOeyhoTNzjE73hVA6MyCIPOyFjwLRPLAQmcWCb3V+kG8nkZDq9IES7MYSkrLMWvOZZh4+iQcPWIEiopL/HbPvX10/fH2yw70IkAQ2Iw1q1bmAgSThZCvaylpuSZVd3Wu5uKE3js/5gOMnu5JdwCCLZ9ozMgeF0C3BX1e3EG37/MABNGKCE681gUTpOgDhJ6+966vLwgQ5tDF8IDpbZAHEJw4gFygqrUAbM68CSSUIFrvdSLhzIS6ArpeYW2tFvY2L4305l4UBh0yyzxE0BOAoOCWbgQdX9qiWFeDHdpYBCTQ0FgEBCBYvMV4BhtvZAGCtUSYTAfrfugApjwZRIV+czOQci1/WkXRZid5OZSbzinP9GS0OHFEPkDozYPpj9VHO9ArAMER2zkWBLoYmD6mf0TvlVQpI3iF6zg6hdtQxsloMJSn7RvdkmkiMjvTvD7sLnYMSlILpIEzXnNpTtZBLmORlZlmO+6/rY8y9xmda1yswqb74zCdAgCBQYoseetbEPb93ecChIC4GObMmYWHBSDQgsA/5gzLCxExl2PyVyFq/k/+IxcSdzU7q6d7EuI1a0HOHQezAMEAXK/bYt+X3cM7u2e1yznPIiQd1TzHmWi1eitg7WQ0BkH/l+9i6AAQzE0WUNjtLwwQCoMf62JwspO8QY6FaiAoQeojBOR0BAiWZpVvqQWBdRCY5jjUtyD08Nz5l/flDvQyQMgaF8OdWHibBQge5ipqh4IENnDRGgceBmizHLzAoSBA8Jpr92X7rCXB4erOIC5/UCagjMzwg30GCC5zyjd3dgAIxo+pVoLuAQTrYpjiuxj25TA4dRDUxeACBAYpKsjlGTaZBM6r7HgGNQVXVeHC4qir6XmrJ5oCYQ5A0G6m8nGKM+3TUvf7TfkxCJZ49Fi7dQxy6MDsl7WWGcJz+1GYWWvxdTNOD2IQXBru+Fa6osfOXBNeK4G+k1wXg8s3WGslJOBdXAw+QNjv589/QO/uwH4CCJrm6DJXr/al0fdKVNaCYBjgXgGCt2hS9zSajtvlvc+aah0biCdeSVMLtXqi3tNtV0GOBcEV9C7jyAUMdo7KkFzzsw3iUsbq6V/hiUHQTAa1IPgAYd+II9+CsGHjesydPVuyGHIBgjeqvtD5s4WMuhbkBU+uJ31RU4E96ZHSatgtHqZ082FB8r7tVaG77HpyBLwDrl0Lgm1ApdVJ3fMsdGG2zjHpE6x55LlSam6GQ34WQ9cuhs4tCB1AjVlkbwAEBgyLBcEHCL134PyRPrId+AgBQn6hF/I4W+SI1Q2tG8HWnecekCl6wYNlmrnmXaNa5W1aIYZgTLYSTW5/t2lJ/G9TB8HUHRAI04cAQYIUrcZk05+Mm0Z71jNK3gcIH5ZacgBCKICNG9dj9qzZeDgHIKjfuWtYujeAYGsZuFUS3bkbS5p8wZrE+eXHbfVELajk1tX8sKvv/P4cCvIERXrjI/P3Q10E9tjmuhgsQJASygbwWjeCNIGyAbm2m+XeAIJn6lr/oHDdgq6CFL0WQgvgcwF7YauD2IpsWdUuLAhegMBCSUOHa5Diqaee5tZBcNahHS79Qkn770z7I/dsB3oVIFDTXbvqadx7951YJGmO1jxrI8BNDIKn6pzD6ByhTaFoAwVNXwYBD7agkRHyHVh1vmWg0EYUutfNWxb3hzET22Y4PkDo2YH6Z7yafRg0kM64GDaux5w5s7HiIWtB0HTdrqMK7PlzC211dDTsDSDYMWzVUQtobUEx7m7GpE56AcX+23XXo+IKyn0DCKYeh6l5QIAgljGTqWABgrUgFPKkeC0I+StWK0BXAEHEf4eN2t8AwetimHC6pjn6AGH/nVd/5N7dgQ8BEDxmcif5S2MQ7r0rHyB4hbCxDFATzknVKhQX4GG6rl6Smw/eK/vhdTF4mYjpl2C+6rmLQSfX3ft67GLwLQi98vYVIGirY5Y5YLOmS+cSIDyAIOt3SJMs/rEuKftY7/nsILI6nVunVghvvl+OMHPv0KNogW6vLP9DD9JdF4OdtnVFWNN+DuV7KpLm75O3AVphgNAxWNhaBXJifTw372sMgr4G923YIe1zdFwTg1BaIS4Gx4JQUtyNNEfTX9tTVntfnaof+gX7Axy0O/AhAYIyKreZCAHCSgMQTB0ECfCyjNWaH70FYg6svc9nJF4G0l1Bnw8Kuntf1wDBmB69dRB8gNArh6cjQHjNBQiSfZMSa5hb1TPfEuUVkb0ypX/aQfL9+V6B6V1UV/59K9R7CgK6um9/AIRCY+YDBDZsYqEkpw4CXQw+QPinPd8H28R9gJD3xn2AcLCRAKTVc64FwQcI+3oKfIBgrArGguADhH09Sf59B8IO+ADBBwgHwjns0zn4AKH3tt8HCD5A6L3T5I/U1zvgAwQfIPT1Gezz5/sAofdegQ8QfIDQe6fJH6mvd8AHCD5A6Osz2OfP9wFC770CHyD4AKH3TpM/Ul/vgA8QfIDQ12ewz5/vA4TeewU+QPABQu+dJn+kvt4BHyAcLACB65RmN7Zkr/7tp075QYq9yYR8gOADhN48T/5YfbsDPkDwAULfnsAD4Om+BaH3XoIPEHyA0HunyR+pr3fABwg+QOjrM9jnz/cBQu+9Ah8g+ACh906TP1Jf74APEHyA0NdnsM+f7wOE3nsFPkDwAULvnSZ/pL7eAR8g+AChr89gnz/fBwi99wp8gOADhN47Tf5Ifb0D+xEgsFkTK9TlllrmgrVnmbcCe19vg/v8f5pKilIHPih72bHdcwCjRo1GXV2dLszpOucHKRY6aT5A6D368wFC5wDB78XQe+fMH+mj2YEPCRBc+RMISLFarH56Je675y4sWjBfGt0EA2lk2exGwuXdpkjufx1YcfS2K5wFMG63tyy0xbLOnPI5nxnaV2bH0F4u3bvPvccyGHd8/sa9ZbMaWxJYnh8ISo9cAoTi0jJMm34Wblu4EIFgCCOPHY1aCxCkTbGZO5sNcpyAfsPxDuYP94K9MoKBILKZDLilGzasx9y5c6RZU0hAbgbBrLYad/uKcN/srh7svRhsbwqlCy8duDSS/1sm51ovXVn6yj+XuXTl/dWOnfuMzmjVM8O90nGuwuDSplC2Z7HOCTDfaWMpbVdfLM2a5mHipCk4ethwFJeU4OOnnoIAz5yZjLJH0qXbBEpJ09vrZv9Sql0PeUNnH4d3GB6SAxOUqwAAEbtJREFUy/PYwZpNz5S/5Lwhy3MK/NbdVeU/O/85XT3XO8+9rc9e672u0Njdnbc9K53tTU/G6e61H3a+zh5ks9nsU089heXLl2Px4sUdXmx3JiSCiwAhm8Hqp5/CknvvwcIF8xEKZoBsmo3TEbQHX1LtnMcXaMDanSfux2ukGZImA9quc9qZ1jSbLfBv5/DZ1ZgxLIiwhJcPHFz+YtvUKlHl3md/UyZMjELGkmb/ADIY6QBIgFCOqWfMwKKFCwU4jBw1GjUCEAwEMGAlF6gpAzoYkx2VgLTTpiWmdCaFUDCIjZs2Yu7sOXhkxQMAGzVl08Yaxq6kpmkWkYQDFyzMyu9auh/P6QE0tBcUeIW7C7Zt40OvAO/YmtkCai9d5AqZQt0aXXCQL7S9QsGOnb9tMkdDrx3ud5QAL88yI5imabzdAd+25bRcEkI6k0U2EEZprAKz516GCRMnYeiwESguLcHHP/5xl9eKctU3H1WAlH+n02mEQmwtrh/7G7/z8jBeK6A6SP6TCwbsOPytJ5/uCO1CAMYKXTtf73O9a+tsLva5dh1cV2fAoKs57m2tnc3lw4zZ1TPt+/G+S+H2XYC/QuN9CAuCO5zd1EDAtnv+FRYuuAWhIIknjVAwgHQqiSAnZyihAMntbY8/kt9zhblLJPnMw77w/BfgEJZHw/Bemz++lxCFTbANttNGlrukAky/CiCVTiMSiSKZSAlAYDOYVDqDWEUVJk+dgdvvWASKqWOPHY3qujoh5FCQBG50kRxLjo55MAIEd9/ZpVE/BAjBYABvbHoDs2fNxiMP3w8QNAAIB7NIp1Pa/lm0JLUnqCWG/01Lg+1a+pEc1QPyIV6t2ssUC9FLIQ3QSw/5C8wfwyscenKfd1wFCK7K0hVd596ntGMBhrI1BZAE8el0FsFwBOlsECWl5Zhz6WUYN24iRow8FtGiIpw6dqwjXPOF1Ef9Yi3/zhfAXl7VlcD3AglXFiiIyNeavWv1rnNvgst7rrxj8HsLVPL3zXs+vP8mELLrsffyu3A4LHPmx/5ur93b/Pb2zrzz78m69zZuod+97zH/uT1dR68ABD0gRJQBPLNmFZbdezd+fsvNyKRTSCXbESstFYDAF0AzboYstYOg2pet2B/3eM2VXveAsCB5oNe90Bnj437QsmJ5j5fYvIzTHkTn93Su6TVLi4tB+RYkZGmYMdpNJBxBMpVBNhTBued9CgsXLQSCIYwYORJ19f0UGBiBJqKsg6rSV7rL/nh3PRuT+5rJpOUPzybfbyIZx5a33sK8Sy/Fww8vRyaVAAww4HnmNaFQ0FhvzPPE1UNG1bPn/1+5Ov9s23VZAOCeX/dse2kgX2PryOj1G5furEvDWhQ6dzHsDcirYdPVgnUtHencuyadC+9RDZqXWyuCnClxBwYQCIaRSmfFgjD30iswafIUDDnqaAEO48aPlyHt2j9K87Ndi1dbtnvwwQcfIB6P4/DDD5fLUqmUWBXs74U09kLCz+67tdCRvhobG5FIJGR8fs+xW1tb5ftx48Z1SQ68nn84TktLCzjP999/H9FoFNXV1Rg0aBAikYjM1QsY8sFXMqlyyH74u/1OlKlQSCwp9r6eWkI6W0S+xcV75nqbD+RbQfKBUk+e10sAQU2rFD4rn3wS9919DxYvvg3RiDJduuJaGxoQDoXk5YgZStClorUD46NMx3vYXcbmcayayapwUe3eEro9VPK95zrLULzj5T/HEkCOEkqDgsQ72D/cTroX0iguKpK/M+ksAqEwymr7YcqkKbhj8WK0tcdx7KjRqKyqRsjstzWxihXH/8gOqLaglgF+yBwIFjZv3oQrLrsMS5bcC6STyKZTiEZCCIeCSKWS5qxzH4MCAnluuK+892D8eEFuIaFj99pqZ5Ye7F7lm4Xz6cVe5xX2XlDiHa8zYdXVGGJDK0AX+Wvxzkv+bc2hJjaJIEFtfjxLYbTHUwhHoygrq8IlM+dg6rRpGD7iGAEN48ePzxFUfXVurKCisLY0YPmZ/c26Hry8zv5mBX5JSYkI5u3bt+O1114ToU9eTwFeW1uL4cOHY82aNaipqRF+xu/5h9eUlZWhX79+XW4B58DPpk2b8O6772Lw4MHyh/cTcOzZs0eAAoV9eXm5KqPZLHbu3CkgZODAgTI//uFYO3bsEPqvr693ruWcX3/9dYwaNUrmtn79elRVVclz8i0LPXlfXqBsaYHz6Kk2391n8nn2nRFINTc344gjjtin89ZrAEGDazJYvXo1lt63BAtvm4/W5iZkMynESksQBDeETJkvOoBgMISMCfzq7sL333VuqFBHgNAxmMplVLlBSzo/FeYWJFgNQ1wq/N4GGqrjU2M3TDAS/yEKiTAc/WM1Gn6vaD4iv/MPEXMqmUYwHEZxeRUmTJyCxYvvQDKVEgtCfb8BQjxFxcVqyTAeHh8ieAI1sxkkEnEBB6opZbB+/Su44rJ5WLr0PkRCQYRDRGp01SgQIEjQgMaQ42Kge8jxRe+/g3pAjqxn243T6RCyaX9TP5eIVbWuFQbehoycteaYlD1RSw4demIIeNBdalaR7Y0xsDSoF3mfbyaWE3zssQDmjyPuQNKhjsJAVvtsAgQRKMGwZBmVxsoxa/Y8jB13GkaPPg7BUASnnHKKw7D7wnqQD3YosChIKdwPPfRQEbTbtm2TdVBjP/nkk0XYvvnmm06cwoABAyRTivfw9/wx7Qu063vyySfFUlBUVCQ/kZ9Zq0BXmrpVnt544w0RdiNGjEBpaalzPuw5oFDkvLdu3YohQ4bI701NTQJaCBAIYizQIEDgv7kG5cEBuY7g42Mf+xgaGhqwceNGsaQQvFjrwr4QoBcg8BkcywKi3rJQFJoXn8t3yD3gO6W86Onzegkg0HpAYkljzepVWLZkCRYtvE1Mscl4m4PcMqm0MGAKQjIICVw8wMIULUOxGy6Hz7P73mhl/U0zC7zE4Wg3ZnVehqmAQYGCsf8rEKDQN1LcwA692zIyZxIBsRokkwmEg2F5dqSoGJlgENPPPFtiEBKpNEaOGoWamloBYhpsqYuwitLBDhK8wikeb5d9IUDg36+9+gquuPxKPPLwAyaGPINkIo5MOo2ioqiAA7lfYmo0bsS+/31hIP/s9zgCXDfB0YxywLb5zUtXGfICwwIcKvOCCXNxZy6IHIuCZ3wvTXrfi5KS0qzBKiZrwE7DQ4c2VsoG91r4lxev4IIPV1mw4CcQCiGeTKOyqlZcDFOmTMbAQYNFiz7xxJPkDOmZ63tq5FxeffVVEbAUwFu2bJFNofbP+VGTfvvtt0XYUPjyegocggpq3SeeeKLhL7oWWhY4FoWyFcBPPPEEpk+fLoKZ9/MZbW1tGDp0qGjsnX14LTXh9957D8OGDUMsFpOx+QyCDQINjmmtGOvWrZP5cH68bvPmzQIEaKngtbQUUEi3t7cLwOEYfAav4/Wcjz03+WevpwI2R45kswJCOKZNQd/X8briGV5AQoBA68qRRx4p+9HTT68ABKvtMkhn1cqVuPKKK/HJT3wC4XAImXSScNoTea9oTTMfOmoQPV1Ab1/v+jk76EEm68hLzK6ukj8PhzmKDMm9x7o5A0HuhWtqslq+d6wcDGX83Mxc4JhB6i1ikQmiNdGOXz/6GG66+WaEI1EcO3o0amvrdSiTeiQZDZ6p9D1b6u231/3xrHAhgaomo0yGf7Zs2YwfXn017r33LklU4zkWEJdO5QaWWaAnGQ2y0d2fwEFypaUDe+688TuuciDmx5z9sybdwveZzcsB7662X0je6vsWtm/RgPO6NDhYIUq+VcOdv9Kc+8mPe7AAQV0MMliQfC6ISFERLr74Ozj3vPNQV1ePivIKnHrqqU4mwP4QEt09XpYOKGxpCaAgqaioEO25uLhYfPvWp0/t2gp0K4RoXXjllVckK8NRjLJUYJIiiCm0KdD5Gy0IkydPdkz/FMgcn8I7PxbLu9cci+CFwIrmftIrLRn88H6CFloWOHeOw3Uccsgh4mrghwCGFgT+N+n7rbfeEg1+9+7d4pbg95zfSy+9JIKbz+B/08rAuXMfOC73yIIdggv+5o2xsKCCv3FfuHa6OggCuQaOw+85V66BVhACL7u/vI/f8zrh78YlYveaz7f7VOj5XmBg988CBOti8Fqr7LtnLAf3wwsgaC2SefRGmiOpgYKKQYpvb9mC//zNb1Aai+GDre+jYfduRIwfPJUiA9b0GNnMA5Sfqok/71NA0Fuh4DCVXB6XIzOcRCaNinKZoVg2VRNVNpkHTDwaC6+gtZvx8kzHo0ZLbTYSLUIqk5bo6GnTpyGRSGLUqI+htq7emMA1lkFFmNF2jeXjAH0F3eVv+3yd9dGRwEl4NoaG37/8j5fx1a9+BePGnSYAgd9FwiHRIVNJxpdovA33Mu2pKbHPk/k/fGO+5cqV0S6NWTdbAY+D45Jwg31dIS9MkEqGlfnmn2qZzP2YWMKOFss8Uu+gzRtgQQzoFWLqLnWf4QIZCzSYfUyAoHN8etVqzJ41ByOOOQZVFZVixibfsDFZ/PdHDRRyrWhxWQyFAr+nOZ8CkD56jc3JiPmdgunoo492shMo7CxAsAKSf1PQ0ULA9dFMzzH/8pe/YOrUqTIGBTx/o+CiYBKl0ZP1wDHsftBK8cILL2DMmDGi7dOSQU2c1gTOlwKOAtgCBM7dghs+l4CgsrJSAAZpnWONHj1azO+0KvB70vizzz6LkSNHitDm58UXXxRgwT3gh/Og64F/uCcENpw7AUr//v3lGs7j73//u4zBOfAe/pvz5t8ERQQmBA8EJxzbghHuL+dDwMJrCSYIWCxYJjjjs2kR4N7xmZwH95Nr4Me6bCxY8AIEbwCnBQq8buXKleIi4vu2n5dfflmtR70FEMR1AKC5qUkAATEAkRtRGP22AX7hCEYSDl0NKrIOtE++FuEqDq7wtiZKa6P0MrfCFsPcdYpl2mFOlslpTYMcp0YOQLC7ZYS8yUWORKNob28TUMYDyb0eOfLYHIDAOw4EU+aB8q7tO7YagBKMRlaTyF968UUkE0ns3LkD77/3npxSCh5avhiAZm3UonVqMEmXS8s/UwfKPuzfeeRarOyzXE1Tv/G67UTIyLedWBedOiXkKR333Hp+8tfVnf1XoO7e6dWIrUZnLQ2OQPPSlYMSVPnRsxUQ8M7rP/ax4yQmqK6mFscff3wHDbEv6JNrtBH2VkBzHhQ6XvBC4UIBRgFr/fvcKQoxavcUMN794lhcK4W81Ygp3Gid4HV2fLoW7HNtSqEXKHEutEQwOPG4446Tl/Pcc88JsKBw5XzoeuD8aDXg5/nnnxfLgvXzMyaBY/M7zvcf//gHTjrpJImp4FwoaDmfv/3tbxg7dqyjSecDBApbCniCBgp3ggM+n9/zO66Ta+Z+ELxwTvyda+S/uZ8EK1yvDbDkd+Q3DOBknIC1pvB7Agmun8KffxMIca18FgEPQQdBA8ES12bBnbVI8B66ZqyLwb5PoS5PcP2f//xnWbc3rqPXAYIGf5icVPHvtMliOEEbGKITt673/9shXd0hdi/T8r4wL5fKYWySSmqsL8y7N2YovnBrmeFh48E5csgQ9OvX3zkI1tdpkeX+FQz/XKNbU5sIK8PkhWkGAnjzjTfx5htvoKSkWAiZf0jwAogN6LWFwvYGEv65dqV3Zpt7rjuO6QTo5vxUqCJioXtzYz8cR0UBsNYdgLC3FevZ8LgyCtzQEdaodVAEcTaDdCqNivJyEXY8R9Zkzb/zCxXtbT4f9ncvIKDgpFCgZkvhu2vXLuHdnDfndcwxx4imTAFoffQ2gJEmfQIeCisKMQpbb2wFBQ8FmPXxW+3Vzp/30RJx+umnOyZ7a7XgNXzmhg0bROvnfAgAqOnbugW0VFDrtpo+C/+dcMIJAkb4IcAgGKAlg8KUSuuxxx4rz+R/E1jw3wQhNtiS9+UDBK6Nc6Ug5zxsDAblHAU758A94nrt+8wXyrRucG3cY8uLudcELRTStlCVBWm0znBv+eFzyH84Xz6b74XvjWsgyCFAsCmcFvQRHBEgENTZ3/L3f9WqVbJfhSwI/w+YZmuUsl7ZogAAAABJRU5ErkJggg==;fontColor=default;" vertex="1" parent="1">
          <mxGeometry x="-800" y="80" width="520" height="502" as="geometry" />
        </mxCell>
      </root>
    </mxGraphModel>
  </diagram>
</mxfile>
